M48
; DRILL file {KiCad 9.0.0} date 2025-05-10T16:40:04-0400
; FORMAT={-:-/ absolute / inch / decimal}
; #@! TF.CreationDate,2025-05-10T16:40:04-04:00
; #@! TF.GenerationSoftware,Kicad,Pcbnew,9.0.0
; #@! TF.FileFunction,Plated,1,2,PTH
FMAT,2
INCH
; #@! TA.AperFunction,Plated,PTH,ViaDrill
T1C0.0118
; #@! TA.AperFunction,Plated,PTH,ComponentDrill
T2C0.0402
; #@! TA.AperFunction,Plated,PTH,ComponentDrill
T3C0.0413
; #@! TA.AperFunction,Plated,PTH,ComponentDrill
T4C0.0421
; #@! TA.AperFunction,Plated,PTH,ComponentDrill
T5C0.0433
; #@! TA.AperFunction,Plated,PTH,ComponentDrill
T6C0.0866
%
G90
G05
T1
X1.7913Y-4.9213
X2.0386Y-4.0047
X2.4213Y-3.7894
X3.0512Y-4.2126
X3.6811Y-5.1575
X3.7008Y-4.7047
X3.7205Y-4.5669
X3.8386Y-4.7244
X3.8815Y-4.3701
X3.9173Y-4.3307
X3.9567Y-4.2913
X3.9764Y-4.5866
X3.9961Y-4.1339
X4.0278Y-4.9213
X4.0354Y-5.0591
X4.0551Y-4.0354
X4.1535Y-4.9606
X4.1732Y-4.8819
X4.1929Y-3.8976
X4.2126Y-4.0354
X4.2126Y-4.4488
X4.3307Y-4.0945
X4.3307Y-4.9606
X4.3504Y-3.8386
X4.4094Y-4.9803
X4.4291Y-4.4882
X4.4882Y-4.0157
X4.4882Y-4.4777
X4.5079Y-5.0
X4.5472Y-4.0354
X4.626Y-5.2559
X4.6654Y-5.0394
X4.685Y-4.2913
X4.9016Y-5.0
T2
X1.4567Y-3.9228
X1.4567Y-4.8228
X1.5567Y-3.9228
X1.5567Y-4.8228
X1.6567Y-3.9228
X1.6567Y-4.8228
X1.7567Y-3.9228
X1.7567Y-4.8228
X1.8567Y-3.9228
X1.8567Y-4.8228
X1.9567Y-3.9228
X1.9567Y-4.8228
X2.0567Y-3.9228
X2.0567Y-4.8228
X2.1567Y-3.9228
X2.1567Y-4.8228
X2.2567Y-3.9228
X2.2567Y-4.8228
X2.3567Y-3.9228
X2.3567Y-4.8228
X2.4567Y-3.9228
X2.4567Y-4.8228
X2.5567Y-3.9228
X2.5567Y-4.8228
X2.6567Y-3.9228
X2.6567Y-4.8228
X2.7567Y-3.9228
X2.7567Y-4.8228
X2.8567Y-3.9228
X2.8567Y-4.8228
X2.9567Y-3.9228
X2.9567Y-4.8228
X3.0567Y-3.9228
X3.0567Y-4.8228
X3.1567Y-3.9228
X3.1567Y-4.8228
X3.2567Y-3.9228
X3.2567Y-4.8228
X3.3567Y-3.9228
X3.3567Y-4.8228
X3.4567Y-3.9228
X3.4567Y-4.8228
X3.5567Y-3.9228
X3.5567Y-4.8228
T3
X3.8287Y-5.1565
X3.9272Y-5.1565
T4
X4.1429Y-3.7205
X4.2429Y-3.7205
X4.4472Y-3.7205
X4.5472Y-3.7205
X4.8819Y-4.3398
X4.8819Y-4.4398
T5
X2.3575Y-5.0492
X2.4575Y-5.0492
X2.5461Y-3.7205
X2.5575Y-5.0492
X2.6461Y-3.7205
X2.6575Y-5.0492
X2.7461Y-3.7205
X2.8461Y-3.7205
X3.2555Y-5.0492
X3.3555Y-5.0492
X3.4555Y-5.0492
X3.5555Y-5.0492
X4.0945Y-4.3533
X4.0945Y-4.4533
X4.0945Y-4.5533
X4.0945Y-4.6533
X4.7343Y-4.4169
X4.7343Y-4.5169
X4.7343Y-4.6169
X4.7343Y-4.7169
X4.8819Y-3.8748
X4.8819Y-3.9748
X4.8819Y-4.0748
X4.8819Y-4.1748
T6
X1.5354Y-5.1575
X1.5748Y-3.6417
X5.2165Y-3.6417
X5.2756Y-5.1575
M30
