%TF.GenerationSoftware,KiCad,Pcbnew,9.0.0*%
%TF.CreationDate,2025-05-10T16:39:55-04:00*%
%TF.ProjectId,HELPStat_V2,48454c50-5374-4617-945f-56322e6b6963,rev?*%
%TF.SameCoordinates,Original*%
%TF.FileFunction,Soldermask,Bot*%
%TF.FilePolarity,Negative*%
%FSLAX46Y46*%
G04 Gerber Fmt 4.6, Leading zero omitted, Abs format (unit mm)*
G04 Created by KiCad (PCBNEW 9.0.0) date 2025-05-10 16:39:55*
%MOMM*%
%LPD*%
G01*
G04 APERTURE LIST*
%ADD10C,1.650000*%
%ADD11R,1.605000X1.605000*%
%ADD12C,1.605000*%
%ADD13R,1.575000X1.575000*%
%ADD14C,1.575000*%
%ADD15C,4.400000*%
%ADD16R,1.530000X1.530000*%
%ADD17C,1.530000*%
%TA.AperFunction,Profile*%
%ADD18C,0.050000*%
%TD*%
G04 APERTURE END LIST*
D10*
%TO.C,J8*%
X124000000Y-106040000D03*
X124000000Y-103500000D03*
X124000000Y-100960000D03*
X124000000Y-98420000D03*
%TD*%
D11*
%TO.C,J4*%
X107770000Y-94500000D03*
D12*
X105230000Y-94500000D03*
%TD*%
D13*
%TO.C,J2*%
X97250000Y-130975000D03*
D14*
X99750000Y-130975000D03*
%TD*%
D15*
%TO.C,H4*%
X134000000Y-131000000D03*
%TD*%
%TO.C,H2*%
X132500000Y-92500000D03*
%TD*%
D11*
%TO.C,J3*%
X124000000Y-112770000D03*
D12*
X124000000Y-110230000D03*
%TD*%
D15*
%TO.C,H1*%
X40000000Y-92500000D03*
%TD*%
D10*
%TO.C,J7*%
X120250000Y-112190000D03*
X120250000Y-114730000D03*
X120250000Y-117270000D03*
X120250000Y-119810000D03*
%TD*%
%TO.C,SPI0*%
X67500000Y-128250000D03*
X64960000Y-128250000D03*
X62420000Y-128250000D03*
X59880000Y-128250000D03*
%TD*%
D16*
%TO.C,U5*%
X90340000Y-99640000D03*
D17*
X87800000Y-99640000D03*
X85260000Y-99640000D03*
X82720000Y-99640000D03*
X80180000Y-99640000D03*
X77640000Y-99640000D03*
X75100000Y-99640000D03*
X72560000Y-99640000D03*
X70020000Y-99640000D03*
X67480000Y-99640000D03*
X64940000Y-99640000D03*
X62400000Y-99640000D03*
X59860000Y-99640000D03*
X57320000Y-99640000D03*
X54780000Y-99640000D03*
X52240000Y-99640000D03*
X49700000Y-99640000D03*
X47160000Y-99640000D03*
X44620000Y-99640000D03*
X42080000Y-99640000D03*
X39540000Y-99640000D03*
X37000000Y-99640000D03*
X90340000Y-122500000D03*
X87800000Y-122500000D03*
X85260000Y-122500000D03*
X82720000Y-122500000D03*
X80180000Y-122500000D03*
X77640000Y-122500000D03*
X75100000Y-122500000D03*
X72560000Y-122500000D03*
X70020000Y-122500000D03*
X67480000Y-122500000D03*
X64940000Y-122500000D03*
X62400000Y-122500000D03*
X59860000Y-122500000D03*
X57320000Y-122500000D03*
X54780000Y-122500000D03*
X52240000Y-122500000D03*
X49700000Y-122500000D03*
X47160000Y-122500000D03*
X44620000Y-122500000D03*
X42080000Y-122500000D03*
X39540000Y-122500000D03*
X37000000Y-122500000D03*
%TD*%
D15*
%TO.C,H3*%
X39000000Y-131000000D03*
%TD*%
D10*
%TO.C,I2C0*%
X72290000Y-94500000D03*
X69750000Y-94500000D03*
X67210000Y-94500000D03*
X64670000Y-94500000D03*
%TD*%
D11*
%TO.C,J5*%
X112960000Y-94500000D03*
D12*
X115500000Y-94500000D03*
%TD*%
D10*
%TO.C,J6*%
X104000000Y-110575000D03*
X104000000Y-113115000D03*
X104000000Y-115655000D03*
X104000000Y-118195000D03*
%TD*%
%TO.C,UART0*%
X82690000Y-128250000D03*
X85230000Y-128250000D03*
X87770000Y-128250000D03*
X90310000Y-128250000D03*
%TD*%
D18*
X35500000Y-89500000D02*
X137500000Y-89500000D01*
X137500000Y-134500000D01*
X35500000Y-134500000D01*
X35500000Y-89500000D01*
M02*
