%TF.GenerationSoftware,KiCad,Pcbnew,9.0.0*%
%TF.CreationDate,2025-05-10T16:39:55-04:00*%
%TF.ProjectId,HELPStat_V2,48454c50-5374-4617-945f-56322e6b6963,rev?*%
%TF.SameCoordinates,Original*%
%TF.FileFunction,Legend,Top*%
%TF.FilePolarity,Positive*%
%FSLAX46Y46*%
G04 Gerber Fmt 4.6, Leading zero omitted, Abs format (unit mm)*
G04 Created by KiCad (PCBNEW 9.0.0) date 2025-05-10 16:39:55*
%MOMM*%
%LPD*%
G01*
G04 APERTURE LIST*
%ADD10C,0.100000*%
%ADD11C,0.150000*%
%ADD12C,0.125000*%
%ADD13C,0.080067*%
%ADD14C,0.200000*%
%ADD15C,0.120000*%
%ADD16C,0.127000*%
%ADD17C,0.152400*%
%ADD18C,0.203200*%
%ADD19C,0.000000*%
%ADD20C,0.300000*%
%TA.AperFunction,Profile*%
%ADD21C,0.050000*%
%TD*%
G04 APERTURE END LIST*
D10*
X126137217Y-105933609D02*
X126256265Y-106433609D01*
X126256265Y-106433609D02*
X126351503Y-106076466D01*
X126351503Y-106076466D02*
X126446741Y-106433609D01*
X126446741Y-106433609D02*
X126565789Y-105933609D01*
X126756265Y-106171704D02*
X126922932Y-106171704D01*
X126994360Y-106433609D02*
X126756265Y-106433609D01*
X126756265Y-106433609D02*
X126756265Y-105933609D01*
X126756265Y-105933609D02*
X126994360Y-105933609D01*
X126184836Y-103933609D02*
X126184836Y-103433609D01*
X126184836Y-103433609D02*
X126303884Y-103433609D01*
X126303884Y-103433609D02*
X126375312Y-103457419D01*
X126375312Y-103457419D02*
X126422931Y-103505038D01*
X126422931Y-103505038D02*
X126446741Y-103552657D01*
X126446741Y-103552657D02*
X126470550Y-103647895D01*
X126470550Y-103647895D02*
X126470550Y-103719323D01*
X126470550Y-103719323D02*
X126446741Y-103814561D01*
X126446741Y-103814561D02*
X126422931Y-103862180D01*
X126422931Y-103862180D02*
X126375312Y-103909800D01*
X126375312Y-103909800D02*
X126303884Y-103933609D01*
X126303884Y-103933609D02*
X126184836Y-103933609D01*
X126684836Y-103671704D02*
X126851503Y-103671704D01*
X126922931Y-103933609D02*
X126684836Y-103933609D01*
X126684836Y-103933609D02*
X126684836Y-103433609D01*
X126684836Y-103433609D02*
X126922931Y-103433609D01*
X126470550Y-101385990D02*
X126446741Y-101409800D01*
X126446741Y-101409800D02*
X126375312Y-101433609D01*
X126375312Y-101433609D02*
X126327693Y-101433609D01*
X126327693Y-101433609D02*
X126256265Y-101409800D01*
X126256265Y-101409800D02*
X126208646Y-101362180D01*
X126208646Y-101362180D02*
X126184836Y-101314561D01*
X126184836Y-101314561D02*
X126161027Y-101219323D01*
X126161027Y-101219323D02*
X126161027Y-101147895D01*
X126161027Y-101147895D02*
X126184836Y-101052657D01*
X126184836Y-101052657D02*
X126208646Y-101005038D01*
X126208646Y-101005038D02*
X126256265Y-100957419D01*
X126256265Y-100957419D02*
X126327693Y-100933609D01*
X126327693Y-100933609D02*
X126375312Y-100933609D01*
X126375312Y-100933609D02*
X126446741Y-100957419D01*
X126446741Y-100957419D02*
X126470550Y-100981228D01*
X126684836Y-101171704D02*
X126851503Y-101171704D01*
X126922931Y-101433609D02*
X126684836Y-101433609D01*
X126684836Y-101433609D02*
X126684836Y-100933609D01*
X126684836Y-100933609D02*
X126922931Y-100933609D01*
X126470550Y-98433609D02*
X126303884Y-98195514D01*
X126184836Y-98433609D02*
X126184836Y-97933609D01*
X126184836Y-97933609D02*
X126375312Y-97933609D01*
X126375312Y-97933609D02*
X126422931Y-97957419D01*
X126422931Y-97957419D02*
X126446741Y-97981228D01*
X126446741Y-97981228D02*
X126470550Y-98028847D01*
X126470550Y-98028847D02*
X126470550Y-98100276D01*
X126470550Y-98100276D02*
X126446741Y-98147895D01*
X126446741Y-98147895D02*
X126422931Y-98171704D01*
X126422931Y-98171704D02*
X126375312Y-98195514D01*
X126375312Y-98195514D02*
X126184836Y-98195514D01*
X126684836Y-98171704D02*
X126851503Y-98171704D01*
X126922931Y-98433609D02*
X126684836Y-98433609D01*
X126684836Y-98433609D02*
X126684836Y-97933609D01*
X126684836Y-97933609D02*
X126922931Y-97933609D01*
D11*
X123786667Y-95148276D02*
X123786667Y-95605419D01*
X123786667Y-95605419D02*
X123756190Y-95696847D01*
X123756190Y-95696847D02*
X123695238Y-95757800D01*
X123695238Y-95757800D02*
X123603809Y-95788276D01*
X123603809Y-95788276D02*
X123542857Y-95788276D01*
X124182857Y-95422561D02*
X124121905Y-95392085D01*
X124121905Y-95392085D02*
X124091428Y-95361609D01*
X124091428Y-95361609D02*
X124060952Y-95300657D01*
X124060952Y-95300657D02*
X124060952Y-95270180D01*
X124060952Y-95270180D02*
X124091428Y-95209228D01*
X124091428Y-95209228D02*
X124121905Y-95178752D01*
X124121905Y-95178752D02*
X124182857Y-95148276D01*
X124182857Y-95148276D02*
X124304762Y-95148276D01*
X124304762Y-95148276D02*
X124365714Y-95178752D01*
X124365714Y-95178752D02*
X124396190Y-95209228D01*
X124396190Y-95209228D02*
X124426667Y-95270180D01*
X124426667Y-95270180D02*
X124426667Y-95300657D01*
X124426667Y-95300657D02*
X124396190Y-95361609D01*
X124396190Y-95361609D02*
X124365714Y-95392085D01*
X124365714Y-95392085D02*
X124304762Y-95422561D01*
X124304762Y-95422561D02*
X124182857Y-95422561D01*
X124182857Y-95422561D02*
X124121905Y-95453038D01*
X124121905Y-95453038D02*
X124091428Y-95483514D01*
X124091428Y-95483514D02*
X124060952Y-95544466D01*
X124060952Y-95544466D02*
X124060952Y-95666371D01*
X124060952Y-95666371D02*
X124091428Y-95727323D01*
X124091428Y-95727323D02*
X124121905Y-95757800D01*
X124121905Y-95757800D02*
X124182857Y-95788276D01*
X124182857Y-95788276D02*
X124304762Y-95788276D01*
X124304762Y-95788276D02*
X124365714Y-95757800D01*
X124365714Y-95757800D02*
X124396190Y-95727323D01*
X124396190Y-95727323D02*
X124426667Y-95666371D01*
X124426667Y-95666371D02*
X124426667Y-95544466D01*
X124426667Y-95544466D02*
X124396190Y-95483514D01*
X124396190Y-95483514D02*
X124365714Y-95453038D01*
X124365714Y-95453038D02*
X124304762Y-95422561D01*
X116857142Y-132859580D02*
X116809523Y-132907200D01*
X116809523Y-132907200D02*
X116666666Y-132954819D01*
X116666666Y-132954819D02*
X116571428Y-132954819D01*
X116571428Y-132954819D02*
X116428571Y-132907200D01*
X116428571Y-132907200D02*
X116333333Y-132811961D01*
X116333333Y-132811961D02*
X116285714Y-132716723D01*
X116285714Y-132716723D02*
X116238095Y-132526247D01*
X116238095Y-132526247D02*
X116238095Y-132383390D01*
X116238095Y-132383390D02*
X116285714Y-132192914D01*
X116285714Y-132192914D02*
X116333333Y-132097676D01*
X116333333Y-132097676D02*
X116428571Y-132002438D01*
X116428571Y-132002438D02*
X116571428Y-131954819D01*
X116571428Y-131954819D02*
X116666666Y-131954819D01*
X116666666Y-131954819D02*
X116809523Y-132002438D01*
X116809523Y-132002438D02*
X116857142Y-132050057D01*
X117809523Y-132954819D02*
X117238095Y-132954819D01*
X117523809Y-132954819D02*
X117523809Y-131954819D01*
X117523809Y-131954819D02*
X117428571Y-132097676D01*
X117428571Y-132097676D02*
X117333333Y-132192914D01*
X117333333Y-132192914D02*
X117238095Y-132240533D01*
X118142857Y-131954819D02*
X118809523Y-131954819D01*
X118809523Y-131954819D02*
X118380952Y-132954819D01*
X102396666Y-93954819D02*
X102396666Y-94669104D01*
X102396666Y-94669104D02*
X102349047Y-94811961D01*
X102349047Y-94811961D02*
X102253809Y-94907200D01*
X102253809Y-94907200D02*
X102110952Y-94954819D01*
X102110952Y-94954819D02*
X102015714Y-94954819D01*
X103301428Y-94288152D02*
X103301428Y-94954819D01*
X103063333Y-93907200D02*
X102825238Y-94621485D01*
X102825238Y-94621485D02*
X103444285Y-94621485D01*
X79833333Y-92359580D02*
X79785714Y-92407200D01*
X79785714Y-92407200D02*
X79642857Y-92454819D01*
X79642857Y-92454819D02*
X79547619Y-92454819D01*
X79547619Y-92454819D02*
X79404762Y-92407200D01*
X79404762Y-92407200D02*
X79309524Y-92311961D01*
X79309524Y-92311961D02*
X79261905Y-92216723D01*
X79261905Y-92216723D02*
X79214286Y-92026247D01*
X79214286Y-92026247D02*
X79214286Y-91883390D01*
X79214286Y-91883390D02*
X79261905Y-91692914D01*
X79261905Y-91692914D02*
X79309524Y-91597676D01*
X79309524Y-91597676D02*
X79404762Y-91502438D01*
X79404762Y-91502438D02*
X79547619Y-91454819D01*
X79547619Y-91454819D02*
X79642857Y-91454819D01*
X79642857Y-91454819D02*
X79785714Y-91502438D01*
X79785714Y-91502438D02*
X79833333Y-91550057D01*
X80166667Y-91454819D02*
X80833333Y-91454819D01*
X80833333Y-91454819D02*
X80404762Y-92454819D01*
X103166666Y-132954819D02*
X103166666Y-133669104D01*
X103166666Y-133669104D02*
X103119047Y-133811961D01*
X103119047Y-133811961D02*
X103023809Y-133907200D01*
X103023809Y-133907200D02*
X102880952Y-133954819D01*
X102880952Y-133954819D02*
X102785714Y-133954819D01*
X103595238Y-133050057D02*
X103642857Y-133002438D01*
X103642857Y-133002438D02*
X103738095Y-132954819D01*
X103738095Y-132954819D02*
X103976190Y-132954819D01*
X103976190Y-132954819D02*
X104071428Y-133002438D01*
X104071428Y-133002438D02*
X104119047Y-133050057D01*
X104119047Y-133050057D02*
X104166666Y-133145295D01*
X104166666Y-133145295D02*
X104166666Y-133240533D01*
X104166666Y-133240533D02*
X104119047Y-133383390D01*
X104119047Y-133383390D02*
X103547619Y-133954819D01*
X103547619Y-133954819D02*
X104166666Y-133954819D01*
D12*
X101677190Y-99321428D02*
X101701000Y-99345237D01*
X101701000Y-99345237D02*
X101724809Y-99416666D01*
X101724809Y-99416666D02*
X101724809Y-99464285D01*
X101724809Y-99464285D02*
X101701000Y-99535713D01*
X101701000Y-99535713D02*
X101653380Y-99583332D01*
X101653380Y-99583332D02*
X101605761Y-99607142D01*
X101605761Y-99607142D02*
X101510523Y-99630951D01*
X101510523Y-99630951D02*
X101439095Y-99630951D01*
X101439095Y-99630951D02*
X101343857Y-99607142D01*
X101343857Y-99607142D02*
X101296238Y-99583332D01*
X101296238Y-99583332D02*
X101248619Y-99535713D01*
X101248619Y-99535713D02*
X101224809Y-99464285D01*
X101224809Y-99464285D02*
X101224809Y-99416666D01*
X101224809Y-99416666D02*
X101248619Y-99345237D01*
X101248619Y-99345237D02*
X101272428Y-99321428D01*
X101724809Y-98845237D02*
X101724809Y-99130951D01*
X101724809Y-98988094D02*
X101224809Y-98988094D01*
X101224809Y-98988094D02*
X101296238Y-99035713D01*
X101296238Y-99035713D02*
X101343857Y-99083332D01*
X101343857Y-99083332D02*
X101367666Y-99130951D01*
X101439095Y-98559523D02*
X101415285Y-98607142D01*
X101415285Y-98607142D02*
X101391476Y-98630952D01*
X101391476Y-98630952D02*
X101343857Y-98654761D01*
X101343857Y-98654761D02*
X101320047Y-98654761D01*
X101320047Y-98654761D02*
X101272428Y-98630952D01*
X101272428Y-98630952D02*
X101248619Y-98607142D01*
X101248619Y-98607142D02*
X101224809Y-98559523D01*
X101224809Y-98559523D02*
X101224809Y-98464285D01*
X101224809Y-98464285D02*
X101248619Y-98416666D01*
X101248619Y-98416666D02*
X101272428Y-98392857D01*
X101272428Y-98392857D02*
X101320047Y-98369047D01*
X101320047Y-98369047D02*
X101343857Y-98369047D01*
X101343857Y-98369047D02*
X101391476Y-98392857D01*
X101391476Y-98392857D02*
X101415285Y-98416666D01*
X101415285Y-98416666D02*
X101439095Y-98464285D01*
X101439095Y-98464285D02*
X101439095Y-98559523D01*
X101439095Y-98559523D02*
X101462904Y-98607142D01*
X101462904Y-98607142D02*
X101486714Y-98630952D01*
X101486714Y-98630952D02*
X101534333Y-98654761D01*
X101534333Y-98654761D02*
X101629571Y-98654761D01*
X101629571Y-98654761D02*
X101677190Y-98630952D01*
X101677190Y-98630952D02*
X101701000Y-98607142D01*
X101701000Y-98607142D02*
X101724809Y-98559523D01*
X101724809Y-98559523D02*
X101724809Y-98464285D01*
X101724809Y-98464285D02*
X101701000Y-98416666D01*
X101701000Y-98416666D02*
X101677190Y-98392857D01*
X101677190Y-98392857D02*
X101629571Y-98369047D01*
X101629571Y-98369047D02*
X101534333Y-98369047D01*
X101534333Y-98369047D02*
X101486714Y-98392857D01*
X101486714Y-98392857D02*
X101462904Y-98416666D01*
X101462904Y-98416666D02*
X101439095Y-98464285D01*
X103677190Y-99083333D02*
X103701000Y-99107142D01*
X103701000Y-99107142D02*
X103724809Y-99178571D01*
X103724809Y-99178571D02*
X103724809Y-99226190D01*
X103724809Y-99226190D02*
X103701000Y-99297618D01*
X103701000Y-99297618D02*
X103653380Y-99345237D01*
X103653380Y-99345237D02*
X103605761Y-99369047D01*
X103605761Y-99369047D02*
X103510523Y-99392856D01*
X103510523Y-99392856D02*
X103439095Y-99392856D01*
X103439095Y-99392856D02*
X103343857Y-99369047D01*
X103343857Y-99369047D02*
X103296238Y-99345237D01*
X103296238Y-99345237D02*
X103248619Y-99297618D01*
X103248619Y-99297618D02*
X103224809Y-99226190D01*
X103224809Y-99226190D02*
X103224809Y-99178571D01*
X103224809Y-99178571D02*
X103248619Y-99107142D01*
X103248619Y-99107142D02*
X103272428Y-99083333D01*
X103724809Y-98845237D02*
X103724809Y-98749999D01*
X103724809Y-98749999D02*
X103701000Y-98702380D01*
X103701000Y-98702380D02*
X103677190Y-98678571D01*
X103677190Y-98678571D02*
X103605761Y-98630952D01*
X103605761Y-98630952D02*
X103510523Y-98607142D01*
X103510523Y-98607142D02*
X103320047Y-98607142D01*
X103320047Y-98607142D02*
X103272428Y-98630952D01*
X103272428Y-98630952D02*
X103248619Y-98654761D01*
X103248619Y-98654761D02*
X103224809Y-98702380D01*
X103224809Y-98702380D02*
X103224809Y-98797618D01*
X103224809Y-98797618D02*
X103248619Y-98845237D01*
X103248619Y-98845237D02*
X103272428Y-98869047D01*
X103272428Y-98869047D02*
X103320047Y-98892856D01*
X103320047Y-98892856D02*
X103439095Y-98892856D01*
X103439095Y-98892856D02*
X103486714Y-98869047D01*
X103486714Y-98869047D02*
X103510523Y-98845237D01*
X103510523Y-98845237D02*
X103534333Y-98797618D01*
X103534333Y-98797618D02*
X103534333Y-98702380D01*
X103534333Y-98702380D02*
X103510523Y-98654761D01*
X103510523Y-98654761D02*
X103486714Y-98630952D01*
X103486714Y-98630952D02*
X103439095Y-98607142D01*
X101178571Y-97677190D02*
X101154762Y-97701000D01*
X101154762Y-97701000D02*
X101083333Y-97724809D01*
X101083333Y-97724809D02*
X101035714Y-97724809D01*
X101035714Y-97724809D02*
X100964286Y-97701000D01*
X100964286Y-97701000D02*
X100916667Y-97653380D01*
X100916667Y-97653380D02*
X100892857Y-97605761D01*
X100892857Y-97605761D02*
X100869048Y-97510523D01*
X100869048Y-97510523D02*
X100869048Y-97439095D01*
X100869048Y-97439095D02*
X100892857Y-97343857D01*
X100892857Y-97343857D02*
X100916667Y-97296238D01*
X100916667Y-97296238D02*
X100964286Y-97248619D01*
X100964286Y-97248619D02*
X101035714Y-97224809D01*
X101035714Y-97224809D02*
X101083333Y-97224809D01*
X101083333Y-97224809D02*
X101154762Y-97248619D01*
X101154762Y-97248619D02*
X101178571Y-97272428D01*
X101654762Y-97724809D02*
X101369048Y-97724809D01*
X101511905Y-97724809D02*
X101511905Y-97224809D01*
X101511905Y-97224809D02*
X101464286Y-97296238D01*
X101464286Y-97296238D02*
X101416667Y-97343857D01*
X101416667Y-97343857D02*
X101369048Y-97367666D01*
X101892857Y-97724809D02*
X101988095Y-97724809D01*
X101988095Y-97724809D02*
X102035714Y-97701000D01*
X102035714Y-97701000D02*
X102059523Y-97677190D01*
X102059523Y-97677190D02*
X102107142Y-97605761D01*
X102107142Y-97605761D02*
X102130952Y-97510523D01*
X102130952Y-97510523D02*
X102130952Y-97320047D01*
X102130952Y-97320047D02*
X102107142Y-97272428D01*
X102107142Y-97272428D02*
X102083333Y-97248619D01*
X102083333Y-97248619D02*
X102035714Y-97224809D01*
X102035714Y-97224809D02*
X101940476Y-97224809D01*
X101940476Y-97224809D02*
X101892857Y-97248619D01*
X101892857Y-97248619D02*
X101869047Y-97272428D01*
X101869047Y-97272428D02*
X101845238Y-97320047D01*
X101845238Y-97320047D02*
X101845238Y-97439095D01*
X101845238Y-97439095D02*
X101869047Y-97486714D01*
X101869047Y-97486714D02*
X101892857Y-97510523D01*
X101892857Y-97510523D02*
X101940476Y-97534333D01*
X101940476Y-97534333D02*
X102035714Y-97534333D01*
X102035714Y-97534333D02*
X102083333Y-97510523D01*
X102083333Y-97510523D02*
X102107142Y-97486714D01*
X102107142Y-97486714D02*
X102130952Y-97439095D01*
D11*
X100083333Y-122109580D02*
X100035714Y-122157200D01*
X100035714Y-122157200D02*
X99892857Y-122204819D01*
X99892857Y-122204819D02*
X99797619Y-122204819D01*
X99797619Y-122204819D02*
X99654762Y-122157200D01*
X99654762Y-122157200D02*
X99559524Y-122061961D01*
X99559524Y-122061961D02*
X99511905Y-121966723D01*
X99511905Y-121966723D02*
X99464286Y-121776247D01*
X99464286Y-121776247D02*
X99464286Y-121633390D01*
X99464286Y-121633390D02*
X99511905Y-121442914D01*
X99511905Y-121442914D02*
X99559524Y-121347676D01*
X99559524Y-121347676D02*
X99654762Y-121252438D01*
X99654762Y-121252438D02*
X99797619Y-121204819D01*
X99797619Y-121204819D02*
X99892857Y-121204819D01*
X99892857Y-121204819D02*
X100035714Y-121252438D01*
X100035714Y-121252438D02*
X100083333Y-121300057D01*
X100416667Y-121204819D02*
X101035714Y-121204819D01*
X101035714Y-121204819D02*
X100702381Y-121585771D01*
X100702381Y-121585771D02*
X100845238Y-121585771D01*
X100845238Y-121585771D02*
X100940476Y-121633390D01*
X100940476Y-121633390D02*
X100988095Y-121681009D01*
X100988095Y-121681009D02*
X101035714Y-121776247D01*
X101035714Y-121776247D02*
X101035714Y-122014342D01*
X101035714Y-122014342D02*
X100988095Y-122109580D01*
X100988095Y-122109580D02*
X100940476Y-122157200D01*
X100940476Y-122157200D02*
X100845238Y-122204819D01*
X100845238Y-122204819D02*
X100559524Y-122204819D01*
X100559524Y-122204819D02*
X100464286Y-122157200D01*
X100464286Y-122157200D02*
X100416667Y-122109580D01*
D12*
X117178571Y-110177190D02*
X117154762Y-110201000D01*
X117154762Y-110201000D02*
X117083333Y-110224809D01*
X117083333Y-110224809D02*
X117035714Y-110224809D01*
X117035714Y-110224809D02*
X116964286Y-110201000D01*
X116964286Y-110201000D02*
X116916667Y-110153380D01*
X116916667Y-110153380D02*
X116892857Y-110105761D01*
X116892857Y-110105761D02*
X116869048Y-110010523D01*
X116869048Y-110010523D02*
X116869048Y-109939095D01*
X116869048Y-109939095D02*
X116892857Y-109843857D01*
X116892857Y-109843857D02*
X116916667Y-109796238D01*
X116916667Y-109796238D02*
X116964286Y-109748619D01*
X116964286Y-109748619D02*
X117035714Y-109724809D01*
X117035714Y-109724809D02*
X117083333Y-109724809D01*
X117083333Y-109724809D02*
X117154762Y-109748619D01*
X117154762Y-109748619D02*
X117178571Y-109772428D01*
X117654762Y-110224809D02*
X117369048Y-110224809D01*
X117511905Y-110224809D02*
X117511905Y-109724809D01*
X117511905Y-109724809D02*
X117464286Y-109796238D01*
X117464286Y-109796238D02*
X117416667Y-109843857D01*
X117416667Y-109843857D02*
X117369048Y-109867666D01*
X118130952Y-110224809D02*
X117845238Y-110224809D01*
X117988095Y-110224809D02*
X117988095Y-109724809D01*
X117988095Y-109724809D02*
X117940476Y-109796238D01*
X117940476Y-109796238D02*
X117892857Y-109843857D01*
X117892857Y-109843857D02*
X117845238Y-109867666D01*
X94678571Y-102677190D02*
X94654762Y-102701000D01*
X94654762Y-102701000D02*
X94583333Y-102724809D01*
X94583333Y-102724809D02*
X94535714Y-102724809D01*
X94535714Y-102724809D02*
X94464286Y-102701000D01*
X94464286Y-102701000D02*
X94416667Y-102653380D01*
X94416667Y-102653380D02*
X94392857Y-102605761D01*
X94392857Y-102605761D02*
X94369048Y-102510523D01*
X94369048Y-102510523D02*
X94369048Y-102439095D01*
X94369048Y-102439095D02*
X94392857Y-102343857D01*
X94392857Y-102343857D02*
X94416667Y-102296238D01*
X94416667Y-102296238D02*
X94464286Y-102248619D01*
X94464286Y-102248619D02*
X94535714Y-102224809D01*
X94535714Y-102224809D02*
X94583333Y-102224809D01*
X94583333Y-102224809D02*
X94654762Y-102248619D01*
X94654762Y-102248619D02*
X94678571Y-102272428D01*
X94869048Y-102701000D02*
X94940476Y-102724809D01*
X94940476Y-102724809D02*
X95059524Y-102724809D01*
X95059524Y-102724809D02*
X95107143Y-102701000D01*
X95107143Y-102701000D02*
X95130952Y-102677190D01*
X95130952Y-102677190D02*
X95154762Y-102629571D01*
X95154762Y-102629571D02*
X95154762Y-102581952D01*
X95154762Y-102581952D02*
X95130952Y-102534333D01*
X95130952Y-102534333D02*
X95107143Y-102510523D01*
X95107143Y-102510523D02*
X95059524Y-102486714D01*
X95059524Y-102486714D02*
X94964286Y-102462904D01*
X94964286Y-102462904D02*
X94916667Y-102439095D01*
X94916667Y-102439095D02*
X94892857Y-102415285D01*
X94892857Y-102415285D02*
X94869048Y-102367666D01*
X94869048Y-102367666D02*
X94869048Y-102320047D01*
X94869048Y-102320047D02*
X94892857Y-102272428D01*
X94892857Y-102272428D02*
X94916667Y-102248619D01*
X94916667Y-102248619D02*
X94964286Y-102224809D01*
X94964286Y-102224809D02*
X95083333Y-102224809D01*
X95083333Y-102224809D02*
X95154762Y-102248619D01*
X95464285Y-102224809D02*
X95511904Y-102224809D01*
X95511904Y-102224809D02*
X95559523Y-102248619D01*
X95559523Y-102248619D02*
X95583333Y-102272428D01*
X95583333Y-102272428D02*
X95607142Y-102320047D01*
X95607142Y-102320047D02*
X95630952Y-102415285D01*
X95630952Y-102415285D02*
X95630952Y-102534333D01*
X95630952Y-102534333D02*
X95607142Y-102629571D01*
X95607142Y-102629571D02*
X95583333Y-102677190D01*
X95583333Y-102677190D02*
X95559523Y-102701000D01*
X95559523Y-102701000D02*
X95511904Y-102724809D01*
X95511904Y-102724809D02*
X95464285Y-102724809D01*
X95464285Y-102724809D02*
X95416666Y-102701000D01*
X95416666Y-102701000D02*
X95392857Y-102677190D01*
X95392857Y-102677190D02*
X95369047Y-102629571D01*
X95369047Y-102629571D02*
X95345238Y-102534333D01*
X95345238Y-102534333D02*
X95345238Y-102415285D01*
X95345238Y-102415285D02*
X95369047Y-102320047D01*
X95369047Y-102320047D02*
X95392857Y-102272428D01*
X95392857Y-102272428D02*
X95416666Y-102248619D01*
X95416666Y-102248619D02*
X95464285Y-102224809D01*
X99869048Y-100776809D02*
X100154762Y-100776809D01*
X100011905Y-101276809D02*
X100011905Y-100776809D01*
X100321428Y-101276809D02*
X100321428Y-100776809D01*
X100321428Y-100776809D02*
X100511904Y-100776809D01*
X100511904Y-100776809D02*
X100559523Y-100800619D01*
X100559523Y-100800619D02*
X100583333Y-100824428D01*
X100583333Y-100824428D02*
X100607142Y-100872047D01*
X100607142Y-100872047D02*
X100607142Y-100943476D01*
X100607142Y-100943476D02*
X100583333Y-100991095D01*
X100583333Y-100991095D02*
X100559523Y-101014904D01*
X100559523Y-101014904D02*
X100511904Y-101038714D01*
X100511904Y-101038714D02*
X100321428Y-101038714D01*
X101035714Y-100943476D02*
X101035714Y-101276809D01*
X100916666Y-100753000D02*
X100797619Y-101110142D01*
X100797619Y-101110142D02*
X101107142Y-101110142D01*
X94416666Y-112177190D02*
X94392857Y-112201000D01*
X94392857Y-112201000D02*
X94321428Y-112224809D01*
X94321428Y-112224809D02*
X94273809Y-112224809D01*
X94273809Y-112224809D02*
X94202381Y-112201000D01*
X94202381Y-112201000D02*
X94154762Y-112153380D01*
X94154762Y-112153380D02*
X94130952Y-112105761D01*
X94130952Y-112105761D02*
X94107143Y-112010523D01*
X94107143Y-112010523D02*
X94107143Y-111939095D01*
X94107143Y-111939095D02*
X94130952Y-111843857D01*
X94130952Y-111843857D02*
X94154762Y-111796238D01*
X94154762Y-111796238D02*
X94202381Y-111748619D01*
X94202381Y-111748619D02*
X94273809Y-111724809D01*
X94273809Y-111724809D02*
X94321428Y-111724809D01*
X94321428Y-111724809D02*
X94392857Y-111748619D01*
X94392857Y-111748619D02*
X94416666Y-111772428D01*
X94845238Y-111891476D02*
X94845238Y-112224809D01*
X94726190Y-111701000D02*
X94607143Y-112058142D01*
X94607143Y-112058142D02*
X94916666Y-112058142D01*
D11*
X84833333Y-92359580D02*
X84785714Y-92407200D01*
X84785714Y-92407200D02*
X84642857Y-92454819D01*
X84642857Y-92454819D02*
X84547619Y-92454819D01*
X84547619Y-92454819D02*
X84404762Y-92407200D01*
X84404762Y-92407200D02*
X84309524Y-92311961D01*
X84309524Y-92311961D02*
X84261905Y-92216723D01*
X84261905Y-92216723D02*
X84214286Y-92026247D01*
X84214286Y-92026247D02*
X84214286Y-91883390D01*
X84214286Y-91883390D02*
X84261905Y-91692914D01*
X84261905Y-91692914D02*
X84309524Y-91597676D01*
X84309524Y-91597676D02*
X84404762Y-91502438D01*
X84404762Y-91502438D02*
X84547619Y-91454819D01*
X84547619Y-91454819D02*
X84642857Y-91454819D01*
X84642857Y-91454819D02*
X84785714Y-91502438D01*
X84785714Y-91502438D02*
X84833333Y-91550057D01*
X85738095Y-91454819D02*
X85261905Y-91454819D01*
X85261905Y-91454819D02*
X85214286Y-91931009D01*
X85214286Y-91931009D02*
X85261905Y-91883390D01*
X85261905Y-91883390D02*
X85357143Y-91835771D01*
X85357143Y-91835771D02*
X85595238Y-91835771D01*
X85595238Y-91835771D02*
X85690476Y-91883390D01*
X85690476Y-91883390D02*
X85738095Y-91931009D01*
X85738095Y-91931009D02*
X85785714Y-92026247D01*
X85785714Y-92026247D02*
X85785714Y-92264342D01*
X85785714Y-92264342D02*
X85738095Y-92359580D01*
X85738095Y-92359580D02*
X85690476Y-92407200D01*
X85690476Y-92407200D02*
X85595238Y-92454819D01*
X85595238Y-92454819D02*
X85357143Y-92454819D01*
X85357143Y-92454819D02*
X85261905Y-92407200D01*
X85261905Y-92407200D02*
X85214286Y-92359580D01*
X127128733Y-123904820D02*
X126795400Y-123428629D01*
X126557305Y-123904820D02*
X126557305Y-122904820D01*
X126557305Y-122904820D02*
X126938257Y-122904820D01*
X126938257Y-122904820D02*
X127033495Y-122952439D01*
X127033495Y-122952439D02*
X127081114Y-123000058D01*
X127081114Y-123000058D02*
X127128733Y-123095296D01*
X127128733Y-123095296D02*
X127128733Y-123238153D01*
X127128733Y-123238153D02*
X127081114Y-123333391D01*
X127081114Y-123333391D02*
X127033495Y-123381010D01*
X127033495Y-123381010D02*
X126938257Y-123428629D01*
X126938257Y-123428629D02*
X126557305Y-123428629D01*
X127700162Y-123333391D02*
X127604924Y-123285772D01*
X127604924Y-123285772D02*
X127557305Y-123238153D01*
X127557305Y-123238153D02*
X127509686Y-123142915D01*
X127509686Y-123142915D02*
X127509686Y-123095296D01*
X127509686Y-123095296D02*
X127557305Y-123000058D01*
X127557305Y-123000058D02*
X127604924Y-122952439D01*
X127604924Y-122952439D02*
X127700162Y-122904820D01*
X127700162Y-122904820D02*
X127890638Y-122904820D01*
X127890638Y-122904820D02*
X127985876Y-122952439D01*
X127985876Y-122952439D02*
X128033495Y-123000058D01*
X128033495Y-123000058D02*
X128081114Y-123095296D01*
X128081114Y-123095296D02*
X128081114Y-123142915D01*
X128081114Y-123142915D02*
X128033495Y-123238153D01*
X128033495Y-123238153D02*
X127985876Y-123285772D01*
X127985876Y-123285772D02*
X127890638Y-123333391D01*
X127890638Y-123333391D02*
X127700162Y-123333391D01*
X127700162Y-123333391D02*
X127604924Y-123381010D01*
X127604924Y-123381010D02*
X127557305Y-123428629D01*
X127557305Y-123428629D02*
X127509686Y-123523867D01*
X127509686Y-123523867D02*
X127509686Y-123714343D01*
X127509686Y-123714343D02*
X127557305Y-123809581D01*
X127557305Y-123809581D02*
X127604924Y-123857201D01*
X127604924Y-123857201D02*
X127700162Y-123904820D01*
X127700162Y-123904820D02*
X127890638Y-123904820D01*
X127890638Y-123904820D02*
X127985876Y-123857201D01*
X127985876Y-123857201D02*
X128033495Y-123809581D01*
X128033495Y-123809581D02*
X128081114Y-123714343D01*
X128081114Y-123714343D02*
X128081114Y-123523867D01*
X128081114Y-123523867D02*
X128033495Y-123428629D01*
X128033495Y-123428629D02*
X127985876Y-123381010D01*
X127985876Y-123381010D02*
X127890638Y-123333391D01*
D12*
X107678571Y-117177190D02*
X107654762Y-117201000D01*
X107654762Y-117201000D02*
X107583333Y-117224809D01*
X107583333Y-117224809D02*
X107535714Y-117224809D01*
X107535714Y-117224809D02*
X107464286Y-117201000D01*
X107464286Y-117201000D02*
X107416667Y-117153380D01*
X107416667Y-117153380D02*
X107392857Y-117105761D01*
X107392857Y-117105761D02*
X107369048Y-117010523D01*
X107369048Y-117010523D02*
X107369048Y-116939095D01*
X107369048Y-116939095D02*
X107392857Y-116843857D01*
X107392857Y-116843857D02*
X107416667Y-116796238D01*
X107416667Y-116796238D02*
X107464286Y-116748619D01*
X107464286Y-116748619D02*
X107535714Y-116724809D01*
X107535714Y-116724809D02*
X107583333Y-116724809D01*
X107583333Y-116724809D02*
X107654762Y-116748619D01*
X107654762Y-116748619D02*
X107678571Y-116772428D01*
X107869048Y-116772428D02*
X107892857Y-116748619D01*
X107892857Y-116748619D02*
X107940476Y-116724809D01*
X107940476Y-116724809D02*
X108059524Y-116724809D01*
X108059524Y-116724809D02*
X108107143Y-116748619D01*
X108107143Y-116748619D02*
X108130952Y-116772428D01*
X108130952Y-116772428D02*
X108154762Y-116820047D01*
X108154762Y-116820047D02*
X108154762Y-116867666D01*
X108154762Y-116867666D02*
X108130952Y-116939095D01*
X108130952Y-116939095D02*
X107845238Y-117224809D01*
X107845238Y-117224809D02*
X108154762Y-117224809D01*
X108464285Y-116724809D02*
X108511904Y-116724809D01*
X108511904Y-116724809D02*
X108559523Y-116748619D01*
X108559523Y-116748619D02*
X108583333Y-116772428D01*
X108583333Y-116772428D02*
X108607142Y-116820047D01*
X108607142Y-116820047D02*
X108630952Y-116915285D01*
X108630952Y-116915285D02*
X108630952Y-117034333D01*
X108630952Y-117034333D02*
X108607142Y-117129571D01*
X108607142Y-117129571D02*
X108583333Y-117177190D01*
X108583333Y-117177190D02*
X108559523Y-117201000D01*
X108559523Y-117201000D02*
X108511904Y-117224809D01*
X108511904Y-117224809D02*
X108464285Y-117224809D01*
X108464285Y-117224809D02*
X108416666Y-117201000D01*
X108416666Y-117201000D02*
X108392857Y-117177190D01*
X108392857Y-117177190D02*
X108369047Y-117129571D01*
X108369047Y-117129571D02*
X108345238Y-117034333D01*
X108345238Y-117034333D02*
X108345238Y-116915285D01*
X108345238Y-116915285D02*
X108369047Y-116820047D01*
X108369047Y-116820047D02*
X108392857Y-116772428D01*
X108392857Y-116772428D02*
X108416666Y-116748619D01*
X108416666Y-116748619D02*
X108464285Y-116724809D01*
D11*
X122738095Y-130954819D02*
X122738095Y-131764342D01*
X122738095Y-131764342D02*
X122785714Y-131859580D01*
X122785714Y-131859580D02*
X122833333Y-131907200D01*
X122833333Y-131907200D02*
X122928571Y-131954819D01*
X122928571Y-131954819D02*
X123119047Y-131954819D01*
X123119047Y-131954819D02*
X123214285Y-131907200D01*
X123214285Y-131907200D02*
X123261904Y-131859580D01*
X123261904Y-131859580D02*
X123309523Y-131764342D01*
X123309523Y-131764342D02*
X123309523Y-130954819D01*
X123738095Y-131050057D02*
X123785714Y-131002438D01*
X123785714Y-131002438D02*
X123880952Y-130954819D01*
X123880952Y-130954819D02*
X124119047Y-130954819D01*
X124119047Y-130954819D02*
X124214285Y-131002438D01*
X124214285Y-131002438D02*
X124261904Y-131050057D01*
X124261904Y-131050057D02*
X124309523Y-131145295D01*
X124309523Y-131145295D02*
X124309523Y-131240533D01*
X124309523Y-131240533D02*
X124261904Y-131383390D01*
X124261904Y-131383390D02*
X123690476Y-131954819D01*
X123690476Y-131954819D02*
X124309523Y-131954819D01*
X126166666Y-114954819D02*
X126166666Y-115669104D01*
X126166666Y-115669104D02*
X126119047Y-115811961D01*
X126119047Y-115811961D02*
X126023809Y-115907200D01*
X126023809Y-115907200D02*
X125880952Y-115954819D01*
X125880952Y-115954819D02*
X125785714Y-115954819D01*
X126547619Y-114954819D02*
X127166666Y-114954819D01*
X127166666Y-114954819D02*
X126833333Y-115335771D01*
X126833333Y-115335771D02*
X126976190Y-115335771D01*
X126976190Y-115335771D02*
X127071428Y-115383390D01*
X127071428Y-115383390D02*
X127119047Y-115431009D01*
X127119047Y-115431009D02*
X127166666Y-115526247D01*
X127166666Y-115526247D02*
X127166666Y-115764342D01*
X127166666Y-115764342D02*
X127119047Y-115859580D01*
X127119047Y-115859580D02*
X127071428Y-115907200D01*
X127071428Y-115907200D02*
X126976190Y-115954819D01*
X126976190Y-115954819D02*
X126690476Y-115954819D01*
X126690476Y-115954819D02*
X126595238Y-115907200D01*
X126595238Y-115907200D02*
X126547619Y-115859580D01*
D13*
X109763612Y-120643998D02*
X109763612Y-120323730D01*
X109763612Y-120323730D02*
X109839866Y-120323730D01*
X109839866Y-120323730D02*
X109885619Y-120338981D01*
X109885619Y-120338981D02*
X109916120Y-120369483D01*
X109916120Y-120369483D02*
X109931371Y-120399985D01*
X109931371Y-120399985D02*
X109946622Y-120460988D01*
X109946622Y-120460988D02*
X109946622Y-120506741D01*
X109946622Y-120506741D02*
X109931371Y-120567744D01*
X109931371Y-120567744D02*
X109916120Y-120598246D01*
X109916120Y-120598246D02*
X109885619Y-120628748D01*
X109885619Y-120628748D02*
X109839866Y-120643998D01*
X109839866Y-120643998D02*
X109763612Y-120643998D01*
X110251639Y-120643998D02*
X110068629Y-120643998D01*
X110160134Y-120643998D02*
X110160134Y-120323730D01*
X110160134Y-120323730D02*
X110129632Y-120369483D01*
X110129632Y-120369483D02*
X110099131Y-120399985D01*
X110099131Y-120399985D02*
X110068629Y-120415236D01*
D11*
X127833333Y-125954819D02*
X127500000Y-125478628D01*
X127261905Y-125954819D02*
X127261905Y-124954819D01*
X127261905Y-124954819D02*
X127642857Y-124954819D01*
X127642857Y-124954819D02*
X127738095Y-125002438D01*
X127738095Y-125002438D02*
X127785714Y-125050057D01*
X127785714Y-125050057D02*
X127833333Y-125145295D01*
X127833333Y-125145295D02*
X127833333Y-125288152D01*
X127833333Y-125288152D02*
X127785714Y-125383390D01*
X127785714Y-125383390D02*
X127738095Y-125431009D01*
X127738095Y-125431009D02*
X127642857Y-125478628D01*
X127642857Y-125478628D02*
X127261905Y-125478628D01*
X128166667Y-124954819D02*
X128833333Y-124954819D01*
X128833333Y-124954819D02*
X128404762Y-125954819D01*
X122286667Y-121148276D02*
X122286667Y-121605419D01*
X122286667Y-121605419D02*
X122256190Y-121696847D01*
X122256190Y-121696847D02*
X122195238Y-121757800D01*
X122195238Y-121757800D02*
X122103809Y-121788276D01*
X122103809Y-121788276D02*
X122042857Y-121788276D01*
X122530476Y-121148276D02*
X122957143Y-121148276D01*
X122957143Y-121148276D02*
X122682857Y-121788276D01*
X114238095Y-118204819D02*
X114809523Y-118204819D01*
X114523809Y-119204819D02*
X114523809Y-118204819D01*
X115142857Y-119204819D02*
X115142857Y-118204819D01*
X115142857Y-118204819D02*
X115523809Y-118204819D01*
X115523809Y-118204819D02*
X115619047Y-118252438D01*
X115619047Y-118252438D02*
X115666666Y-118300057D01*
X115666666Y-118300057D02*
X115714285Y-118395295D01*
X115714285Y-118395295D02*
X115714285Y-118538152D01*
X115714285Y-118538152D02*
X115666666Y-118633390D01*
X115666666Y-118633390D02*
X115619047Y-118681009D01*
X115619047Y-118681009D02*
X115523809Y-118728628D01*
X115523809Y-118728628D02*
X115142857Y-118728628D01*
X116619047Y-118204819D02*
X116142857Y-118204819D01*
X116142857Y-118204819D02*
X116095238Y-118681009D01*
X116095238Y-118681009D02*
X116142857Y-118633390D01*
X116142857Y-118633390D02*
X116238095Y-118585771D01*
X116238095Y-118585771D02*
X116476190Y-118585771D01*
X116476190Y-118585771D02*
X116571428Y-118633390D01*
X116571428Y-118633390D02*
X116619047Y-118681009D01*
X116619047Y-118681009D02*
X116666666Y-118776247D01*
X116666666Y-118776247D02*
X116666666Y-119014342D01*
X116666666Y-119014342D02*
X116619047Y-119109580D01*
X116619047Y-119109580D02*
X116571428Y-119157200D01*
X116571428Y-119157200D02*
X116476190Y-119204819D01*
X116476190Y-119204819D02*
X116238095Y-119204819D01*
X116238095Y-119204819D02*
X116142857Y-119157200D01*
X116142857Y-119157200D02*
X116095238Y-119109580D01*
X116738095Y-99954819D02*
X117309523Y-99954819D01*
X117023809Y-100954819D02*
X117023809Y-99954819D01*
X117642857Y-100954819D02*
X117642857Y-99954819D01*
X117642857Y-99954819D02*
X118023809Y-99954819D01*
X118023809Y-99954819D02*
X118119047Y-100002438D01*
X118119047Y-100002438D02*
X118166666Y-100050057D01*
X118166666Y-100050057D02*
X118214285Y-100145295D01*
X118214285Y-100145295D02*
X118214285Y-100288152D01*
X118214285Y-100288152D02*
X118166666Y-100383390D01*
X118166666Y-100383390D02*
X118119047Y-100431009D01*
X118119047Y-100431009D02*
X118023809Y-100478628D01*
X118023809Y-100478628D02*
X117642857Y-100478628D01*
X119071428Y-99954819D02*
X118880952Y-99954819D01*
X118880952Y-99954819D02*
X118785714Y-100002438D01*
X118785714Y-100002438D02*
X118738095Y-100050057D01*
X118738095Y-100050057D02*
X118642857Y-100192914D01*
X118642857Y-100192914D02*
X118595238Y-100383390D01*
X118595238Y-100383390D02*
X118595238Y-100764342D01*
X118595238Y-100764342D02*
X118642857Y-100859580D01*
X118642857Y-100859580D02*
X118690476Y-100907200D01*
X118690476Y-100907200D02*
X118785714Y-100954819D01*
X118785714Y-100954819D02*
X118976190Y-100954819D01*
X118976190Y-100954819D02*
X119071428Y-100907200D01*
X119071428Y-100907200D02*
X119119047Y-100859580D01*
X119119047Y-100859580D02*
X119166666Y-100764342D01*
X119166666Y-100764342D02*
X119166666Y-100526247D01*
X119166666Y-100526247D02*
X119119047Y-100431009D01*
X119119047Y-100431009D02*
X119071428Y-100383390D01*
X119071428Y-100383390D02*
X118976190Y-100335771D01*
X118976190Y-100335771D02*
X118785714Y-100335771D01*
X118785714Y-100335771D02*
X118690476Y-100383390D01*
X118690476Y-100383390D02*
X118642857Y-100431009D01*
X118642857Y-100431009D02*
X118595238Y-100526247D01*
X111008333Y-124954819D02*
X110675000Y-124478628D01*
X110436905Y-124954819D02*
X110436905Y-123954819D01*
X110436905Y-123954819D02*
X110817857Y-123954819D01*
X110817857Y-123954819D02*
X110913095Y-124002438D01*
X110913095Y-124002438D02*
X110960714Y-124050057D01*
X110960714Y-124050057D02*
X111008333Y-124145295D01*
X111008333Y-124145295D02*
X111008333Y-124288152D01*
X111008333Y-124288152D02*
X110960714Y-124383390D01*
X110960714Y-124383390D02*
X110913095Y-124431009D01*
X110913095Y-124431009D02*
X110817857Y-124478628D01*
X110817857Y-124478628D02*
X110436905Y-124478628D01*
X111865476Y-124288152D02*
X111865476Y-124954819D01*
X111627381Y-123907200D02*
X111389286Y-124621485D01*
X111389286Y-124621485D02*
X112008333Y-124621485D01*
D12*
X114678571Y-115677190D02*
X114654762Y-115701000D01*
X114654762Y-115701000D02*
X114583333Y-115724809D01*
X114583333Y-115724809D02*
X114535714Y-115724809D01*
X114535714Y-115724809D02*
X114464286Y-115701000D01*
X114464286Y-115701000D02*
X114416667Y-115653380D01*
X114416667Y-115653380D02*
X114392857Y-115605761D01*
X114392857Y-115605761D02*
X114369048Y-115510523D01*
X114369048Y-115510523D02*
X114369048Y-115439095D01*
X114369048Y-115439095D02*
X114392857Y-115343857D01*
X114392857Y-115343857D02*
X114416667Y-115296238D01*
X114416667Y-115296238D02*
X114464286Y-115248619D01*
X114464286Y-115248619D02*
X114535714Y-115224809D01*
X114535714Y-115224809D02*
X114583333Y-115224809D01*
X114583333Y-115224809D02*
X114654762Y-115248619D01*
X114654762Y-115248619D02*
X114678571Y-115272428D01*
X115154762Y-115724809D02*
X114869048Y-115724809D01*
X115011905Y-115724809D02*
X115011905Y-115224809D01*
X115011905Y-115224809D02*
X114964286Y-115296238D01*
X114964286Y-115296238D02*
X114916667Y-115343857D01*
X114916667Y-115343857D02*
X114869048Y-115367666D01*
X115464285Y-115224809D02*
X115511904Y-115224809D01*
X115511904Y-115224809D02*
X115559523Y-115248619D01*
X115559523Y-115248619D02*
X115583333Y-115272428D01*
X115583333Y-115272428D02*
X115607142Y-115320047D01*
X115607142Y-115320047D02*
X115630952Y-115415285D01*
X115630952Y-115415285D02*
X115630952Y-115534333D01*
X115630952Y-115534333D02*
X115607142Y-115629571D01*
X115607142Y-115629571D02*
X115583333Y-115677190D01*
X115583333Y-115677190D02*
X115559523Y-115701000D01*
X115559523Y-115701000D02*
X115511904Y-115724809D01*
X115511904Y-115724809D02*
X115464285Y-115724809D01*
X115464285Y-115724809D02*
X115416666Y-115701000D01*
X115416666Y-115701000D02*
X115392857Y-115677190D01*
X115392857Y-115677190D02*
X115369047Y-115629571D01*
X115369047Y-115629571D02*
X115345238Y-115534333D01*
X115345238Y-115534333D02*
X115345238Y-115415285D01*
X115345238Y-115415285D02*
X115369047Y-115320047D01*
X115369047Y-115320047D02*
X115392857Y-115272428D01*
X115392857Y-115272428D02*
X115416666Y-115248619D01*
X115416666Y-115248619D02*
X115464285Y-115224809D01*
D11*
X114380952Y-123954819D02*
X113904762Y-123954819D01*
X113904762Y-123954819D02*
X113904762Y-122954819D01*
X114714286Y-123431009D02*
X115047619Y-123431009D01*
X115190476Y-123954819D02*
X114714286Y-123954819D01*
X114714286Y-123954819D02*
X114714286Y-122954819D01*
X114714286Y-122954819D02*
X115190476Y-122954819D01*
X115619048Y-123954819D02*
X115619048Y-122954819D01*
X115619048Y-122954819D02*
X115857143Y-122954819D01*
X115857143Y-122954819D02*
X116000000Y-123002438D01*
X116000000Y-123002438D02*
X116095238Y-123097676D01*
X116095238Y-123097676D02*
X116142857Y-123192914D01*
X116142857Y-123192914D02*
X116190476Y-123383390D01*
X116190476Y-123383390D02*
X116190476Y-123526247D01*
X116190476Y-123526247D02*
X116142857Y-123716723D01*
X116142857Y-123716723D02*
X116095238Y-123811961D01*
X116095238Y-123811961D02*
X116000000Y-123907200D01*
X116000000Y-123907200D02*
X115857143Y-123954819D01*
X115857143Y-123954819D02*
X115619048Y-123954819D01*
X117142857Y-123954819D02*
X116571429Y-123954819D01*
X116857143Y-123954819D02*
X116857143Y-122954819D01*
X116857143Y-122954819D02*
X116761905Y-123097676D01*
X116761905Y-123097676D02*
X116666667Y-123192914D01*
X116666667Y-123192914D02*
X116571429Y-123240533D01*
D12*
X103178571Y-97677190D02*
X103154762Y-97701000D01*
X103154762Y-97701000D02*
X103083333Y-97724809D01*
X103083333Y-97724809D02*
X103035714Y-97724809D01*
X103035714Y-97724809D02*
X102964286Y-97701000D01*
X102964286Y-97701000D02*
X102916667Y-97653380D01*
X102916667Y-97653380D02*
X102892857Y-97605761D01*
X102892857Y-97605761D02*
X102869048Y-97510523D01*
X102869048Y-97510523D02*
X102869048Y-97439095D01*
X102869048Y-97439095D02*
X102892857Y-97343857D01*
X102892857Y-97343857D02*
X102916667Y-97296238D01*
X102916667Y-97296238D02*
X102964286Y-97248619D01*
X102964286Y-97248619D02*
X103035714Y-97224809D01*
X103035714Y-97224809D02*
X103083333Y-97224809D01*
X103083333Y-97224809D02*
X103154762Y-97248619D01*
X103154762Y-97248619D02*
X103178571Y-97272428D01*
X103654762Y-97724809D02*
X103369048Y-97724809D01*
X103511905Y-97724809D02*
X103511905Y-97224809D01*
X103511905Y-97224809D02*
X103464286Y-97296238D01*
X103464286Y-97296238D02*
X103416667Y-97343857D01*
X103416667Y-97343857D02*
X103369048Y-97367666D01*
X103845238Y-97272428D02*
X103869047Y-97248619D01*
X103869047Y-97248619D02*
X103916666Y-97224809D01*
X103916666Y-97224809D02*
X104035714Y-97224809D01*
X104035714Y-97224809D02*
X104083333Y-97248619D01*
X104083333Y-97248619D02*
X104107142Y-97272428D01*
X104107142Y-97272428D02*
X104130952Y-97320047D01*
X104130952Y-97320047D02*
X104130952Y-97367666D01*
X104130952Y-97367666D02*
X104107142Y-97439095D01*
X104107142Y-97439095D02*
X103821428Y-97724809D01*
X103821428Y-97724809D02*
X104130952Y-97724809D01*
D11*
X105987527Y-126819058D02*
X105987527Y-127381498D01*
X105987527Y-127381498D02*
X105950031Y-127493986D01*
X105950031Y-127493986D02*
X105875039Y-127568979D01*
X105875039Y-127568979D02*
X105762551Y-127606475D01*
X105762551Y-127606475D02*
X105687559Y-127606475D01*
X106774944Y-127606475D02*
X106324992Y-127606475D01*
X106549968Y-127606475D02*
X106549968Y-126819058D01*
X106549968Y-126819058D02*
X106474976Y-126931546D01*
X106474976Y-126931546D02*
X106399984Y-127006538D01*
X106399984Y-127006538D02*
X106324992Y-127044034D01*
X94038972Y-117560882D02*
X94038972Y-118210630D01*
X94038972Y-118210630D02*
X94077192Y-118287071D01*
X94077192Y-118287071D02*
X94115413Y-118325292D01*
X94115413Y-118325292D02*
X94191854Y-118363512D01*
X94191854Y-118363512D02*
X94344736Y-118363512D01*
X94344736Y-118363512D02*
X94421177Y-118325292D01*
X94421177Y-118325292D02*
X94459397Y-118287071D01*
X94459397Y-118287071D02*
X94497618Y-118210630D01*
X94497618Y-118210630D02*
X94497618Y-117560882D01*
X94803381Y-117560882D02*
X95300247Y-117560882D01*
X95300247Y-117560882D02*
X95032704Y-117866646D01*
X95032704Y-117866646D02*
X95147365Y-117866646D01*
X95147365Y-117866646D02*
X95223806Y-117904866D01*
X95223806Y-117904866D02*
X95262027Y-117943087D01*
X95262027Y-117943087D02*
X95300247Y-118019528D01*
X95300247Y-118019528D02*
X95300247Y-118210630D01*
X95300247Y-118210630D02*
X95262027Y-118287071D01*
X95262027Y-118287071D02*
X95223806Y-118325292D01*
X95223806Y-118325292D02*
X95147365Y-118363512D01*
X95147365Y-118363512D02*
X94918042Y-118363512D01*
X94918042Y-118363512D02*
X94841601Y-118325292D01*
X94841601Y-118325292D02*
X94803381Y-118287071D01*
X62789999Y-130757800D02*
X62881428Y-130788276D01*
X62881428Y-130788276D02*
X63033809Y-130788276D01*
X63033809Y-130788276D02*
X63094761Y-130757800D01*
X63094761Y-130757800D02*
X63125237Y-130727323D01*
X63125237Y-130727323D02*
X63155714Y-130666371D01*
X63155714Y-130666371D02*
X63155714Y-130605419D01*
X63155714Y-130605419D02*
X63125237Y-130544466D01*
X63125237Y-130544466D02*
X63094761Y-130513990D01*
X63094761Y-130513990D02*
X63033809Y-130483514D01*
X63033809Y-130483514D02*
X62911904Y-130453038D01*
X62911904Y-130453038D02*
X62850952Y-130422561D01*
X62850952Y-130422561D02*
X62820475Y-130392085D01*
X62820475Y-130392085D02*
X62789999Y-130331133D01*
X62789999Y-130331133D02*
X62789999Y-130270180D01*
X62789999Y-130270180D02*
X62820475Y-130209228D01*
X62820475Y-130209228D02*
X62850952Y-130178752D01*
X62850952Y-130178752D02*
X62911904Y-130148276D01*
X62911904Y-130148276D02*
X63064285Y-130148276D01*
X63064285Y-130148276D02*
X63155714Y-130178752D01*
X63429999Y-130788276D02*
X63429999Y-130148276D01*
X63429999Y-130148276D02*
X63673809Y-130148276D01*
X63673809Y-130148276D02*
X63734761Y-130178752D01*
X63734761Y-130178752D02*
X63765238Y-130209228D01*
X63765238Y-130209228D02*
X63795714Y-130270180D01*
X63795714Y-130270180D02*
X63795714Y-130361609D01*
X63795714Y-130361609D02*
X63765238Y-130422561D01*
X63765238Y-130422561D02*
X63734761Y-130453038D01*
X63734761Y-130453038D02*
X63673809Y-130483514D01*
X63673809Y-130483514D02*
X63429999Y-130483514D01*
X64069999Y-130788276D02*
X64069999Y-130148276D01*
X64496666Y-130148276D02*
X64557619Y-130148276D01*
X64557619Y-130148276D02*
X64618571Y-130178752D01*
X64618571Y-130178752D02*
X64649047Y-130209228D01*
X64649047Y-130209228D02*
X64679523Y-130270180D01*
X64679523Y-130270180D02*
X64710000Y-130392085D01*
X64710000Y-130392085D02*
X64710000Y-130544466D01*
X64710000Y-130544466D02*
X64679523Y-130666371D01*
X64679523Y-130666371D02*
X64649047Y-130727323D01*
X64649047Y-130727323D02*
X64618571Y-130757800D01*
X64618571Y-130757800D02*
X64557619Y-130788276D01*
X64557619Y-130788276D02*
X64496666Y-130788276D01*
X64496666Y-130788276D02*
X64435714Y-130757800D01*
X64435714Y-130757800D02*
X64405238Y-130727323D01*
X64405238Y-130727323D02*
X64374761Y-130666371D01*
X64374761Y-130666371D02*
X64344285Y-130544466D01*
X64344285Y-130544466D02*
X64344285Y-130392085D01*
X64344285Y-130392085D02*
X64374761Y-130270180D01*
X64374761Y-130270180D02*
X64405238Y-130209228D01*
X64405238Y-130209228D02*
X64435714Y-130178752D01*
X64435714Y-130178752D02*
X64496666Y-130148276D01*
D12*
X108869048Y-96724809D02*
X109154762Y-96724809D01*
X109011905Y-97224809D02*
X109011905Y-96724809D01*
X109321428Y-97224809D02*
X109321428Y-96724809D01*
X109321428Y-96724809D02*
X109511904Y-96724809D01*
X109511904Y-96724809D02*
X109559523Y-96748619D01*
X109559523Y-96748619D02*
X109583333Y-96772428D01*
X109583333Y-96772428D02*
X109607142Y-96820047D01*
X109607142Y-96820047D02*
X109607142Y-96891476D01*
X109607142Y-96891476D02*
X109583333Y-96939095D01*
X109583333Y-96939095D02*
X109559523Y-96962904D01*
X109559523Y-96962904D02*
X109511904Y-96986714D01*
X109511904Y-96986714D02*
X109321428Y-96986714D01*
X109773809Y-96724809D02*
X110083333Y-96724809D01*
X110083333Y-96724809D02*
X109916666Y-96915285D01*
X109916666Y-96915285D02*
X109988095Y-96915285D01*
X109988095Y-96915285D02*
X110035714Y-96939095D01*
X110035714Y-96939095D02*
X110059523Y-96962904D01*
X110059523Y-96962904D02*
X110083333Y-97010523D01*
X110083333Y-97010523D02*
X110083333Y-97129571D01*
X110083333Y-97129571D02*
X110059523Y-97177190D01*
X110059523Y-97177190D02*
X110035714Y-97201000D01*
X110035714Y-97201000D02*
X109988095Y-97224809D01*
X109988095Y-97224809D02*
X109845238Y-97224809D01*
X109845238Y-97224809D02*
X109797619Y-97201000D01*
X109797619Y-97201000D02*
X109773809Y-97177190D01*
D11*
X108238095Y-118454819D02*
X108809523Y-118454819D01*
X108523809Y-119454819D02*
X108523809Y-118454819D01*
X109142857Y-119454819D02*
X109142857Y-118454819D01*
X109142857Y-118454819D02*
X109523809Y-118454819D01*
X109523809Y-118454819D02*
X109619047Y-118502438D01*
X109619047Y-118502438D02*
X109666666Y-118550057D01*
X109666666Y-118550057D02*
X109714285Y-118645295D01*
X109714285Y-118645295D02*
X109714285Y-118788152D01*
X109714285Y-118788152D02*
X109666666Y-118883390D01*
X109666666Y-118883390D02*
X109619047Y-118931009D01*
X109619047Y-118931009D02*
X109523809Y-118978628D01*
X109523809Y-118978628D02*
X109142857Y-118978628D01*
X110666666Y-119454819D02*
X110095238Y-119454819D01*
X110380952Y-119454819D02*
X110380952Y-118454819D01*
X110380952Y-118454819D02*
X110285714Y-118597676D01*
X110285714Y-118597676D02*
X110190476Y-118692914D01*
X110190476Y-118692914D02*
X110095238Y-118740533D01*
D12*
X102677190Y-99321428D02*
X102701000Y-99345237D01*
X102701000Y-99345237D02*
X102724809Y-99416666D01*
X102724809Y-99416666D02*
X102724809Y-99464285D01*
X102724809Y-99464285D02*
X102701000Y-99535713D01*
X102701000Y-99535713D02*
X102653380Y-99583332D01*
X102653380Y-99583332D02*
X102605761Y-99607142D01*
X102605761Y-99607142D02*
X102510523Y-99630951D01*
X102510523Y-99630951D02*
X102439095Y-99630951D01*
X102439095Y-99630951D02*
X102343857Y-99607142D01*
X102343857Y-99607142D02*
X102296238Y-99583332D01*
X102296238Y-99583332D02*
X102248619Y-99535713D01*
X102248619Y-99535713D02*
X102224809Y-99464285D01*
X102224809Y-99464285D02*
X102224809Y-99416666D01*
X102224809Y-99416666D02*
X102248619Y-99345237D01*
X102248619Y-99345237D02*
X102272428Y-99321428D01*
X102272428Y-99130951D02*
X102248619Y-99107142D01*
X102248619Y-99107142D02*
X102224809Y-99059523D01*
X102224809Y-99059523D02*
X102224809Y-98940475D01*
X102224809Y-98940475D02*
X102248619Y-98892856D01*
X102248619Y-98892856D02*
X102272428Y-98869047D01*
X102272428Y-98869047D02*
X102320047Y-98845237D01*
X102320047Y-98845237D02*
X102367666Y-98845237D01*
X102367666Y-98845237D02*
X102439095Y-98869047D01*
X102439095Y-98869047D02*
X102724809Y-99154761D01*
X102724809Y-99154761D02*
X102724809Y-98845237D01*
X102724809Y-98369047D02*
X102724809Y-98654761D01*
X102724809Y-98511904D02*
X102224809Y-98511904D01*
X102224809Y-98511904D02*
X102296238Y-98559523D01*
X102296238Y-98559523D02*
X102343857Y-98607142D01*
X102343857Y-98607142D02*
X102367666Y-98654761D01*
D11*
X59608095Y-110524819D02*
X59608095Y-111334342D01*
X59608095Y-111334342D02*
X59655714Y-111429580D01*
X59655714Y-111429580D02*
X59703333Y-111477200D01*
X59703333Y-111477200D02*
X59798571Y-111524819D01*
X59798571Y-111524819D02*
X59989047Y-111524819D01*
X59989047Y-111524819D02*
X60084285Y-111477200D01*
X60084285Y-111477200D02*
X60131904Y-111429580D01*
X60131904Y-111429580D02*
X60179523Y-111334342D01*
X60179523Y-111334342D02*
X60179523Y-110524819D01*
X61131904Y-110524819D02*
X60655714Y-110524819D01*
X60655714Y-110524819D02*
X60608095Y-111001009D01*
X60608095Y-111001009D02*
X60655714Y-110953390D01*
X60655714Y-110953390D02*
X60750952Y-110905771D01*
X60750952Y-110905771D02*
X60989047Y-110905771D01*
X60989047Y-110905771D02*
X61084285Y-110953390D01*
X61084285Y-110953390D02*
X61131904Y-111001009D01*
X61131904Y-111001009D02*
X61179523Y-111096247D01*
X61179523Y-111096247D02*
X61179523Y-111334342D01*
X61179523Y-111334342D02*
X61131904Y-111429580D01*
X61131904Y-111429580D02*
X61084285Y-111477200D01*
X61084285Y-111477200D02*
X60989047Y-111524819D01*
X60989047Y-111524819D02*
X60750952Y-111524819D01*
X60750952Y-111524819D02*
X60655714Y-111477200D01*
X60655714Y-111477200D02*
X60608095Y-111429580D01*
D12*
X96916666Y-112224809D02*
X96750000Y-111986714D01*
X96630952Y-112224809D02*
X96630952Y-111724809D01*
X96630952Y-111724809D02*
X96821428Y-111724809D01*
X96821428Y-111724809D02*
X96869047Y-111748619D01*
X96869047Y-111748619D02*
X96892857Y-111772428D01*
X96892857Y-111772428D02*
X96916666Y-111820047D01*
X96916666Y-111820047D02*
X96916666Y-111891476D01*
X96916666Y-111891476D02*
X96892857Y-111939095D01*
X96892857Y-111939095D02*
X96869047Y-111962904D01*
X96869047Y-111962904D02*
X96821428Y-111986714D01*
X96821428Y-111986714D02*
X96630952Y-111986714D01*
X97154762Y-112224809D02*
X97250000Y-112224809D01*
X97250000Y-112224809D02*
X97297619Y-112201000D01*
X97297619Y-112201000D02*
X97321428Y-112177190D01*
X97321428Y-112177190D02*
X97369047Y-112105761D01*
X97369047Y-112105761D02*
X97392857Y-112010523D01*
X97392857Y-112010523D02*
X97392857Y-111820047D01*
X97392857Y-111820047D02*
X97369047Y-111772428D01*
X97369047Y-111772428D02*
X97345238Y-111748619D01*
X97345238Y-111748619D02*
X97297619Y-111724809D01*
X97297619Y-111724809D02*
X97202381Y-111724809D01*
X97202381Y-111724809D02*
X97154762Y-111748619D01*
X97154762Y-111748619D02*
X97130952Y-111772428D01*
X97130952Y-111772428D02*
X97107143Y-111820047D01*
X97107143Y-111820047D02*
X97107143Y-111939095D01*
X97107143Y-111939095D02*
X97130952Y-111986714D01*
X97130952Y-111986714D02*
X97154762Y-112010523D01*
X97154762Y-112010523D02*
X97202381Y-112034333D01*
X97202381Y-112034333D02*
X97297619Y-112034333D01*
X97297619Y-112034333D02*
X97345238Y-112010523D01*
X97345238Y-112010523D02*
X97369047Y-111986714D01*
X97369047Y-111986714D02*
X97392857Y-111939095D01*
D11*
X67570475Y-92288276D02*
X67570475Y-91648276D01*
X67844761Y-91709228D02*
X67875237Y-91678752D01*
X67875237Y-91678752D02*
X67936190Y-91648276D01*
X67936190Y-91648276D02*
X68088571Y-91648276D01*
X68088571Y-91648276D02*
X68149523Y-91678752D01*
X68149523Y-91678752D02*
X68179999Y-91709228D01*
X68179999Y-91709228D02*
X68210476Y-91770180D01*
X68210476Y-91770180D02*
X68210476Y-91831133D01*
X68210476Y-91831133D02*
X68179999Y-91922561D01*
X68179999Y-91922561D02*
X67814285Y-92288276D01*
X67814285Y-92288276D02*
X68210476Y-92288276D01*
X68850476Y-92227323D02*
X68820000Y-92257800D01*
X68820000Y-92257800D02*
X68728571Y-92288276D01*
X68728571Y-92288276D02*
X68667619Y-92288276D01*
X68667619Y-92288276D02*
X68576190Y-92257800D01*
X68576190Y-92257800D02*
X68515238Y-92196847D01*
X68515238Y-92196847D02*
X68484761Y-92135895D01*
X68484761Y-92135895D02*
X68454285Y-92013990D01*
X68454285Y-92013990D02*
X68454285Y-91922561D01*
X68454285Y-91922561D02*
X68484761Y-91800657D01*
X68484761Y-91800657D02*
X68515238Y-91739704D01*
X68515238Y-91739704D02*
X68576190Y-91678752D01*
X68576190Y-91678752D02*
X68667619Y-91648276D01*
X68667619Y-91648276D02*
X68728571Y-91648276D01*
X68728571Y-91648276D02*
X68820000Y-91678752D01*
X68820000Y-91678752D02*
X68850476Y-91709228D01*
X69246666Y-91648276D02*
X69307619Y-91648276D01*
X69307619Y-91648276D02*
X69368571Y-91678752D01*
X69368571Y-91678752D02*
X69399047Y-91709228D01*
X69399047Y-91709228D02*
X69429523Y-91770180D01*
X69429523Y-91770180D02*
X69460000Y-91892085D01*
X69460000Y-91892085D02*
X69460000Y-92044466D01*
X69460000Y-92044466D02*
X69429523Y-92166371D01*
X69429523Y-92166371D02*
X69399047Y-92227323D01*
X69399047Y-92227323D02*
X69368571Y-92257800D01*
X69368571Y-92257800D02*
X69307619Y-92288276D01*
X69307619Y-92288276D02*
X69246666Y-92288276D01*
X69246666Y-92288276D02*
X69185714Y-92257800D01*
X69185714Y-92257800D02*
X69155238Y-92227323D01*
X69155238Y-92227323D02*
X69124761Y-92166371D01*
X69124761Y-92166371D02*
X69094285Y-92044466D01*
X69094285Y-92044466D02*
X69094285Y-91892085D01*
X69094285Y-91892085D02*
X69124761Y-91770180D01*
X69124761Y-91770180D02*
X69155238Y-91709228D01*
X69155238Y-91709228D02*
X69185714Y-91678752D01*
X69185714Y-91678752D02*
X69246666Y-91648276D01*
D12*
X109678571Y-117177190D02*
X109654762Y-117201000D01*
X109654762Y-117201000D02*
X109583333Y-117224809D01*
X109583333Y-117224809D02*
X109535714Y-117224809D01*
X109535714Y-117224809D02*
X109464286Y-117201000D01*
X109464286Y-117201000D02*
X109416667Y-117153380D01*
X109416667Y-117153380D02*
X109392857Y-117105761D01*
X109392857Y-117105761D02*
X109369048Y-117010523D01*
X109369048Y-117010523D02*
X109369048Y-116939095D01*
X109369048Y-116939095D02*
X109392857Y-116843857D01*
X109392857Y-116843857D02*
X109416667Y-116796238D01*
X109416667Y-116796238D02*
X109464286Y-116748619D01*
X109464286Y-116748619D02*
X109535714Y-116724809D01*
X109535714Y-116724809D02*
X109583333Y-116724809D01*
X109583333Y-116724809D02*
X109654762Y-116748619D01*
X109654762Y-116748619D02*
X109678571Y-116772428D01*
X109869048Y-116772428D02*
X109892857Y-116748619D01*
X109892857Y-116748619D02*
X109940476Y-116724809D01*
X109940476Y-116724809D02*
X110059524Y-116724809D01*
X110059524Y-116724809D02*
X110107143Y-116748619D01*
X110107143Y-116748619D02*
X110130952Y-116772428D01*
X110130952Y-116772428D02*
X110154762Y-116820047D01*
X110154762Y-116820047D02*
X110154762Y-116867666D01*
X110154762Y-116867666D02*
X110130952Y-116939095D01*
X110130952Y-116939095D02*
X109845238Y-117224809D01*
X109845238Y-117224809D02*
X110154762Y-117224809D01*
X110345238Y-116772428D02*
X110369047Y-116748619D01*
X110369047Y-116748619D02*
X110416666Y-116724809D01*
X110416666Y-116724809D02*
X110535714Y-116724809D01*
X110535714Y-116724809D02*
X110583333Y-116748619D01*
X110583333Y-116748619D02*
X110607142Y-116772428D01*
X110607142Y-116772428D02*
X110630952Y-116820047D01*
X110630952Y-116820047D02*
X110630952Y-116867666D01*
X110630952Y-116867666D02*
X110607142Y-116939095D01*
X110607142Y-116939095D02*
X110321428Y-117224809D01*
X110321428Y-117224809D02*
X110630952Y-117224809D01*
D11*
X117416666Y-93954819D02*
X117416666Y-94669104D01*
X117416666Y-94669104D02*
X117369047Y-94811961D01*
X117369047Y-94811961D02*
X117273809Y-94907200D01*
X117273809Y-94907200D02*
X117130952Y-94954819D01*
X117130952Y-94954819D02*
X117035714Y-94954819D01*
X118369047Y-93954819D02*
X117892857Y-93954819D01*
X117892857Y-93954819D02*
X117845238Y-94431009D01*
X117845238Y-94431009D02*
X117892857Y-94383390D01*
X117892857Y-94383390D02*
X117988095Y-94335771D01*
X117988095Y-94335771D02*
X118226190Y-94335771D01*
X118226190Y-94335771D02*
X118321428Y-94383390D01*
X118321428Y-94383390D02*
X118369047Y-94431009D01*
X118369047Y-94431009D02*
X118416666Y-94526247D01*
X118416666Y-94526247D02*
X118416666Y-94764342D01*
X118416666Y-94764342D02*
X118369047Y-94859580D01*
X118369047Y-94859580D02*
X118321428Y-94907200D01*
X118321428Y-94907200D02*
X118226190Y-94954819D01*
X118226190Y-94954819D02*
X117988095Y-94954819D01*
X117988095Y-94954819D02*
X117892857Y-94907200D01*
X117892857Y-94907200D02*
X117845238Y-94859580D01*
D12*
X102416666Y-104177190D02*
X102392857Y-104201000D01*
X102392857Y-104201000D02*
X102321428Y-104224809D01*
X102321428Y-104224809D02*
X102273809Y-104224809D01*
X102273809Y-104224809D02*
X102202381Y-104201000D01*
X102202381Y-104201000D02*
X102154762Y-104153380D01*
X102154762Y-104153380D02*
X102130952Y-104105761D01*
X102130952Y-104105761D02*
X102107143Y-104010523D01*
X102107143Y-104010523D02*
X102107143Y-103939095D01*
X102107143Y-103939095D02*
X102130952Y-103843857D01*
X102130952Y-103843857D02*
X102154762Y-103796238D01*
X102154762Y-103796238D02*
X102202381Y-103748619D01*
X102202381Y-103748619D02*
X102273809Y-103724809D01*
X102273809Y-103724809D02*
X102321428Y-103724809D01*
X102321428Y-103724809D02*
X102392857Y-103748619D01*
X102392857Y-103748619D02*
X102416666Y-103772428D01*
X102702381Y-103939095D02*
X102654762Y-103915285D01*
X102654762Y-103915285D02*
X102630952Y-103891476D01*
X102630952Y-103891476D02*
X102607143Y-103843857D01*
X102607143Y-103843857D02*
X102607143Y-103820047D01*
X102607143Y-103820047D02*
X102630952Y-103772428D01*
X102630952Y-103772428D02*
X102654762Y-103748619D01*
X102654762Y-103748619D02*
X102702381Y-103724809D01*
X102702381Y-103724809D02*
X102797619Y-103724809D01*
X102797619Y-103724809D02*
X102845238Y-103748619D01*
X102845238Y-103748619D02*
X102869047Y-103772428D01*
X102869047Y-103772428D02*
X102892857Y-103820047D01*
X102892857Y-103820047D02*
X102892857Y-103843857D01*
X102892857Y-103843857D02*
X102869047Y-103891476D01*
X102869047Y-103891476D02*
X102845238Y-103915285D01*
X102845238Y-103915285D02*
X102797619Y-103939095D01*
X102797619Y-103939095D02*
X102702381Y-103939095D01*
X102702381Y-103939095D02*
X102654762Y-103962904D01*
X102654762Y-103962904D02*
X102630952Y-103986714D01*
X102630952Y-103986714D02*
X102607143Y-104034333D01*
X102607143Y-104034333D02*
X102607143Y-104129571D01*
X102607143Y-104129571D02*
X102630952Y-104177190D01*
X102630952Y-104177190D02*
X102654762Y-104201000D01*
X102654762Y-104201000D02*
X102702381Y-104224809D01*
X102702381Y-104224809D02*
X102797619Y-104224809D01*
X102797619Y-104224809D02*
X102845238Y-104201000D01*
X102845238Y-104201000D02*
X102869047Y-104177190D01*
X102869047Y-104177190D02*
X102892857Y-104129571D01*
X102892857Y-104129571D02*
X102892857Y-104034333D01*
X102892857Y-104034333D02*
X102869047Y-103986714D01*
X102869047Y-103986714D02*
X102845238Y-103962904D01*
X102845238Y-103962904D02*
X102797619Y-103939095D01*
D11*
X82333333Y-92359580D02*
X82285714Y-92407200D01*
X82285714Y-92407200D02*
X82142857Y-92454819D01*
X82142857Y-92454819D02*
X82047619Y-92454819D01*
X82047619Y-92454819D02*
X81904762Y-92407200D01*
X81904762Y-92407200D02*
X81809524Y-92311961D01*
X81809524Y-92311961D02*
X81761905Y-92216723D01*
X81761905Y-92216723D02*
X81714286Y-92026247D01*
X81714286Y-92026247D02*
X81714286Y-91883390D01*
X81714286Y-91883390D02*
X81761905Y-91692914D01*
X81761905Y-91692914D02*
X81809524Y-91597676D01*
X81809524Y-91597676D02*
X81904762Y-91502438D01*
X81904762Y-91502438D02*
X82047619Y-91454819D01*
X82047619Y-91454819D02*
X82142857Y-91454819D01*
X82142857Y-91454819D02*
X82285714Y-91502438D01*
X82285714Y-91502438D02*
X82333333Y-91550057D01*
X83190476Y-91454819D02*
X83000000Y-91454819D01*
X83000000Y-91454819D02*
X82904762Y-91502438D01*
X82904762Y-91502438D02*
X82857143Y-91550057D01*
X82857143Y-91550057D02*
X82761905Y-91692914D01*
X82761905Y-91692914D02*
X82714286Y-91883390D01*
X82714286Y-91883390D02*
X82714286Y-92264342D01*
X82714286Y-92264342D02*
X82761905Y-92359580D01*
X82761905Y-92359580D02*
X82809524Y-92407200D01*
X82809524Y-92407200D02*
X82904762Y-92454819D01*
X82904762Y-92454819D02*
X83095238Y-92454819D01*
X83095238Y-92454819D02*
X83190476Y-92407200D01*
X83190476Y-92407200D02*
X83238095Y-92359580D01*
X83238095Y-92359580D02*
X83285714Y-92264342D01*
X83285714Y-92264342D02*
X83285714Y-92026247D01*
X83285714Y-92026247D02*
X83238095Y-91931009D01*
X83238095Y-91931009D02*
X83190476Y-91883390D01*
X83190476Y-91883390D02*
X83095238Y-91835771D01*
X83095238Y-91835771D02*
X82904762Y-91835771D01*
X82904762Y-91835771D02*
X82809524Y-91883390D01*
X82809524Y-91883390D02*
X82761905Y-91931009D01*
X82761905Y-91931009D02*
X82714286Y-92026247D01*
X101536667Y-110398276D02*
X101536667Y-110855419D01*
X101536667Y-110855419D02*
X101506190Y-110946847D01*
X101506190Y-110946847D02*
X101445238Y-111007800D01*
X101445238Y-111007800D02*
X101353809Y-111038276D01*
X101353809Y-111038276D02*
X101292857Y-111038276D01*
X102115714Y-110398276D02*
X101993809Y-110398276D01*
X101993809Y-110398276D02*
X101932857Y-110428752D01*
X101932857Y-110428752D02*
X101902381Y-110459228D01*
X101902381Y-110459228D02*
X101841428Y-110550657D01*
X101841428Y-110550657D02*
X101810952Y-110672561D01*
X101810952Y-110672561D02*
X101810952Y-110916371D01*
X101810952Y-110916371D02*
X101841428Y-110977323D01*
X101841428Y-110977323D02*
X101871905Y-111007800D01*
X101871905Y-111007800D02*
X101932857Y-111038276D01*
X101932857Y-111038276D02*
X102054762Y-111038276D01*
X102054762Y-111038276D02*
X102115714Y-111007800D01*
X102115714Y-111007800D02*
X102146190Y-110977323D01*
X102146190Y-110977323D02*
X102176667Y-110916371D01*
X102176667Y-110916371D02*
X102176667Y-110763990D01*
X102176667Y-110763990D02*
X102146190Y-110703038D01*
X102146190Y-110703038D02*
X102115714Y-110672561D01*
X102115714Y-110672561D02*
X102054762Y-110642085D01*
X102054762Y-110642085D02*
X101932857Y-110642085D01*
X101932857Y-110642085D02*
X101871905Y-110672561D01*
X101871905Y-110672561D02*
X101841428Y-110703038D01*
X101841428Y-110703038D02*
X101810952Y-110763990D01*
X86738095Y-92954819D02*
X87309523Y-92954819D01*
X87023809Y-93954819D02*
X87023809Y-92954819D01*
X87642857Y-93954819D02*
X87642857Y-92954819D01*
X87642857Y-92954819D02*
X88023809Y-92954819D01*
X88023809Y-92954819D02*
X88119047Y-93002438D01*
X88119047Y-93002438D02*
X88166666Y-93050057D01*
X88166666Y-93050057D02*
X88214285Y-93145295D01*
X88214285Y-93145295D02*
X88214285Y-93288152D01*
X88214285Y-93288152D02*
X88166666Y-93383390D01*
X88166666Y-93383390D02*
X88119047Y-93431009D01*
X88119047Y-93431009D02*
X88023809Y-93478628D01*
X88023809Y-93478628D02*
X87642857Y-93478628D01*
X88595238Y-93050057D02*
X88642857Y-93002438D01*
X88642857Y-93002438D02*
X88738095Y-92954819D01*
X88738095Y-92954819D02*
X88976190Y-92954819D01*
X88976190Y-92954819D02*
X89071428Y-93002438D01*
X89071428Y-93002438D02*
X89119047Y-93050057D01*
X89119047Y-93050057D02*
X89166666Y-93145295D01*
X89166666Y-93145295D02*
X89166666Y-93240533D01*
X89166666Y-93240533D02*
X89119047Y-93383390D01*
X89119047Y-93383390D02*
X88547619Y-93954819D01*
X88547619Y-93954819D02*
X89166666Y-93954819D01*
X114738095Y-104454819D02*
X114738095Y-105264342D01*
X114738095Y-105264342D02*
X114785714Y-105359580D01*
X114785714Y-105359580D02*
X114833333Y-105407200D01*
X114833333Y-105407200D02*
X114928571Y-105454819D01*
X114928571Y-105454819D02*
X115119047Y-105454819D01*
X115119047Y-105454819D02*
X115214285Y-105407200D01*
X115214285Y-105407200D02*
X115261904Y-105359580D01*
X115261904Y-105359580D02*
X115309523Y-105264342D01*
X115309523Y-105264342D02*
X115309523Y-104454819D01*
X116214285Y-104788152D02*
X116214285Y-105454819D01*
X115976190Y-104407200D02*
X115738095Y-105121485D01*
X115738095Y-105121485D02*
X116357142Y-105121485D01*
X85174285Y-130148276D02*
X85174285Y-130666371D01*
X85174285Y-130666371D02*
X85204762Y-130727323D01*
X85204762Y-130727323D02*
X85235238Y-130757800D01*
X85235238Y-130757800D02*
X85296190Y-130788276D01*
X85296190Y-130788276D02*
X85418095Y-130788276D01*
X85418095Y-130788276D02*
X85479047Y-130757800D01*
X85479047Y-130757800D02*
X85509524Y-130727323D01*
X85509524Y-130727323D02*
X85540000Y-130666371D01*
X85540000Y-130666371D02*
X85540000Y-130148276D01*
X85814285Y-130605419D02*
X86119047Y-130605419D01*
X85753333Y-130788276D02*
X85966666Y-130148276D01*
X85966666Y-130148276D02*
X86180000Y-130788276D01*
X86759047Y-130788276D02*
X86545713Y-130483514D01*
X86393332Y-130788276D02*
X86393332Y-130148276D01*
X86393332Y-130148276D02*
X86637142Y-130148276D01*
X86637142Y-130148276D02*
X86698094Y-130178752D01*
X86698094Y-130178752D02*
X86728571Y-130209228D01*
X86728571Y-130209228D02*
X86759047Y-130270180D01*
X86759047Y-130270180D02*
X86759047Y-130361609D01*
X86759047Y-130361609D02*
X86728571Y-130422561D01*
X86728571Y-130422561D02*
X86698094Y-130453038D01*
X86698094Y-130453038D02*
X86637142Y-130483514D01*
X86637142Y-130483514D02*
X86393332Y-130483514D01*
X86941904Y-130148276D02*
X87307618Y-130148276D01*
X87124761Y-130788276D02*
X87124761Y-130148276D01*
X87642856Y-130148276D02*
X87703809Y-130148276D01*
X87703809Y-130148276D02*
X87764761Y-130178752D01*
X87764761Y-130178752D02*
X87795237Y-130209228D01*
X87795237Y-130209228D02*
X87825713Y-130270180D01*
X87825713Y-130270180D02*
X87856190Y-130392085D01*
X87856190Y-130392085D02*
X87856190Y-130544466D01*
X87856190Y-130544466D02*
X87825713Y-130666371D01*
X87825713Y-130666371D02*
X87795237Y-130727323D01*
X87795237Y-130727323D02*
X87764761Y-130757800D01*
X87764761Y-130757800D02*
X87703809Y-130788276D01*
X87703809Y-130788276D02*
X87642856Y-130788276D01*
X87642856Y-130788276D02*
X87581904Y-130757800D01*
X87581904Y-130757800D02*
X87551428Y-130727323D01*
X87551428Y-130727323D02*
X87520951Y-130666371D01*
X87520951Y-130666371D02*
X87490475Y-130544466D01*
X87490475Y-130544466D02*
X87490475Y-130392085D01*
X87490475Y-130392085D02*
X87520951Y-130270180D01*
X87520951Y-130270180D02*
X87551428Y-130209228D01*
X87551428Y-130209228D02*
X87581904Y-130178752D01*
X87581904Y-130178752D02*
X87642856Y-130148276D01*
D14*
%TO.C,J8*%
X123200000Y-97530000D02*
G75*
G02*
X123000000Y-97530000I-100000J0D01*
G01*
X123000000Y-97530000D02*
G75*
G02*
X123200000Y-97530000I100000J0D01*
G01*
X125370000Y-107410000D02*
X122630000Y-107410000D01*
X125370000Y-97050000D02*
X125370000Y-107410000D01*
X122630000Y-107410000D02*
X122630000Y-97050000D01*
X122630000Y-97050000D02*
X125370000Y-97050000D01*
D15*
%TO.C,C17*%
X116990000Y-130134420D02*
X116990000Y-130415580D01*
X118010000Y-130134420D02*
X118010000Y-130415580D01*
D16*
%TO.C,J4*%
X103960000Y-93230000D02*
X109040000Y-93230000D01*
X103960000Y-95770000D02*
X103960000Y-93230000D01*
X109040000Y-93230000D02*
X109040000Y-95770000D01*
X109040000Y-95770000D02*
X103960000Y-95770000D01*
D14*
X109700000Y-94500000D02*
G75*
G02*
X109500000Y-94500000I-100000J0D01*
G01*
X109500000Y-94500000D02*
G75*
G02*
X109700000Y-94500000I100000J0D01*
G01*
D15*
%TO.C,C7*%
X79490000Y-94640580D02*
X79490000Y-94359420D01*
X80510000Y-94640580D02*
X80510000Y-94359420D01*
D16*
%TO.C,J2*%
X94800000Y-128625000D02*
X102200000Y-128625000D01*
X94800000Y-134375000D02*
X94800000Y-128625000D01*
X102200000Y-128625000D02*
X102200000Y-134375000D01*
X102200000Y-134375000D02*
X94800000Y-134375000D01*
D14*
X94160000Y-130975000D02*
G75*
G02*
X93960000Y-130975000I-100000J0D01*
G01*
X93960000Y-130975000D02*
G75*
G02*
X94160000Y-130975000I100000J0D01*
G01*
D15*
%TO.C,C18*%
X107490000Y-101915580D02*
X107490000Y-101634420D01*
X108510000Y-101915580D02*
X108510000Y-101634420D01*
%TO.C,C9*%
X112490000Y-101915580D02*
X112490000Y-101634420D01*
X113510000Y-101915580D02*
X113510000Y-101634420D01*
%TO.C,C19*%
X108865580Y-98820000D02*
X108584420Y-98820000D01*
X108865580Y-99840000D02*
X108584420Y-99840000D01*
%TO.C,C3*%
X99990000Y-119665580D02*
X99990000Y-119384420D01*
X101010000Y-119665580D02*
X101010000Y-119384420D01*
%TO.C,C11*%
X116359420Y-107990000D02*
X116640580Y-107990000D01*
X116359420Y-109010000D02*
X116640580Y-109010000D01*
%TO.C,CS0*%
X95800000Y-103300000D02*
X98200000Y-103300000D01*
X95800000Y-105700000D02*
X95800000Y-103300000D01*
X98200000Y-103300000D02*
X98200000Y-105700000D01*
X98200000Y-105700000D02*
X95800000Y-105700000D01*
%TO.C,TP4*%
X101700000Y-102500000D02*
G75*
G02*
X100300000Y-102500000I-700000J0D01*
G01*
X100300000Y-102500000D02*
G75*
G02*
X101700000Y-102500000I700000J0D01*
G01*
%TO.C,C4*%
X93990000Y-114109420D02*
X93990000Y-114390580D01*
X95010000Y-114109420D02*
X95010000Y-114390580D01*
%TO.C,C5*%
X84490000Y-94640580D02*
X84490000Y-94359420D01*
X85510000Y-94640580D02*
X85510000Y-94359420D01*
%TO.C,R8*%
X124737258Y-122977500D02*
X124262742Y-122977500D01*
X124737258Y-124022500D02*
X124262742Y-124022500D01*
%TO.C,C20*%
X107490000Y-114634420D02*
X107490000Y-114915580D01*
X108510000Y-114634420D02*
X108510000Y-114915580D01*
D17*
%TO.C,U2*%
X120425900Y-130476399D02*
X122483300Y-130476399D01*
X122483300Y-127123599D02*
X120425900Y-127123599D01*
X122483300Y-129163260D02*
X122483300Y-128436738D01*
%TO.C,MOSFET1*%
X102674500Y-121374400D02*
X102674500Y-122387860D01*
X102674500Y-123612140D02*
X102674500Y-124625600D01*
X102674500Y-124625600D02*
X104325500Y-124625600D01*
X104325500Y-121374400D02*
X102674500Y-121374400D01*
X104325500Y-123337861D02*
X104325500Y-122662139D01*
X104897000Y-125768600D02*
G75*
G02*
X104643000Y-125768600I-127000J0D01*
G01*
X104643000Y-125768600D02*
G75*
G02*
X104897000Y-125768600I127000J0D01*
G01*
D16*
%TO.C,J3*%
X122730000Y-108960000D02*
X125270000Y-108960000D01*
X122730000Y-114040000D02*
X122730000Y-108960000D01*
X125270000Y-108960000D02*
X125270000Y-114040000D01*
X125270000Y-114040000D02*
X122730000Y-114040000D01*
D14*
X124100000Y-114600000D02*
G75*
G02*
X123900000Y-114600000I-100000J0D01*
G01*
X123900000Y-114600000D02*
G75*
G02*
X124100000Y-114600000I100000J0D01*
G01*
D18*
%TO.C,D1*%
X107450000Y-121350000D02*
X107850000Y-121350000D01*
X107450000Y-122650000D02*
X107850000Y-122650000D01*
X107850000Y-121350000D02*
X107850000Y-122650000D01*
X107850000Y-121350000D02*
X109250000Y-121350000D01*
X107850000Y-122650000D02*
X109250000Y-122650000D01*
D15*
%TO.C,R7*%
X124262742Y-124977500D02*
X124737258Y-124977500D01*
X124262742Y-126022500D02*
X124737258Y-126022500D01*
D14*
%TO.C,J7*%
X118880000Y-110820000D02*
X121620000Y-110820000D01*
X118880000Y-121180000D02*
X118880000Y-110820000D01*
X121620000Y-110820000D02*
X121620000Y-121180000D01*
X121620000Y-121180000D02*
X118880000Y-121180000D01*
X119450000Y-111300000D02*
G75*
G02*
X119250000Y-111300000I-100000J0D01*
G01*
X119250000Y-111300000D02*
G75*
G02*
X119450000Y-111300000I100000J0D01*
G01*
D15*
%TO.C,TP5*%
X114700000Y-117000000D02*
G75*
G02*
X113300000Y-117000000I-700000J0D01*
G01*
X113300000Y-117000000D02*
G75*
G02*
X114700000Y-117000000I700000J0D01*
G01*
D19*
%TO.C,G\u002A\u002A\u002A*%
G36*
X133667347Y-117930667D02*
G01*
X133914653Y-118114458D01*
X134159713Y-118275934D01*
X134392723Y-118409544D01*
X134603876Y-118509735D01*
X134783369Y-118570957D01*
X134808490Y-118576764D01*
X134912670Y-118598933D01*
X134891085Y-118760119D01*
X134836961Y-119055532D01*
X134754117Y-119367262D01*
X134648723Y-119678252D01*
X134526951Y-119971443D01*
X134394973Y-120229778D01*
X134310156Y-120365796D01*
X134249302Y-120445441D01*
X134160882Y-120549101D01*
X134053347Y-120668114D01*
X133935150Y-120793823D01*
X133814740Y-120917568D01*
X133700569Y-121030689D01*
X133601089Y-121124529D01*
X133524750Y-121190427D01*
X133480005Y-121219724D01*
X133476029Y-121220443D01*
X133438835Y-121199267D01*
X133367272Y-121141061D01*
X133270419Y-121053808D01*
X133157357Y-120945493D01*
X133111378Y-120899815D01*
X132820854Y-120581479D01*
X132585313Y-120260803D01*
X132398173Y-119925311D01*
X132285196Y-119643265D01*
X133030788Y-119643265D01*
X133059536Y-119649506D01*
X133135658Y-119654141D01*
X133243973Y-119656332D01*
X133268740Y-119656403D01*
X133389470Y-119658042D01*
X133458892Y-119664676D01*
X133488216Y-119678882D01*
X133488648Y-119703236D01*
X133487402Y-119706675D01*
X133472008Y-119756981D01*
X133445841Y-119852663D01*
X133413031Y-119978334D01*
X133388744Y-120074224D01*
X133353736Y-120213276D01*
X133322773Y-120334640D01*
X133299984Y-120422218D01*
X133291319Y-120454063D01*
X133283494Y-120483918D01*
X133283576Y-120496581D01*
X133295158Y-120486676D01*
X133321835Y-120448822D01*
X133367200Y-120377643D01*
X133434848Y-120267760D01*
X133528371Y-120113795D01*
X133620536Y-119961391D01*
X133937148Y-119437438D01*
X133734214Y-119437438D01*
X133630763Y-119436262D01*
X133557655Y-119433185D01*
X133531280Y-119429076D01*
X133539490Y-119398378D01*
X133561511Y-119321088D01*
X133593429Y-119210611D01*
X133631329Y-119080352D01*
X133671298Y-118943718D01*
X133709420Y-118814114D01*
X133741783Y-118704946D01*
X133764471Y-118629618D01*
X133768589Y-118616317D01*
X133770988Y-118589696D01*
X133750297Y-118573389D01*
X133695330Y-118564932D01*
X133594898Y-118561861D01*
X133519965Y-118561576D01*
X133254189Y-118561576D01*
X133217979Y-118741440D01*
X133196138Y-118848070D01*
X133165714Y-118994172D01*
X133131241Y-119158045D01*
X133106279Y-119275716D01*
X133076548Y-119416362D01*
X133052331Y-119532958D01*
X133036221Y-119612877D01*
X133030788Y-119643265D01*
X132285196Y-119643265D01*
X132252855Y-119562525D01*
X132142778Y-119159968D01*
X132110254Y-119001559D01*
X132079799Y-118828390D01*
X132065025Y-118708380D01*
X132065753Y-118634170D01*
X132081800Y-118598402D01*
X132100184Y-118592284D01*
X132145345Y-118580688D01*
X132232305Y-118550229D01*
X132345309Y-118506562D01*
X132393545Y-118486965D01*
X132616582Y-118379878D01*
X132862320Y-118235495D01*
X133113468Y-118064628D01*
X133307618Y-117915355D01*
X133474965Y-117779140D01*
X133667347Y-117930667D01*
G37*
G36*
X133510591Y-117266236D02*
G01*
X133578346Y-117316028D01*
X133672244Y-117388806D01*
X133747122Y-117448586D01*
X134115530Y-117726501D01*
X134470952Y-117955556D01*
X134809039Y-118133227D01*
X135125443Y-118256989D01*
X135155720Y-118266302D01*
X135235445Y-118291199D01*
X135292070Y-118317099D01*
X135327292Y-118353346D01*
X135342805Y-118409285D01*
X135340308Y-118494261D01*
X135321496Y-118617616D01*
X135288065Y-118788697D01*
X135268224Y-118886094D01*
X135135333Y-119416069D01*
X134961033Y-119901744D01*
X134743248Y-120347470D01*
X134479902Y-120757597D01*
X134223435Y-121076119D01*
X134132714Y-121174135D01*
X134022845Y-121286301D01*
X133902853Y-121404172D01*
X133781764Y-121519300D01*
X133668606Y-121623240D01*
X133572404Y-121707547D01*
X133502185Y-121763774D01*
X133467446Y-121783497D01*
X133437776Y-121762513D01*
X133371462Y-121704218D01*
X133276040Y-121615602D01*
X133159045Y-121503652D01*
X133037425Y-121384667D01*
X132818425Y-121162449D01*
X132639048Y-120965695D01*
X132489442Y-120781577D01*
X132359757Y-120597266D01*
X132240142Y-120399932D01*
X132142691Y-120219458D01*
X132016570Y-119957380D01*
X131909152Y-119690875D01*
X131816800Y-119407768D01*
X131735877Y-119095888D01*
X131662746Y-118743062D01*
X131611140Y-118445413D01*
X131804748Y-118445413D01*
X131825894Y-118620797D01*
X131887396Y-118985205D01*
X131982744Y-119362284D01*
X132104802Y-119727894D01*
X132246439Y-120057896D01*
X132256730Y-120078694D01*
X132376634Y-120301264D01*
X132507161Y-120505666D01*
X132658409Y-120705166D01*
X132840474Y-120913030D01*
X133063451Y-121142524D01*
X133075325Y-121154281D01*
X133466424Y-121540929D01*
X133704184Y-121328134D01*
X133828760Y-121213257D01*
X133957046Y-121089414D01*
X134067683Y-120977400D01*
X134101716Y-120941106D01*
X134401393Y-120568141D01*
X134654365Y-120154272D01*
X134860007Y-119700909D01*
X135017699Y-119209458D01*
X135126818Y-118681329D01*
X135139874Y-118592467D01*
X135159486Y-118451314D01*
X134928706Y-118379676D01*
X134700578Y-118291556D01*
X134444896Y-118162434D01*
X134174101Y-117999415D01*
X133900634Y-117809607D01*
X133809544Y-117740455D01*
X133689695Y-117648685D01*
X133587501Y-117572911D01*
X133513074Y-117520455D01*
X133476527Y-117498640D01*
X133475255Y-117498425D01*
X133442598Y-117517035D01*
X133373914Y-117566503D01*
X133281416Y-117637855D01*
X133234113Y-117675649D01*
X133008271Y-117846396D01*
X132767553Y-118007887D01*
X132524493Y-118152995D01*
X132291631Y-118274593D01*
X132081503Y-118365557D01*
X131940736Y-118410838D01*
X131804748Y-118445413D01*
X131611140Y-118445413D01*
X131609141Y-118433881D01*
X131591006Y-118321827D01*
X131781647Y-118268824D01*
X132094337Y-118156782D01*
X132429604Y-117988137D01*
X132788034Y-117762554D01*
X133170209Y-117479699D01*
X133191538Y-117462785D01*
X133301976Y-117376161D01*
X133394104Y-117306229D01*
X133457243Y-117260948D01*
X133480086Y-117247783D01*
X133510591Y-117266236D01*
G37*
G36*
X134199558Y-116323426D02*
G01*
X134298504Y-116352432D01*
X134451831Y-116424205D01*
X134581737Y-116539198D01*
X134696779Y-116705687D01*
X134732350Y-116772176D01*
X134786221Y-116860482D01*
X134857658Y-116937022D01*
X134962152Y-117016723D01*
X135037280Y-117066016D01*
X135217151Y-117194829D01*
X135416634Y-117362634D01*
X135620963Y-117556150D01*
X135815374Y-117762097D01*
X135831361Y-117780198D01*
X135926538Y-117881674D01*
X136046599Y-117999602D01*
X136180012Y-118123732D01*
X136315241Y-118243811D01*
X136440753Y-118349587D01*
X136545014Y-118430809D01*
X136614323Y-118476122D01*
X136676924Y-118510328D01*
X136726166Y-118545734D01*
X136763651Y-118589887D01*
X136790982Y-118650335D01*
X136809760Y-118734626D01*
X136821589Y-118850308D01*
X136828070Y-119004928D01*
X136830806Y-119206035D01*
X136831400Y-119461175D01*
X136831403Y-119498624D01*
X136830973Y-119761587D01*
X136828547Y-119969595D01*
X136822422Y-120130252D01*
X136810894Y-120251162D01*
X136792260Y-120339932D01*
X136764816Y-120404165D01*
X136726859Y-120451467D01*
X136676686Y-120489444D01*
X136612592Y-120525698D01*
X136599839Y-120532421D01*
X136522865Y-120583554D01*
X136413671Y-120670173D01*
X136283067Y-120782355D01*
X136141867Y-120910176D01*
X136000880Y-121043711D01*
X135870920Y-121173035D01*
X135762797Y-121288226D01*
X135712468Y-121346961D01*
X135577335Y-121493864D01*
X135405000Y-121652511D01*
X135214334Y-121806901D01*
X135024207Y-121941029D01*
X134976807Y-121970844D01*
X134850150Y-122064396D01*
X134762430Y-122173202D01*
X134734439Y-122223701D01*
X134613378Y-122419904D01*
X134477568Y-122557813D01*
X134323868Y-122640605D01*
X134322428Y-122641098D01*
X134187531Y-122679978D01*
X134099821Y-122687223D01*
X134052626Y-122663030D01*
X134045185Y-122649192D01*
X134039112Y-122601062D01*
X134036179Y-122506896D01*
X134036727Y-122383158D01*
X134038347Y-122317443D01*
X134047413Y-122027142D01*
X134297659Y-121942375D01*
X134623188Y-121815776D01*
X134906539Y-121667657D01*
X135157163Y-121490100D01*
X135384508Y-121275186D01*
X135598024Y-121014997D01*
X135807161Y-120701614D01*
X135836958Y-120652496D01*
X135933766Y-120488944D01*
X136006284Y-120355917D01*
X136058016Y-120239517D01*
X136092469Y-120125848D01*
X136113145Y-120001012D01*
X136123550Y-119851110D01*
X136127188Y-119662246D01*
X136127586Y-119499999D01*
X136126326Y-119273155D01*
X136120676Y-119095866D01*
X136107828Y-118955147D01*
X136084976Y-118838012D01*
X136049311Y-118731475D01*
X135998027Y-118622550D01*
X135928316Y-118498252D01*
X135901055Y-118452093D01*
X135683496Y-118111327D01*
X135466726Y-117826182D01*
X135243510Y-117590231D01*
X135006615Y-117397051D01*
X134748807Y-117240217D01*
X134462853Y-117113303D01*
X134347683Y-117072380D01*
X134047413Y-116971894D01*
X134038493Y-116655708D01*
X134036179Y-116495635D01*
X134044427Y-116390187D01*
X134069938Y-116331548D01*
X134119414Y-116311900D01*
X134199558Y-116323426D01*
G37*
G36*
X132934825Y-116337105D02*
G01*
X132957574Y-116401699D01*
X132963977Y-116514173D01*
X132961506Y-116655708D01*
X132952586Y-116971894D01*
X132652316Y-117072380D01*
X132356171Y-117188509D01*
X132091142Y-117330991D01*
X131849869Y-117506360D01*
X131624995Y-117721153D01*
X131409160Y-117981906D01*
X131195007Y-118295154D01*
X131098944Y-118452093D01*
X131023253Y-118582971D01*
X130966568Y-118694408D01*
X130926174Y-118799152D01*
X130899355Y-118909947D01*
X130883395Y-119039539D01*
X130875579Y-119200676D01*
X130873190Y-119406102D01*
X130873156Y-119511752D01*
X130873976Y-119716981D01*
X130876604Y-119871222D01*
X130882209Y-119986046D01*
X130891961Y-120073023D01*
X130907030Y-120143723D01*
X130928587Y-120209718D01*
X130948947Y-120261218D01*
X131003289Y-120381714D01*
X131063354Y-120497771D01*
X131099568Y-120558386D01*
X131153521Y-120641404D01*
X131226197Y-120754746D01*
X131303069Y-120875741D01*
X131313124Y-120891659D01*
X131540524Y-121194415D01*
X131815100Y-121460757D01*
X132129552Y-121685042D01*
X132476584Y-121861621D01*
X132652316Y-121927686D01*
X132952586Y-122028238D01*
X132952586Y-122351619D01*
X132952105Y-122496463D01*
X132948850Y-122590229D01*
X132940105Y-122644400D01*
X132923153Y-122670458D01*
X132895277Y-122679885D01*
X132874384Y-122682135D01*
X132793765Y-122676100D01*
X132694682Y-122652095D01*
X132675352Y-122645508D01*
X132524619Y-122563786D01*
X132395415Y-122432813D01*
X132289415Y-122262308D01*
X132235434Y-122170477D01*
X132171576Y-122094033D01*
X132082859Y-122018052D01*
X131954302Y-121927613D01*
X131951545Y-121925771D01*
X131814980Y-121828638D01*
X131676475Y-121716965D01*
X131527180Y-121582701D01*
X131358240Y-121417799D01*
X131160802Y-121214208D01*
X131110167Y-121160786D01*
X130987355Y-121036744D01*
X130844968Y-120902375D01*
X130695713Y-120768772D01*
X130552298Y-120647031D01*
X130427432Y-120548248D01*
X130335837Y-120484726D01*
X130281332Y-120446741D01*
X130238533Y-120401203D01*
X130206189Y-120340697D01*
X130183049Y-120257806D01*
X130167861Y-120145113D01*
X130159375Y-119995202D01*
X130156338Y-119800656D01*
X130157500Y-119554058D01*
X130158903Y-119435963D01*
X130162814Y-119182935D01*
X130168343Y-118984579D01*
X130177354Y-118833004D01*
X130191710Y-118720323D01*
X130213276Y-118638644D01*
X130243916Y-118580080D01*
X130285493Y-118536739D01*
X130339871Y-118500734D01*
X130385676Y-118476122D01*
X130458744Y-118428056D01*
X130564118Y-118345610D01*
X130690263Y-118239036D01*
X130825646Y-118118584D01*
X130958734Y-117994508D01*
X131077991Y-117877059D01*
X131168638Y-117780198D01*
X131361485Y-117573796D01*
X131565537Y-117378668D01*
X131766030Y-117208095D01*
X131948197Y-117075354D01*
X131962719Y-117066016D01*
X132091345Y-116978462D01*
X132178601Y-116902080D01*
X132239976Y-116821946D01*
X132267649Y-116772176D01*
X132379706Y-116587192D01*
X132503850Y-116456392D01*
X132648636Y-116371498D01*
X132701494Y-116352432D01*
X132813488Y-116320289D01*
X132889031Y-116312574D01*
X132934825Y-116337105D01*
G37*
D15*
%TO.C,TP6*%
X117700000Y-102500000D02*
G75*
G02*
X116300000Y-102500000I-700000J0D01*
G01*
X116300000Y-102500000D02*
G75*
G02*
X117700000Y-102500000I700000J0D01*
G01*
%TO.C,R4*%
X108412258Y-123727500D02*
X107937742Y-123727500D01*
X108412258Y-124772500D02*
X107937742Y-124772500D01*
%TO.C,C10*%
X112359420Y-114490000D02*
X112640580Y-114490000D01*
X112359420Y-115510000D02*
X112640580Y-115510000D01*
D17*
%TO.C,LED1*%
X118329000Y-126425599D02*
X121580200Y-126425599D01*
X121580200Y-123174399D02*
X118329000Y-123174399D01*
X121580200Y-123472802D02*
X121580200Y-123174399D01*
X121580200Y-126425599D02*
X121580200Y-126127196D01*
D15*
%TO.C,C12*%
X112134420Y-98820000D02*
X112415580Y-98820000D01*
X112134420Y-99840000D02*
X112415580Y-99840000D01*
D16*
%TO.C,J1*%
X106800000Y-129975000D02*
X106800000Y-130325000D01*
X106800000Y-132675000D02*
X106800000Y-132950000D01*
X106800000Y-132950000D02*
X114300000Y-132950000D01*
X108720000Y-128600000D02*
X108830000Y-128600000D01*
X112270000Y-128600000D02*
X112380000Y-128600000D01*
X114300000Y-129975000D02*
X114300000Y-130325000D01*
X114300000Y-132950000D02*
X114300000Y-132675000D01*
D20*
X109250000Y-127525000D02*
G75*
G02*
X109050000Y-127525000I-100000J0D01*
G01*
X109050000Y-127525000D02*
G75*
G02*
X109250000Y-127525000I100000J0D01*
G01*
D16*
%TO.C,U3*%
X95756200Y-119150000D02*
X95756200Y-120850000D01*
X95756200Y-119150000D02*
X95856200Y-119150000D01*
X95756200Y-120850000D02*
X95856200Y-120850000D01*
X98856200Y-119150000D02*
X98756200Y-119150000D01*
X98856200Y-119150000D02*
X98856200Y-120850000D01*
X98856200Y-120850000D02*
X98756200Y-120850000D01*
D14*
X96456200Y-122469000D02*
G75*
G02*
X96256200Y-122469000I-100000J0D01*
G01*
X96256200Y-122469000D02*
G75*
G02*
X96456200Y-122469000I100000J0D01*
G01*
%TO.C,SPI0*%
X58510000Y-126880000D02*
X68870000Y-126880000D01*
X58510000Y-129620000D02*
X58510000Y-126880000D01*
X68870000Y-126880000D02*
X68870000Y-129620000D01*
X68870000Y-129620000D02*
X58510000Y-129620000D01*
X68490000Y-127350000D02*
G75*
G02*
X68290000Y-127350000I-100000J0D01*
G01*
X68290000Y-127350000D02*
G75*
G02*
X68490000Y-127350000I100000J0D01*
G01*
D15*
%TO.C,TP3*%
X108200000Y-97500000D02*
G75*
G02*
X106800000Y-97500000I-700000J0D01*
G01*
X106800000Y-97500000D02*
G75*
G02*
X108200000Y-97500000I700000J0D01*
G01*
%TO.C,TP1*%
X107700000Y-119500000D02*
G75*
G02*
X106300000Y-119500000I-700000J0D01*
G01*
X106300000Y-119500000D02*
G75*
G02*
X107700000Y-119500000I700000J0D01*
G01*
%TO.C,C21*%
X109990000Y-101970580D02*
X109990000Y-101689420D01*
X111010000Y-101970580D02*
X111010000Y-101689420D01*
D16*
%TO.C,U5*%
X29000000Y-98370000D02*
X91740000Y-98370000D01*
X29000000Y-123770000D02*
X29000000Y-98370000D01*
X91740000Y-98370000D02*
X91740000Y-123770000D01*
X91740000Y-123770000D02*
X29000000Y-123770000D01*
D14*
X90442000Y-97354000D02*
G75*
G02*
X90242000Y-97354000I-100000J0D01*
G01*
X90242000Y-97354000D02*
G75*
G02*
X90442000Y-97354000I100000J0D01*
G01*
D15*
%TO.C,R9*%
X96477500Y-114487258D02*
X96477500Y-114012742D01*
X97522500Y-114487258D02*
X97522500Y-114012742D01*
D14*
%TO.C,I2C0*%
X63300000Y-93130000D02*
X73660000Y-93130000D01*
X63300000Y-95870000D02*
X63300000Y-93130000D01*
X73660000Y-93130000D02*
X73660000Y-95870000D01*
X73660000Y-95870000D02*
X63300000Y-95870000D01*
X73280000Y-93600000D02*
G75*
G02*
X73080000Y-93600000I-100000J0D01*
G01*
X73080000Y-93600000D02*
G75*
G02*
X73280000Y-93600000I100000J0D01*
G01*
D15*
%TO.C,C22*%
X109490000Y-114634420D02*
X109490000Y-114915580D01*
X110510000Y-114634420D02*
X110510000Y-114915580D01*
D16*
%TO.C,J5*%
X111690000Y-93230000D02*
X116770000Y-93230000D01*
X111690000Y-95770000D02*
X111690000Y-93230000D01*
X116770000Y-93230000D02*
X116770000Y-95770000D01*
X116770000Y-95770000D02*
X111690000Y-95770000D01*
D14*
X111230000Y-94500000D02*
G75*
G02*
X111030000Y-94500000I-100000J0D01*
G01*
X111030000Y-94500000D02*
G75*
G02*
X111230000Y-94500000I100000J0D01*
G01*
D17*
%TO.C,LED2*%
X98624400Y-112374400D02*
X98624400Y-112672803D01*
X98624400Y-115327197D02*
X98624400Y-115625600D01*
X98624400Y-115625600D02*
X101875600Y-115625600D01*
X101875600Y-112374400D02*
X98624400Y-112374400D01*
D15*
%TO.C,C8*%
X103915580Y-104990000D02*
X103634420Y-104990000D01*
X103915580Y-106010000D02*
X103634420Y-106010000D01*
%TO.C,C6*%
X81990000Y-94640580D02*
X81990000Y-94359420D01*
X83010000Y-94640580D02*
X83010000Y-94359420D01*
D14*
%TO.C,J6*%
X102630000Y-109205000D02*
X105370000Y-109205000D01*
X102630000Y-119565000D02*
X102630000Y-109205000D01*
X105370000Y-109205000D02*
X105370000Y-119565000D01*
X105370000Y-119565000D02*
X102630000Y-119565000D01*
X103200000Y-109685000D02*
G75*
G02*
X103000000Y-109685000I-100000J0D01*
G01*
X103000000Y-109685000D02*
G75*
G02*
X103200000Y-109685000I100000J0D01*
G01*
D15*
%TO.C,TP2*%
X88700000Y-95500000D02*
G75*
G02*
X87300000Y-95500000I-700000J0D01*
G01*
X87300000Y-95500000D02*
G75*
G02*
X88700000Y-95500000I700000J0D01*
G01*
D16*
%TO.C,U4*%
X106750000Y-105000000D02*
X106750000Y-105300000D01*
X106750000Y-105000000D02*
X107050000Y-105000000D01*
X106750000Y-112000000D02*
X106750000Y-111700000D01*
X106750000Y-112000000D02*
X107050000Y-112000000D01*
X113750000Y-105000000D02*
X113450000Y-105000000D01*
X113750000Y-105000000D02*
X113750000Y-105300000D01*
X113750000Y-112000000D02*
X113450000Y-112000000D01*
X113750000Y-112000000D02*
X113750000Y-111700000D01*
D14*
X113100000Y-104015000D02*
G75*
G02*
X112900000Y-104015000I-100000J0D01*
G01*
X112900000Y-104015000D02*
G75*
G02*
X113100000Y-104015000I100000J0D01*
G01*
%TO.C,UART0*%
X81320000Y-126880000D02*
X91680000Y-126880000D01*
X81320000Y-129620000D02*
X81320000Y-126880000D01*
X91680000Y-126880000D02*
X91680000Y-129620000D01*
X91680000Y-129620000D02*
X81320000Y-129620000D01*
X81900000Y-129150000D02*
G75*
G02*
X81700000Y-129150000I-100000J0D01*
G01*
X81700000Y-129150000D02*
G75*
G02*
X81900000Y-129150000I100000J0D01*
G01*
%TD*%
D21*
X35500000Y-89500000D02*
X137500000Y-89500000D01*
X137500000Y-134500000D01*
X35500000Y-134500000D01*
X35500000Y-89500000D01*
M02*
