%TF.GenerationSoftware,KiCad,Pcbnew,9.0.0*%
%TF.CreationDate,2025-05-10T16:39:55-04:00*%
%TF.ProjectId,HELPStat_V2,48454c50-5374-4617-945f-56322e6b6963,rev?*%
%TF.SameCoordinates,Original*%
%TF.FileFunction,Soldermask,Top*%
%TF.FilePolarity,Negative*%
%FSLAX46Y46*%
G04 Gerber Fmt 4.6, Leading zero omitted, Abs format (unit mm)*
G04 Created by KiCad (PCBNEW 9.0.0) date 2025-05-10 16:39:55*
%MOMM*%
%LPD*%
G01*
G04 APERTURE LIST*
G04 Aperture macros list*
%AMRoundRect*
0 Rectangle with rounded corners*
0 $1 Rounding radius*
0 $2 $3 $4 $5 $6 $7 $8 $9 X,Y pos of 4 corners*
0 Add a 4 corners polygon primitive as box body*
4,1,4,$2,$3,$4,$5,$6,$7,$8,$9,$2,$3,0*
0 Add four circle primitives for the rounded corners*
1,1,$1+$1,$2,$3*
1,1,$1+$1,$4,$5*
1,1,$1+$1,$6,$7*
1,1,$1+$1,$8,$9*
0 Add four rect primitives between the rounded corners*
20,1,$1+$1,$2,$3,$4,$5,0*
20,1,$1+$1,$4,$5,$6,$7,0*
20,1,$1+$1,$6,$7,$8,$9,0*
20,1,$1+$1,$8,$9,$2,$3,0*%
G04 Aperture macros list end*
%ADD10C,1.854000*%
%ADD11RoundRect,0.225000X-0.250000X0.225000X-0.250000X-0.225000X0.250000X-0.225000X0.250000X0.225000X0*%
%ADD12RoundRect,0.102000X0.802500X0.802500X-0.802500X0.802500X-0.802500X-0.802500X0.802500X-0.802500X0*%
%ADD13C,1.809000*%
%ADD14RoundRect,0.225000X0.250000X-0.225000X0.250000X0.225000X-0.250000X0.225000X-0.250000X-0.225000X0*%
%ADD15RoundRect,0.102000X0.787500X0.787500X-0.787500X0.787500X-0.787500X-0.787500X0.787500X-0.787500X0*%
%ADD16C,1.779000*%
%ADD17RoundRect,0.225000X0.225000X0.250000X-0.225000X0.250000X-0.225000X-0.250000X0.225000X-0.250000X0*%
%ADD18C,4.400000*%
%ADD19RoundRect,0.225000X-0.225000X-0.250000X0.225000X-0.250000X0.225000X0.250000X-0.225000X0.250000X0*%
%ADD20R,2.000000X2.000000*%
%ADD21C,1.000000*%
%ADD22RoundRect,0.200000X0.200000X0.275000X-0.200000X0.275000X-0.200000X-0.275000X0.200000X-0.275000X0*%
%ADD23R,1.320800X0.508000*%
%ADD24R,0.863600X0.558800*%
%ADD25RoundRect,0.102000X0.802500X-0.802500X0.802500X0.802500X-0.802500X0.802500X-0.802500X-0.802500X0*%
%ADD26RoundRect,0.102000X-0.315000X-0.415000X0.315000X-0.415000X0.315000X0.415000X-0.315000X0.415000X0*%
%ADD27RoundRect,0.200000X-0.200000X-0.275000X0.200000X-0.275000X0.200000X0.275000X-0.200000X0.275000X0*%
%ADD28R,1.752600X2.400000*%
%ADD29R,0.787400X2.006600*%
%ADD30RoundRect,0.102000X-0.200000X-0.675000X0.200000X-0.675000X0.200000X0.675000X-0.200000X0.675000X0*%
%ADD31RoundRect,0.102000X-1.050000X-0.800000X1.050000X-0.800000X1.050000X0.800000X-1.050000X0.800000X0*%
%ADD32RoundRect,0.102000X-0.900000X-0.950000X0.900000X-0.950000X0.900000X0.950000X-0.900000X0.950000X0*%
%ADD33RoundRect,0.102000X-0.950000X-0.950000X0.950000X-0.950000X0.950000X0.950000X-0.950000X0.950000X0*%
%ADD34RoundRect,0.060300X0.341700X-0.716700X0.341700X0.716700X-0.341700X0.716700X-0.341700X-0.716700X0*%
%ADD35RoundRect,0.102000X-0.765000X0.765000X-0.765000X-0.765000X0.765000X-0.765000X0.765000X0.765000X0*%
%ADD36C,1.734000*%
%ADD37RoundRect,0.200000X0.275000X-0.200000X0.275000X0.200000X-0.275000X0.200000X-0.275000X-0.200000X0*%
%ADD38RoundRect,0.102000X-0.802500X-0.802500X0.802500X-0.802500X0.802500X0.802500X-0.802500X0.802500X0*%
%ADD39RoundRect,0.058000X-0.174000X0.464000X-0.174000X-0.464000X0.174000X-0.464000X0.174000X0.464000X0*%
%ADD40RoundRect,0.058000X-0.464000X0.174000X-0.464000X-0.174000X0.464000X-0.174000X0.464000X0.174000X0*%
%ADD41RoundRect,0.102000X-2.550000X2.550000X-2.550000X-2.550000X2.550000X-2.550000X2.550000X2.550000X0*%
%TA.AperFunction,Profile*%
%ADD42C,0.050000*%
%TD*%
G04 APERTURE END LIST*
D10*
%TO.C,J8*%
X124000000Y-106040000D03*
X124000000Y-103500000D03*
X124000000Y-100960000D03*
X124000000Y-98420000D03*
%TD*%
D11*
%TO.C,C17*%
X117500000Y-129500000D03*
X117500000Y-131050000D03*
%TD*%
D12*
%TO.C,J4*%
X107770000Y-94500000D03*
D13*
X105230000Y-94500000D03*
%TD*%
D14*
%TO.C,C7*%
X80000000Y-95275000D03*
X80000000Y-93725000D03*
%TD*%
D15*
%TO.C,J2*%
X97250000Y-130975000D03*
D16*
X99750000Y-130975000D03*
%TD*%
D14*
%TO.C,C18*%
X108000000Y-102550000D03*
X108000000Y-101000000D03*
%TD*%
%TO.C,C9*%
X113000000Y-102550000D03*
X113000000Y-101000000D03*
%TD*%
D17*
%TO.C,C19*%
X109500000Y-99330000D03*
X107950000Y-99330000D03*
%TD*%
D18*
%TO.C,H4*%
X134000000Y-131000000D03*
%TD*%
D14*
%TO.C,C3*%
X100500000Y-120300000D03*
X100500000Y-118750000D03*
%TD*%
D19*
%TO.C,C11*%
X115725000Y-108500000D03*
X117275000Y-108500000D03*
%TD*%
D20*
%TO.C,CS0*%
X97000000Y-104500000D03*
%TD*%
D21*
%TO.C,TP4*%
X101000000Y-102500000D03*
%TD*%
D11*
%TO.C,C4*%
X94500000Y-113475000D03*
X94500000Y-115025000D03*
%TD*%
D14*
%TO.C,C5*%
X85000000Y-95275000D03*
X85000000Y-93725000D03*
%TD*%
D18*
%TO.C,H2*%
X132500000Y-92500000D03*
%TD*%
D22*
%TO.C,R8*%
X125325000Y-123500000D03*
X123675000Y-123500000D03*
%TD*%
D11*
%TO.C,C20*%
X108000000Y-114000000D03*
X108000000Y-115550000D03*
%TD*%
D23*
%TO.C,U2*%
X120159200Y-127849998D03*
X120159200Y-128799999D03*
X120159200Y-129750000D03*
X122750000Y-129750000D03*
X122750000Y-127849998D03*
%TD*%
D24*
%TO.C,MOSFET1*%
X104693800Y-123950001D03*
X104693800Y-122049999D03*
X102306200Y-123000000D03*
%TD*%
D25*
%TO.C,J3*%
X124000000Y-112770000D03*
D13*
X124000000Y-110230000D03*
%TD*%
D26*
%TO.C,D1*%
X109500000Y-122000000D03*
X107200000Y-122000000D03*
%TD*%
D27*
%TO.C,R7*%
X123675000Y-125500000D03*
X125325000Y-125500000D03*
%TD*%
D18*
%TO.C,H1*%
X40000000Y-92500000D03*
%TD*%
D10*
%TO.C,J7*%
X120250000Y-112190000D03*
X120250000Y-114730000D03*
X120250000Y-117270000D03*
X120250000Y-119810000D03*
%TD*%
D21*
%TO.C,TP5*%
X114000000Y-117000000D03*
%TD*%
%TO.C,TP6*%
X117000000Y-102500000D03*
%TD*%
D22*
%TO.C,R4*%
X109000000Y-124250000D03*
X107350000Y-124250000D03*
%TD*%
D19*
%TO.C,C10*%
X111725000Y-115000000D03*
X113275000Y-115000000D03*
%TD*%
D28*
%TO.C,LED1*%
X119281500Y-124799999D03*
D29*
X121110300Y-124799999D03*
%TD*%
D19*
%TO.C,C12*%
X111500000Y-99330000D03*
X113050000Y-99330000D03*
%TD*%
D30*
%TO.C,J1*%
X109250000Y-128825000D03*
X109900000Y-128825000D03*
X110550000Y-128825000D03*
X111200000Y-128825000D03*
X111850000Y-128825000D03*
D31*
X107450000Y-128950000D03*
X113650000Y-128950000D03*
D32*
X106750000Y-131500000D03*
D33*
X109350000Y-131500000D03*
X111750000Y-131500000D03*
D32*
X114350000Y-131500000D03*
%TD*%
D34*
%TO.C,U3*%
X96356200Y-121185000D03*
X97306200Y-121185000D03*
X98256200Y-121185000D03*
X98256200Y-118815000D03*
X96356200Y-118815000D03*
%TD*%
D10*
%TO.C,SPI0*%
X67500000Y-128250000D03*
X64960000Y-128250000D03*
X62420000Y-128250000D03*
X59880000Y-128250000D03*
%TD*%
D21*
%TO.C,TP3*%
X107500000Y-97500000D03*
%TD*%
%TO.C,TP1*%
X107000000Y-119500000D03*
%TD*%
D14*
%TO.C,C21*%
X110500000Y-102605000D03*
X110500000Y-101055000D03*
%TD*%
D35*
%TO.C,U5*%
X90340000Y-99640000D03*
D36*
X87800000Y-99640000D03*
X85260000Y-99640000D03*
X82720000Y-99640000D03*
X80180000Y-99640000D03*
X77640000Y-99640000D03*
X75100000Y-99640000D03*
X72560000Y-99640000D03*
X70020000Y-99640000D03*
X67480000Y-99640000D03*
X64940000Y-99640000D03*
X62400000Y-99640000D03*
X59860000Y-99640000D03*
X57320000Y-99640000D03*
X54780000Y-99640000D03*
X52240000Y-99640000D03*
X49700000Y-99640000D03*
X47160000Y-99640000D03*
X44620000Y-99640000D03*
X42080000Y-99640000D03*
X39540000Y-99640000D03*
X37000000Y-99640000D03*
X90340000Y-122500000D03*
X87800000Y-122500000D03*
X85260000Y-122500000D03*
X82720000Y-122500000D03*
X80180000Y-122500000D03*
X77640000Y-122500000D03*
X75100000Y-122500000D03*
X72560000Y-122500000D03*
X70020000Y-122500000D03*
X67480000Y-122500000D03*
X64940000Y-122500000D03*
X62400000Y-122500000D03*
X59860000Y-122500000D03*
X57320000Y-122500000D03*
X54780000Y-122500000D03*
X52240000Y-122500000D03*
X49700000Y-122500000D03*
X47160000Y-122500000D03*
X44620000Y-122500000D03*
X42080000Y-122500000D03*
X39540000Y-122500000D03*
X37000000Y-122500000D03*
%TD*%
D37*
%TO.C,R9*%
X97000000Y-115075000D03*
X97000000Y-113425000D03*
%TD*%
D18*
%TO.C,H3*%
X39000000Y-131000000D03*
%TD*%
D10*
%TO.C,I2C0*%
X72290000Y-94500000D03*
X69750000Y-94500000D03*
X67210000Y-94500000D03*
X64670000Y-94500000D03*
%TD*%
D11*
%TO.C,C22*%
X110000000Y-114000000D03*
X110000000Y-115550000D03*
%TD*%
D38*
%TO.C,J5*%
X112960000Y-94500000D03*
D13*
X115500000Y-94500000D03*
%TD*%
D28*
%TO.C,LED2*%
X100923100Y-114000000D03*
D29*
X99094300Y-114000000D03*
%TD*%
D17*
%TO.C,C8*%
X104550000Y-105500000D03*
X103000000Y-105500000D03*
%TD*%
D14*
%TO.C,C6*%
X82500000Y-95275000D03*
X82500000Y-93725000D03*
%TD*%
D10*
%TO.C,J6*%
X104000000Y-110575000D03*
X104000000Y-113115000D03*
X104000000Y-115655000D03*
X104000000Y-118195000D03*
%TD*%
D21*
%TO.C,TP2*%
X88000000Y-95500000D03*
%TD*%
D39*
%TO.C,U4*%
X113000000Y-105055000D03*
X112500000Y-105055000D03*
X112000000Y-105055000D03*
X111500000Y-105055000D03*
X111000000Y-105055000D03*
X110500000Y-105055000D03*
X110000000Y-105055000D03*
X109500000Y-105055000D03*
X109000000Y-105055000D03*
X108500000Y-105055000D03*
X108000000Y-105055000D03*
X107500000Y-105055000D03*
D40*
X106805000Y-105750000D03*
X106805000Y-106250000D03*
X106805000Y-106750000D03*
X106805000Y-107250000D03*
X106805000Y-107750000D03*
X106805000Y-108250000D03*
X106805000Y-108750000D03*
X106805000Y-109250000D03*
X106805000Y-109750000D03*
X106805000Y-110250000D03*
X106805000Y-110750000D03*
X106805000Y-111250000D03*
D39*
X107500000Y-111945000D03*
X108000000Y-111945000D03*
X108500000Y-111945000D03*
X109000000Y-111945000D03*
X109500000Y-111945000D03*
X110000000Y-111945000D03*
X110500000Y-111945000D03*
X111000000Y-111945000D03*
X111500000Y-111945000D03*
X112000000Y-111945000D03*
X112500000Y-111945000D03*
X113000000Y-111945000D03*
D40*
X113695000Y-111250000D03*
X113695000Y-110750000D03*
X113695000Y-110250000D03*
X113695000Y-109750000D03*
X113695000Y-109250000D03*
X113695000Y-108750000D03*
X113695000Y-108250000D03*
X113695000Y-107750000D03*
X113695000Y-107250000D03*
X113695000Y-106750000D03*
X113695000Y-106250000D03*
X113695000Y-105750000D03*
D41*
X110250000Y-108500000D03*
%TD*%
D10*
%TO.C,UART0*%
X82690000Y-128250000D03*
X85230000Y-128250000D03*
X87770000Y-128250000D03*
X90310000Y-128250000D03*
%TD*%
D42*
X35500000Y-89500000D02*
X137500000Y-89500000D01*
X137500000Y-134500000D01*
X35500000Y-134500000D01*
X35500000Y-89500000D01*
M02*
