%TF.GenerationSoftware,KiCad,Pcbnew,9.0.0*%
%TF.CreationDate,2025-05-10T16:39:55-04:00*%
%TF.ProjectId,HELPStat_V2,48454c50-5374-4617-945f-56322e6b6963,rev?*%
%TF.SameCoordinates,Original*%
%TF.FileFunction,Copper,L2,Bot*%
%TF.FilePolarity,Positive*%
%FSLAX46Y46*%
G04 Gerber Fmt 4.6, Leading zero omitted, Abs format (unit mm)*
G04 Created by KiCad (PCBNEW 9.0.0) date 2025-05-10 16:39:55*
%MOMM*%
%LPD*%
G01*
G04 APERTURE LIST*
%TA.AperFunction,ComponentPad*%
%ADD10C,1.650000*%
%TD*%
%TA.AperFunction,ComponentPad*%
%ADD11R,1.605000X1.605000*%
%TD*%
%TA.AperFunction,ComponentPad*%
%ADD12C,1.605000*%
%TD*%
%TA.AperFunction,ComponentPad*%
%ADD13R,1.575000X1.575000*%
%TD*%
%TA.AperFunction,ComponentPad*%
%ADD14C,1.575000*%
%TD*%
%TA.AperFunction,ComponentPad*%
%ADD15C,4.400000*%
%TD*%
%TA.AperFunction,ComponentPad*%
%ADD16R,1.530000X1.530000*%
%TD*%
%TA.AperFunction,ComponentPad*%
%ADD17C,1.530000*%
%TD*%
%TA.AperFunction,ViaPad*%
%ADD18C,0.600000*%
%TD*%
%TA.AperFunction,Conductor*%
%ADD19C,0.200000*%
%TD*%
%TA.AperFunction,Profile*%
%ADD20C,0.050000*%
%TD*%
G04 APERTURE END LIST*
D10*
%TO.P,J8,4,4*%
%TO.N,/WE*%
X124000000Y-106040000D03*
%TO.P,J8,3,3*%
%TO.N,/DE*%
X124000000Y-103500000D03*
%TO.P,J8,2,2*%
%TO.N,/CE*%
X124000000Y-100960000D03*
%TO.P,J8,1,1*%
%TO.N,/RE*%
X124000000Y-98420000D03*
%TD*%
D11*
%TO.P,J4,1,1*%
%TO.N,/XTAL.I*%
X107770000Y-94500000D03*
D12*
%TO.P,J4,2,2*%
%TO.N,/XTAL.O*%
X105230000Y-94500000D03*
%TD*%
D13*
%TO.P,J2,1,1*%
%TO.N,GND*%
X97250000Y-130975000D03*
D14*
%TO.P,J2,2,2*%
%TO.N,VLIPO*%
X99750000Y-130975000D03*
%TD*%
D15*
%TO.P,H4,1*%
%TO.N,N/C*%
X134000000Y-131000000D03*
%TD*%
%TO.P,H2,1*%
%TO.N,N/C*%
X132500000Y-92500000D03*
%TD*%
D11*
%TO.P,J3,1,1*%
%TO.N,/RCAL0*%
X124000000Y-112770000D03*
D12*
%TO.P,J3,2,2*%
%TO.N,/RCAL1*%
X124000000Y-110230000D03*
%TD*%
D15*
%TO.P,H1,1*%
%TO.N,N/C*%
X40000000Y-92500000D03*
%TD*%
D10*
%TO.P,J7,1,1*%
%TO.N,/AIN4*%
X120250000Y-112190000D03*
%TO.P,J7,2,2*%
%TO.N,/AIN3*%
X120250000Y-114730000D03*
%TO.P,J7,3,3*%
%TO.N,/AFE2*%
X120250000Y-117270000D03*
%TO.P,J7,4,4*%
%TO.N,/AFE1*%
X120250000Y-119810000D03*
%TD*%
%TO.P,SPI0,1,1*%
%TO.N,/CS.SPI*%
X67500000Y-128250000D03*
%TO.P,SPI0,2,2*%
%TO.N,/MISO*%
X64960000Y-128250000D03*
%TO.P,SPI0,3,3*%
%TO.N,/SCLK*%
X62420000Y-128250000D03*
%TO.P,SPI0,4,4*%
%TO.N,/MOSI*%
X59880000Y-128250000D03*
%TD*%
D16*
%TO.P,U5,J1_1,3V3*%
%TO.N,3.3V*%
X90340000Y-99640000D03*
D17*
%TO.P,U5,J1_2,3V3*%
X87800000Y-99640000D03*
%TO.P,U5,J1_3,RST*%
%TO.N,/MCU.RST*%
X85260000Y-99640000D03*
%TO.P,U5,J1_4,GPIO4*%
%TO.N,unconnected-(U5-GPIO4-PadJ1_4)*%
X82720000Y-99640000D03*
%TO.P,U5,J1_5,GPIO5*%
%TO.N,unconnected-(U5-GPIO5-PadJ1_5)*%
X80180000Y-99640000D03*
%TO.P,U5,J1_6,GPIO6*%
%TO.N,/SDA{slash}6{slash}CH0*%
X77640000Y-99640000D03*
%TO.P,U5,J1_7,GPIO7*%
%TO.N,/SCL{slash}7{slash}CH1*%
X75100000Y-99640000D03*
%TO.P,U5,J1_8,GPIO15*%
%TO.N,unconnected-(U5-GPIO15-PadJ1_8)*%
X72560000Y-99640000D03*
%TO.P,U5,J1_9,GPIO16*%
%TO.N,unconnected-(U5-GPIO16-PadJ1_9)*%
X70020000Y-99640000D03*
%TO.P,U5,J1_10,GPIO17*%
%TO.N,unconnected-(U5-GPIO17-PadJ1_10)*%
X67480000Y-99640000D03*
%TO.P,U5,J1_11,GPIO18*%
%TO.N,unconnected-(U5-GPIO18-PadJ1_11)*%
X64940000Y-99640000D03*
%TO.P,U5,J1_12,GPIO8*%
%TO.N,unconnected-(U5-GPIO8-PadJ1_12)*%
X62400000Y-99640000D03*
%TO.P,U5,J1_13,GPIO3*%
%TO.N,unconnected-(U5-GPIO3-PadJ1_13)*%
X59860000Y-99640000D03*
%TO.P,U5,J1_14,GPIO46*%
%TO.N,unconnected-(U5-GPIO46-PadJ1_14)*%
X57320000Y-99640000D03*
%TO.P,U5,J1_15,GPIO9*%
%TO.N,/GPIO.0*%
X54780000Y-99640000D03*
%TO.P,U5,J1_16,GPIO10*%
%TO.N,/AFE.RST*%
X52240000Y-99640000D03*
%TO.P,U5,J1_17,GPIO11*%
%TO.N,/CS.AFE*%
X49700000Y-99640000D03*
%TO.P,U5,J1_18,GPIO12*%
%TO.N,unconnected-(U5-GPIO12-PadJ1_18)*%
X47160000Y-99640000D03*
%TO.P,U5,J1_19,GPIO13*%
%TO.N,unconnected-(U5-GPIO13-PadJ1_19)*%
X44620000Y-99640000D03*
%TO.P,U5,J1_20,GPIO14*%
%TO.N,unconnected-(U5-GPIO14-PadJ1_20)*%
X42080000Y-99640000D03*
%TO.P,U5,J1_21,5V0*%
%TO.N,unconnected-(U5-5V0-PadJ1_21)*%
X39540000Y-99640000D03*
%TO.P,U5,J1_22,GND*%
%TO.N,GND*%
X37000000Y-99640000D03*
%TO.P,U5,J3_1,GND*%
X90340000Y-122500000D03*
%TO.P,U5,J3_2,U0TXD/GPIO43*%
%TO.N,/TX*%
X87800000Y-122500000D03*
%TO.P,U5,J3_3,U0RXD/GPIO44*%
%TO.N,/RX*%
X85260000Y-122500000D03*
%TO.P,U5,J3_4,GPIO1*%
%TO.N,unconnected-(U5-GPIO1-PadJ3_4)*%
X82720000Y-122500000D03*
%TO.P,U5,J3_5,GPIO2*%
%TO.N,unconnected-(U5-GPIO2-PadJ3_5)*%
X80180000Y-122500000D03*
%TO.P,U5,J3_6,MTMS/GPIO42*%
%TO.N,unconnected-(U5-MTMS{slash}GPIO42-PadJ3_6)*%
X77640000Y-122500000D03*
%TO.P,U5,J3_7,MTDI/GPIO41*%
%TO.N,unconnected-(U5-MTDI{slash}GPIO41-PadJ3_7)*%
X75100000Y-122500000D03*
%TO.P,U5,J3_8,MTDO/GPIO40*%
%TO.N,unconnected-(U5-MTDO{slash}GPIO40-PadJ3_8)*%
X72560000Y-122500000D03*
%TO.P,U5,J3_9,MTCK/GPIO39*%
%TO.N,unconnected-(U5-MTCK{slash}GPIO39-PadJ3_9)*%
X70020000Y-122500000D03*
%TO.P,U5,J3_10,GPIO38*%
%TO.N,/CS.SPI*%
X67480000Y-122500000D03*
%TO.P,U5,J3_11,GPIO37*%
%TO.N,/MISO*%
X64940000Y-122500000D03*
%TO.P,U5,J3_12,GPIO36*%
%TO.N,/SCLK*%
X62400000Y-122500000D03*
%TO.P,U5,J3_13,GPIO35*%
%TO.N,/MOSI*%
X59860000Y-122500000D03*
%TO.P,U5,J3_14,GPIO0*%
%TO.N,/BOOT*%
X57320000Y-122500000D03*
%TO.P,U5,J3_15,GPIO45*%
%TO.N,unconnected-(U5-GPIO45-PadJ3_15)*%
X54780000Y-122500000D03*
%TO.P,U5,J3_16,GPIO48*%
%TO.N,unconnected-(U5-GPIO48-PadJ3_16)*%
X52240000Y-122500000D03*
%TO.P,U5,J3_17,GPIO47*%
%TO.N,unconnected-(U5-GPIO47-PadJ3_17)*%
X49700000Y-122500000D03*
%TO.P,U5,J3_18,GPIO21*%
%TO.N,/CS.SD*%
X47160000Y-122500000D03*
%TO.P,U5,J3_19,USB_D+/GPIO20*%
%TO.N,/USB_P*%
X44620000Y-122500000D03*
%TO.P,U5,J3_20,USB_D-/GPIO19*%
%TO.N,/USB_N*%
X42080000Y-122500000D03*
%TO.P,U5,J3_21,GND*%
%TO.N,GND*%
X39540000Y-122500000D03*
%TO.P,U5,J3_22,GND*%
X37000000Y-122500000D03*
%TD*%
D15*
%TO.P,H3,1*%
%TO.N,N/C*%
X39000000Y-131000000D03*
%TD*%
D10*
%TO.P,I2C0,1,1*%
%TO.N,3.3V*%
X72290000Y-94500000D03*
%TO.P,I2C0,2,2*%
%TO.N,/SDA{slash}6{slash}CH0*%
X69750000Y-94500000D03*
%TO.P,I2C0,3,3*%
%TO.N,/SCL{slash}7{slash}CH1*%
X67210000Y-94500000D03*
%TO.P,I2C0,4,4*%
%TO.N,GND*%
X64670000Y-94500000D03*
%TD*%
D11*
%TO.P,J5,1,1*%
%TO.N,/RC0.0*%
X112960000Y-94500000D03*
D12*
%TO.P,J5,2,2*%
%TO.N,/RC0.1*%
X115500000Y-94500000D03*
%TD*%
D10*
%TO.P,J6,1,1*%
%TO.N,/GPIO.0*%
X104000000Y-110575000D03*
%TO.P,J6,2,2*%
%TO.N,/GPIO.1*%
X104000000Y-113115000D03*
%TO.P,J6,3,3*%
%TO.N,/GPIO.2*%
X104000000Y-115655000D03*
%TO.P,J6,4,4*%
%TO.N,/AFE.RST*%
X104000000Y-118195000D03*
%TD*%
%TO.P,UART0,1,1*%
%TO.N,3.3V*%
X82690000Y-128250000D03*
%TO.P,UART0,2,2*%
%TO.N,/RX*%
X85230000Y-128250000D03*
%TO.P,UART0,3,3*%
%TO.N,/TX*%
X87770000Y-128250000D03*
%TO.P,UART0,4,4*%
%TO.N,GND*%
X90310000Y-128250000D03*
%TD*%
D18*
%TO.N,GND*%
X117500000Y-133500000D03*
X112000000Y-126500000D03*
X101000000Y-116500000D03*
X118500000Y-128000000D03*
X107000000Y-113000000D03*
X119000000Y-109000000D03*
X124500000Y-127000000D03*
X94500000Y-116000000D03*
X101500000Y-105000000D03*
X106500000Y-99000000D03*
X61500000Y-96250000D03*
X93500000Y-131000000D03*
X97500000Y-120000000D03*
X106000000Y-124000000D03*
X110500000Y-97500000D03*
%TO.N,3.3V*%
X94000000Y-119500000D03*
X100500000Y-109000000D03*
X110000000Y-104000000D03*
%TO.N,/SCLK*%
X77500000Y-107000000D03*
%TO.N,/AFE.RST*%
X98591054Y-111000000D03*
%TO.N,/CS.AFE*%
X51780000Y-101720000D03*
%TO.N,/USB_P*%
X45500000Y-125000000D03*
%TO.N,/GPIO.0*%
X99500000Y-110000000D03*
%TO.N,/USB_N*%
X110000000Y-126000000D03*
X105500000Y-126000000D03*
%TO.N,VLIPO*%
X114500000Y-127000000D03*
X102306200Y-125000000D03*
X102500000Y-128500000D03*
%TO.N,/REF.2V5*%
X114000000Y-102000000D03*
X115500000Y-102500000D03*
%TO.N,/ZERO.0*%
X103000000Y-102500000D03*
X107000000Y-102500000D03*
%TO.N,/RCAL0*%
X112500000Y-114000000D03*
%TO.N,/RCAL1*%
X114000000Y-113733499D03*
%TD*%
D19*
%TO.N,3.3V*%
X82690000Y-128250000D02*
X84440000Y-130000000D01*
X100500000Y-106000000D02*
X98500000Y-104000000D01*
X84440000Y-130000000D02*
X91250000Y-130000000D01*
X98500000Y-104000000D02*
X110000000Y-104000000D01*
X98500000Y-104000000D02*
X94140000Y-99640000D01*
X91250000Y-130000000D02*
X94000000Y-127250000D01*
X94000000Y-127250000D02*
X94000000Y-119500000D01*
X94140000Y-99640000D02*
X90340000Y-99640000D01*
X100500000Y-109000000D02*
X100500000Y-106000000D01*
%TO.N,/MOSI*%
X59860000Y-122500000D02*
X59860000Y-128230000D01*
X59860000Y-128230000D02*
X59880000Y-128250000D01*
%TO.N,/CS.SPI*%
X67500000Y-128250000D02*
X67500000Y-122520000D01*
X67500000Y-122520000D02*
X67480000Y-122500000D01*
%TO.N,/SCLK*%
X62420000Y-122520000D02*
X62400000Y-122500000D01*
X62420000Y-128250000D02*
X62420000Y-122520000D01*
X62400000Y-122500000D02*
X77500000Y-107400000D01*
X77500000Y-107400000D02*
X77500000Y-107000000D01*
%TO.N,/MISO*%
X64960000Y-128250000D02*
X64960000Y-122520000D01*
X64960000Y-122520000D02*
X64940000Y-122500000D01*
%TO.N,/TX*%
X87770000Y-122530000D02*
X87800000Y-122500000D01*
X87770000Y-128250000D02*
X87770000Y-122530000D01*
%TO.N,/AFE.RST*%
X98591054Y-111000000D02*
X83500000Y-111000000D01*
X55600000Y-103000000D02*
X52240000Y-99640000D01*
X75500000Y-103000000D02*
X55600000Y-103000000D01*
X83500000Y-111000000D02*
X75500000Y-103000000D01*
%TO.N,/CS.AFE*%
X51780000Y-101720000D02*
X49700000Y-99640000D01*
%TO.N,/USB_P*%
X44620000Y-124120000D02*
X44620000Y-122500000D01*
X45500000Y-125000000D02*
X44620000Y-124120000D01*
%TO.N,/GPIO.0*%
X57140000Y-102000000D02*
X54780000Y-99640000D01*
X99500000Y-110000000D02*
X84000000Y-110000000D01*
X76000000Y-102000000D02*
X57140000Y-102000000D01*
X84000000Y-110000000D02*
X76000000Y-102000000D01*
%TO.N,/RX*%
X85230000Y-128250000D02*
X85230000Y-122530000D01*
X85230000Y-122530000D02*
X85260000Y-122500000D01*
%TO.N,/USB_N*%
X109742639Y-125742639D02*
X105757361Y-125742639D01*
X110000000Y-126000000D02*
X109742639Y-125742639D01*
X105757361Y-125742639D02*
X105500000Y-126000000D01*
%TO.N,VLIPO*%
X114500000Y-127000000D02*
X104500000Y-127000000D01*
X104500000Y-127000000D02*
X104000000Y-127000000D01*
X104000000Y-127000000D02*
X102306200Y-125306200D01*
X102306200Y-125306200D02*
X102306200Y-125000000D01*
X104000000Y-127000000D02*
X102500000Y-128500000D01*
%TO.N,/REF.2V5*%
X115500000Y-102500000D02*
X114500000Y-102500000D01*
X114500000Y-102500000D02*
X114000000Y-102000000D01*
%TO.N,/ZERO.0*%
X103000000Y-102500000D02*
X107000000Y-102500000D01*
%TO.N,/RCAL0*%
X120526000Y-116244000D02*
X114744000Y-116244000D01*
X124000000Y-112770000D02*
X120526000Y-116244000D01*
X114744000Y-116244000D02*
X112500000Y-114000000D01*
%TO.N,/RCAL1*%
X114000000Y-113733499D02*
X117503499Y-110230000D01*
X117503499Y-110230000D02*
X124000000Y-110230000D01*
%TD*%
%TA.AperFunction,Conductor*%
%TO.N,GND*%
G36*
X135541177Y-89545185D02*
G01*
X135561819Y-89561819D01*
X137438181Y-91438181D01*
X137471666Y-91499504D01*
X137474500Y-91525862D01*
X137474500Y-132474138D01*
X137454815Y-132541177D01*
X137438181Y-132561819D01*
X135561819Y-134438181D01*
X135500496Y-134471666D01*
X135474138Y-134474500D01*
X37525862Y-134474500D01*
X37458823Y-134454815D01*
X37438181Y-134438181D01*
X35561819Y-132561819D01*
X35528334Y-132500496D01*
X35525500Y-132474138D01*
X35525500Y-130848336D01*
X36299500Y-130848336D01*
X36299500Y-131151663D01*
X36333457Y-131453048D01*
X36333459Y-131453060D01*
X36333460Y-131453063D01*
X36344173Y-131500000D01*
X36400953Y-131748771D01*
X36400957Y-131748783D01*
X36501133Y-132035068D01*
X36632733Y-132308338D01*
X36632735Y-132308341D01*
X36794108Y-132565164D01*
X36983221Y-132802304D01*
X37197696Y-133016779D01*
X37434836Y-133205892D01*
X37691659Y-133367265D01*
X37964935Y-133498868D01*
X38179951Y-133574105D01*
X38251216Y-133599042D01*
X38251228Y-133599046D01*
X38546937Y-133666540D01*
X38546946Y-133666541D01*
X38546951Y-133666542D01*
X38747874Y-133689180D01*
X38848337Y-133700499D01*
X38848340Y-133700500D01*
X38848343Y-133700500D01*
X39151660Y-133700500D01*
X39151661Y-133700499D01*
X39305694Y-133683144D01*
X39453048Y-133666542D01*
X39453051Y-133666541D01*
X39453063Y-133666540D01*
X39748772Y-133599046D01*
X40035065Y-133498868D01*
X40308341Y-133367265D01*
X40565164Y-133205892D01*
X40802304Y-133016779D01*
X41016779Y-132802304D01*
X41205892Y-132565164D01*
X41367265Y-132308341D01*
X41498868Y-132035065D01*
X41599046Y-131748772D01*
X41666540Y-131453063D01*
X41666542Y-131453048D01*
X41699588Y-131159755D01*
X41699588Y-131159754D01*
X41700499Y-131151663D01*
X41700500Y-131151657D01*
X41700500Y-130848343D01*
X41672575Y-130600500D01*
X41666542Y-130546951D01*
X41666541Y-130546946D01*
X41666540Y-130546937D01*
X41599046Y-130251228D01*
X41498868Y-129964935D01*
X41367265Y-129691659D01*
X41205892Y-129434836D01*
X41016779Y-129197696D01*
X40802304Y-128983221D01*
X40565164Y-128794108D01*
X40308341Y-128632735D01*
X40308338Y-128632733D01*
X40035068Y-128501133D01*
X39748783Y-128400957D01*
X39748771Y-128400953D01*
X39520556Y-128348864D01*
X39453063Y-128333460D01*
X39453060Y-128333459D01*
X39453048Y-128333457D01*
X39151663Y-128299500D01*
X39151657Y-128299500D01*
X38848343Y-128299500D01*
X38848336Y-128299500D01*
X38546951Y-128333457D01*
X38546937Y-128333460D01*
X38251228Y-128400953D01*
X38251216Y-128400957D01*
X37964931Y-128501133D01*
X37691661Y-128632733D01*
X37434837Y-128794107D01*
X37197696Y-128983220D01*
X36983220Y-129197696D01*
X36794107Y-129434837D01*
X36632733Y-129691661D01*
X36501133Y-129964931D01*
X36400957Y-130251216D01*
X36400953Y-130251228D01*
X36333460Y-130546937D01*
X36333457Y-130546951D01*
X36299500Y-130848336D01*
X35525500Y-130848336D01*
X35525500Y-122838489D01*
X35545185Y-122771450D01*
X35597989Y-122725695D01*
X35667147Y-122715751D01*
X35730703Y-122744776D01*
X35767431Y-122800171D01*
X35827679Y-122985594D01*
X35918077Y-123163008D01*
X35945580Y-123200863D01*
X35945581Y-123200864D01*
X36508871Y-122637574D01*
X36524755Y-122696853D01*
X36591898Y-122813147D01*
X36686853Y-122908102D01*
X36803147Y-122975245D01*
X36862425Y-122991128D01*
X36299134Y-123554417D01*
X36336994Y-123581924D01*
X36514405Y-123672320D01*
X36703777Y-123733852D01*
X36900437Y-123765000D01*
X37099563Y-123765000D01*
X37296222Y-123733852D01*
X37485594Y-123672320D01*
X37663005Y-123581924D01*
X37700863Y-123554418D01*
X37700863Y-123554417D01*
X37137574Y-122991128D01*
X37196853Y-122975245D01*
X37313147Y-122908102D01*
X37408102Y-122813147D01*
X37475245Y-122696853D01*
X37491128Y-122637574D01*
X38054417Y-123200863D01*
X38054418Y-123200863D01*
X38081924Y-123163005D01*
X38159515Y-123010727D01*
X38207490Y-122959931D01*
X38275311Y-122943136D01*
X38341446Y-122965674D01*
X38380485Y-123010727D01*
X38458077Y-123163008D01*
X38485580Y-123200863D01*
X38485581Y-123200864D01*
X39048871Y-122637574D01*
X39064755Y-122696853D01*
X39131898Y-122813147D01*
X39226853Y-122908102D01*
X39343147Y-122975245D01*
X39402425Y-122991128D01*
X38839134Y-123554417D01*
X38876994Y-123581924D01*
X39054405Y-123672320D01*
X39243777Y-123733852D01*
X39440437Y-123765000D01*
X39639563Y-123765000D01*
X39836222Y-123733852D01*
X40025594Y-123672320D01*
X40203005Y-123581924D01*
X40240863Y-123554418D01*
X40240863Y-123554417D01*
X39677574Y-122991128D01*
X39736853Y-122975245D01*
X39853147Y-122908102D01*
X39948102Y-122813147D01*
X40015245Y-122696853D01*
X40031128Y-122637574D01*
X40594417Y-123200863D01*
X40594418Y-123200863D01*
X40621924Y-123163005D01*
X40699234Y-123011277D01*
X40747208Y-122960481D01*
X40815029Y-122943686D01*
X40881164Y-122966223D01*
X40920204Y-123011277D01*
X40997514Y-123163005D01*
X40997647Y-123163266D01*
X41114731Y-123324418D01*
X41255582Y-123465269D01*
X41416734Y-123582353D01*
X41587456Y-123669340D01*
X41594219Y-123672786D01*
X41783657Y-123734338D01*
X41783658Y-123734338D01*
X41783661Y-123734339D01*
X41980403Y-123765500D01*
X41980404Y-123765500D01*
X42179596Y-123765500D01*
X42179597Y-123765500D01*
X42376339Y-123734339D01*
X42376342Y-123734338D01*
X42376343Y-123734338D01*
X42565780Y-123672786D01*
X42565780Y-123672785D01*
X42565783Y-123672785D01*
X42743266Y-123582353D01*
X42904418Y-123465269D01*
X43045269Y-123324418D01*
X43162353Y-123163266D01*
X43239515Y-123011827D01*
X43287490Y-122961031D01*
X43355311Y-122944236D01*
X43421446Y-122966773D01*
X43460485Y-123011827D01*
X43537647Y-123163266D01*
X43654731Y-123324418D01*
X43795582Y-123465269D01*
X43956734Y-123582353D01*
X43956744Y-123582358D01*
X43960273Y-123584520D01*
X44007157Y-123636325D01*
X44019500Y-123690258D01*
X44019500Y-124033330D01*
X44019499Y-124033348D01*
X44019499Y-124199054D01*
X44019498Y-124199054D01*
X44060424Y-124351787D01*
X44073536Y-124374497D01*
X44073537Y-124374499D01*
X44139477Y-124488712D01*
X44139481Y-124488717D01*
X44258349Y-124607585D01*
X44258355Y-124607590D01*
X44665425Y-125014660D01*
X44698910Y-125075983D01*
X44699361Y-125078149D01*
X44730261Y-125233491D01*
X44730264Y-125233501D01*
X44790602Y-125379172D01*
X44790609Y-125379185D01*
X44878210Y-125510288D01*
X44878213Y-125510292D01*
X44989707Y-125621786D01*
X44989711Y-125621789D01*
X45120814Y-125709390D01*
X45120827Y-125709397D01*
X45258683Y-125766498D01*
X45266503Y-125769737D01*
X45402220Y-125796733D01*
X45421153Y-125800499D01*
X45421156Y-125800500D01*
X45421158Y-125800500D01*
X45578844Y-125800500D01*
X45578845Y-125800499D01*
X45733497Y-125769737D01*
X45879179Y-125709394D01*
X46010289Y-125621789D01*
X46121789Y-125510289D01*
X46209394Y-125379179D01*
X46269737Y-125233497D01*
X46300500Y-125078842D01*
X46300500Y-124921158D01*
X46300500Y-124921155D01*
X46300499Y-124921153D01*
X46269738Y-124766510D01*
X46269737Y-124766503D01*
X46269735Y-124766498D01*
X46209397Y-124620827D01*
X46209390Y-124620814D01*
X46121789Y-124489711D01*
X46121786Y-124489707D01*
X46010292Y-124378213D01*
X46010288Y-124378210D01*
X45879185Y-124290609D01*
X45879172Y-124290602D01*
X45733501Y-124230264D01*
X45733491Y-124230261D01*
X45578149Y-124199361D01*
X45516238Y-124166976D01*
X45514660Y-124165425D01*
X45256819Y-123907584D01*
X45242115Y-123880656D01*
X45225523Y-123854838D01*
X45224631Y-123848637D01*
X45223334Y-123846261D01*
X45220500Y-123819903D01*
X45220500Y-123690258D01*
X45240185Y-123623219D01*
X45279727Y-123584520D01*
X45283249Y-123582361D01*
X45283266Y-123582353D01*
X45444418Y-123465269D01*
X45585269Y-123324418D01*
X45702353Y-123163266D01*
X45779515Y-123011827D01*
X45827490Y-122961031D01*
X45895311Y-122944236D01*
X45961446Y-122966773D01*
X46000485Y-123011827D01*
X46077647Y-123163266D01*
X46194731Y-123324418D01*
X46335582Y-123465269D01*
X46496734Y-123582353D01*
X46667456Y-123669340D01*
X46674219Y-123672786D01*
X46863657Y-123734338D01*
X46863658Y-123734338D01*
X46863661Y-123734339D01*
X47060403Y-123765500D01*
X47060404Y-123765500D01*
X47259596Y-123765500D01*
X47259597Y-123765500D01*
X47456339Y-123734339D01*
X47456342Y-123734338D01*
X47456343Y-123734338D01*
X47645780Y-123672786D01*
X47645780Y-123672785D01*
X47645783Y-123672785D01*
X47823266Y-123582353D01*
X47984418Y-123465269D01*
X48125269Y-123324418D01*
X48242353Y-123163266D01*
X48319515Y-123011827D01*
X48367490Y-122961031D01*
X48435311Y-122944236D01*
X48501446Y-122966773D01*
X48540485Y-123011827D01*
X48617647Y-123163266D01*
X48734731Y-123324418D01*
X48875582Y-123465269D01*
X49036734Y-123582353D01*
X49207456Y-123669340D01*
X49214219Y-123672786D01*
X49403657Y-123734338D01*
X49403658Y-123734338D01*
X49403661Y-123734339D01*
X49600403Y-123765500D01*
X49600404Y-123765500D01*
X49799596Y-123765500D01*
X49799597Y-123765500D01*
X49996339Y-123734339D01*
X49996342Y-123734338D01*
X49996343Y-123734338D01*
X50185780Y-123672786D01*
X50185780Y-123672785D01*
X50185783Y-123672785D01*
X50363266Y-123582353D01*
X50524418Y-123465269D01*
X50665269Y-123324418D01*
X50782353Y-123163266D01*
X50859515Y-123011827D01*
X50907490Y-122961031D01*
X50975311Y-122944236D01*
X51041446Y-122966773D01*
X51080485Y-123011827D01*
X51157647Y-123163266D01*
X51274731Y-123324418D01*
X51415582Y-123465269D01*
X51576734Y-123582353D01*
X51747456Y-123669340D01*
X51754219Y-123672786D01*
X51943657Y-123734338D01*
X51943658Y-123734338D01*
X51943661Y-123734339D01*
X52140403Y-123765500D01*
X52140404Y-123765500D01*
X52339596Y-123765500D01*
X52339597Y-123765500D01*
X52536339Y-123734339D01*
X52536342Y-123734338D01*
X52536343Y-123734338D01*
X52725780Y-123672786D01*
X52725780Y-123672785D01*
X52725783Y-123672785D01*
X52903266Y-123582353D01*
X53064418Y-123465269D01*
X53205269Y-123324418D01*
X53322353Y-123163266D01*
X53399515Y-123011827D01*
X53447490Y-122961031D01*
X53515311Y-122944236D01*
X53581446Y-122966773D01*
X53620485Y-123011827D01*
X53697647Y-123163266D01*
X53814731Y-123324418D01*
X53955582Y-123465269D01*
X54116734Y-123582353D01*
X54287456Y-123669340D01*
X54294219Y-123672786D01*
X54483657Y-123734338D01*
X54483658Y-123734338D01*
X54483661Y-123734339D01*
X54680403Y-123765500D01*
X54680404Y-123765500D01*
X54879596Y-123765500D01*
X54879597Y-123765500D01*
X55076339Y-123734339D01*
X55076342Y-123734338D01*
X55076343Y-123734338D01*
X55265780Y-123672786D01*
X55265780Y-123672785D01*
X55265783Y-123672785D01*
X55443266Y-123582353D01*
X55604418Y-123465269D01*
X55745269Y-123324418D01*
X55862353Y-123163266D01*
X55939515Y-123011827D01*
X55987490Y-122961031D01*
X56055311Y-122944236D01*
X56121446Y-122966773D01*
X56160485Y-123011827D01*
X56237647Y-123163266D01*
X56354731Y-123324418D01*
X56495582Y-123465269D01*
X56656734Y-123582353D01*
X56827456Y-123669340D01*
X56834219Y-123672786D01*
X57023657Y-123734338D01*
X57023658Y-123734338D01*
X57023661Y-123734339D01*
X57220403Y-123765500D01*
X57220404Y-123765500D01*
X57419596Y-123765500D01*
X57419597Y-123765500D01*
X57616339Y-123734339D01*
X57616342Y-123734338D01*
X57616343Y-123734338D01*
X57805780Y-123672786D01*
X57805780Y-123672785D01*
X57805783Y-123672785D01*
X57983266Y-123582353D01*
X58144418Y-123465269D01*
X58285269Y-123324418D01*
X58402353Y-123163266D01*
X58479515Y-123011827D01*
X58527490Y-122961031D01*
X58595311Y-122944236D01*
X58661446Y-122966773D01*
X58700485Y-123011827D01*
X58777647Y-123163266D01*
X58894731Y-123324418D01*
X59035582Y-123465269D01*
X59196734Y-123582353D01*
X59196744Y-123582358D01*
X59200273Y-123584520D01*
X59247157Y-123636325D01*
X59259500Y-123690258D01*
X59259500Y-127002528D01*
X59239815Y-127069567D01*
X59191800Y-127113010D01*
X59185288Y-127116327D01*
X59016493Y-127238966D01*
X58868966Y-127386493D01*
X58746330Y-127555285D01*
X58651612Y-127741179D01*
X58587137Y-127939610D01*
X58554500Y-128145675D01*
X58554500Y-128354324D01*
X58587137Y-128560389D01*
X58651612Y-128758820D01*
X58720485Y-128893990D01*
X58746330Y-128944714D01*
X58868965Y-129113505D01*
X59016495Y-129261035D01*
X59185286Y-129383670D01*
X59273116Y-129428421D01*
X59371179Y-129478387D01*
X59371181Y-129478387D01*
X59371184Y-129478389D01*
X59469048Y-129510187D01*
X59569610Y-129542862D01*
X59775676Y-129575500D01*
X59775681Y-129575500D01*
X59984324Y-129575500D01*
X60190389Y-129542862D01*
X60224828Y-129531672D01*
X60388816Y-129478389D01*
X60574714Y-129383670D01*
X60743505Y-129261035D01*
X60891035Y-129113505D01*
X61013670Y-128944714D01*
X61039515Y-128893990D01*
X61087489Y-128843194D01*
X61155310Y-128826398D01*
X61221445Y-128848935D01*
X61260485Y-128893990D01*
X61286328Y-128944712D01*
X61368086Y-129057241D01*
X61408965Y-129113505D01*
X61556495Y-129261035D01*
X61725286Y-129383670D01*
X61813116Y-129428421D01*
X61911179Y-129478387D01*
X61911181Y-129478387D01*
X61911184Y-129478389D01*
X62009048Y-129510187D01*
X62109610Y-129542862D01*
X62315676Y-129575500D01*
X62315681Y-129575500D01*
X62524324Y-129575500D01*
X62730389Y-129542862D01*
X62764828Y-129531672D01*
X62928816Y-129478389D01*
X63114714Y-129383670D01*
X63283505Y-129261035D01*
X63431035Y-129113505D01*
X63553670Y-128944714D01*
X63579515Y-128893990D01*
X63627489Y-128843194D01*
X63695310Y-128826398D01*
X63761445Y-128848935D01*
X63800485Y-128893990D01*
X63826328Y-128944712D01*
X63908086Y-129057241D01*
X63948965Y-129113505D01*
X64096495Y-129261035D01*
X64265286Y-129383670D01*
X64353116Y-129428421D01*
X64451179Y-129478387D01*
X64451181Y-129478387D01*
X64451184Y-129478389D01*
X64549048Y-129510187D01*
X64649610Y-129542862D01*
X64855676Y-129575500D01*
X64855681Y-129575500D01*
X65064324Y-129575500D01*
X65270389Y-129542862D01*
X65304828Y-129531672D01*
X65468816Y-129478389D01*
X65654714Y-129383670D01*
X65823505Y-129261035D01*
X65971035Y-129113505D01*
X66093670Y-128944714D01*
X66119515Y-128893990D01*
X66167489Y-128843194D01*
X66235310Y-128826398D01*
X66301445Y-128848935D01*
X66340485Y-128893990D01*
X66366328Y-128944712D01*
X66448086Y-129057241D01*
X66488965Y-129113505D01*
X66636495Y-129261035D01*
X66805286Y-129383670D01*
X66893116Y-129428421D01*
X66991179Y-129478387D01*
X66991181Y-129478387D01*
X66991184Y-129478389D01*
X67089048Y-129510187D01*
X67189610Y-129542862D01*
X67395676Y-129575500D01*
X67395681Y-129575500D01*
X67604324Y-129575500D01*
X67810389Y-129542862D01*
X67844828Y-129531672D01*
X68008816Y-129478389D01*
X68194714Y-129383670D01*
X68363505Y-129261035D01*
X68511035Y-129113505D01*
X68633670Y-128944714D01*
X68728389Y-128758816D01*
X68792862Y-128560389D01*
X68802247Y-128501133D01*
X68825500Y-128354324D01*
X68825500Y-128145675D01*
X68792862Y-127939610D01*
X68747662Y-127800500D01*
X68728389Y-127741184D01*
X68728387Y-127741181D01*
X68728387Y-127741179D01*
X68656707Y-127600500D01*
X68633670Y-127555286D01*
X68511035Y-127386495D01*
X68363505Y-127238965D01*
X68194714Y-127116330D01*
X68194705Y-127116325D01*
X68194700Y-127116322D01*
X68168202Y-127102820D01*
X68117407Y-127054844D01*
X68100500Y-126992337D01*
X68100500Y-123676605D01*
X68120185Y-123609566D01*
X68151615Y-123576287D01*
X68304418Y-123465269D01*
X68445269Y-123324418D01*
X68562353Y-123163266D01*
X68639515Y-123011827D01*
X68687490Y-122961031D01*
X68755311Y-122944236D01*
X68821446Y-122966773D01*
X68860485Y-123011827D01*
X68937647Y-123163266D01*
X69054731Y-123324418D01*
X69195582Y-123465269D01*
X69356734Y-123582353D01*
X69527456Y-123669340D01*
X69534219Y-123672786D01*
X69723657Y-123734338D01*
X69723658Y-123734338D01*
X69723661Y-123734339D01*
X69920403Y-123765500D01*
X69920404Y-123765500D01*
X70119596Y-123765500D01*
X70119597Y-123765500D01*
X70316339Y-123734339D01*
X70316342Y-123734338D01*
X70316343Y-123734338D01*
X70505780Y-123672786D01*
X70505780Y-123672785D01*
X70505783Y-123672785D01*
X70683266Y-123582353D01*
X70844418Y-123465269D01*
X70985269Y-123324418D01*
X71102353Y-123163266D01*
X71179515Y-123011827D01*
X71227490Y-122961031D01*
X71295311Y-122944236D01*
X71361446Y-122966773D01*
X71400485Y-123011827D01*
X71477647Y-123163266D01*
X71594731Y-123324418D01*
X71735582Y-123465269D01*
X71896734Y-123582353D01*
X72067456Y-123669340D01*
X72074219Y-123672786D01*
X72263657Y-123734338D01*
X72263658Y-123734338D01*
X72263661Y-123734339D01*
X72460403Y-123765500D01*
X72460404Y-123765500D01*
X72659596Y-123765500D01*
X72659597Y-123765500D01*
X72856339Y-123734339D01*
X72856342Y-123734338D01*
X72856343Y-123734338D01*
X73045780Y-123672786D01*
X73045780Y-123672785D01*
X73045783Y-123672785D01*
X73223266Y-123582353D01*
X73384418Y-123465269D01*
X73525269Y-123324418D01*
X73642353Y-123163266D01*
X73719515Y-123011827D01*
X73767490Y-122961031D01*
X73835311Y-122944236D01*
X73901446Y-122966773D01*
X73940485Y-123011827D01*
X74017647Y-123163266D01*
X74134731Y-123324418D01*
X74275582Y-123465269D01*
X74436734Y-123582353D01*
X74607456Y-123669340D01*
X74614219Y-123672786D01*
X74803657Y-123734338D01*
X74803658Y-123734338D01*
X74803661Y-123734339D01*
X75000403Y-123765500D01*
X75000404Y-123765500D01*
X75199596Y-123765500D01*
X75199597Y-123765500D01*
X75396339Y-123734339D01*
X75396342Y-123734338D01*
X75396343Y-123734338D01*
X75585780Y-123672786D01*
X75585780Y-123672785D01*
X75585783Y-123672785D01*
X75763266Y-123582353D01*
X75924418Y-123465269D01*
X76065269Y-123324418D01*
X76182353Y-123163266D01*
X76259515Y-123011827D01*
X76307490Y-122961031D01*
X76375311Y-122944236D01*
X76441446Y-122966773D01*
X76480485Y-123011827D01*
X76557647Y-123163266D01*
X76674731Y-123324418D01*
X76815582Y-123465269D01*
X76976734Y-123582353D01*
X77147456Y-123669340D01*
X77154219Y-123672786D01*
X77343657Y-123734338D01*
X77343658Y-123734338D01*
X77343661Y-123734339D01*
X77540403Y-123765500D01*
X77540404Y-123765500D01*
X77739596Y-123765500D01*
X77739597Y-123765500D01*
X77936339Y-123734339D01*
X77936342Y-123734338D01*
X77936343Y-123734338D01*
X78125780Y-123672786D01*
X78125780Y-123672785D01*
X78125783Y-123672785D01*
X78303266Y-123582353D01*
X78464418Y-123465269D01*
X78605269Y-123324418D01*
X78722353Y-123163266D01*
X78799515Y-123011827D01*
X78847490Y-122961031D01*
X78915311Y-122944236D01*
X78981446Y-122966773D01*
X79020485Y-123011827D01*
X79097647Y-123163266D01*
X79214731Y-123324418D01*
X79355582Y-123465269D01*
X79516734Y-123582353D01*
X79687456Y-123669340D01*
X79694219Y-123672786D01*
X79883657Y-123734338D01*
X79883658Y-123734338D01*
X79883661Y-123734339D01*
X80080403Y-123765500D01*
X80080404Y-123765500D01*
X80279596Y-123765500D01*
X80279597Y-123765500D01*
X80476339Y-123734339D01*
X80476342Y-123734338D01*
X80476343Y-123734338D01*
X80665780Y-123672786D01*
X80665780Y-123672785D01*
X80665783Y-123672785D01*
X80843266Y-123582353D01*
X81004418Y-123465269D01*
X81145269Y-123324418D01*
X81262353Y-123163266D01*
X81339515Y-123011827D01*
X81387490Y-122961031D01*
X81455311Y-122944236D01*
X81521446Y-122966773D01*
X81560485Y-123011827D01*
X81637647Y-123163266D01*
X81754731Y-123324418D01*
X81895582Y-123465269D01*
X82056734Y-123582353D01*
X82227456Y-123669340D01*
X82234219Y-123672786D01*
X82423657Y-123734338D01*
X82423658Y-123734338D01*
X82423661Y-123734339D01*
X82620403Y-123765500D01*
X82620404Y-123765500D01*
X82819596Y-123765500D01*
X82819597Y-123765500D01*
X83016339Y-123734339D01*
X83016342Y-123734338D01*
X83016343Y-123734338D01*
X83205780Y-123672786D01*
X83205780Y-123672785D01*
X83205783Y-123672785D01*
X83383266Y-123582353D01*
X83544418Y-123465269D01*
X83685269Y-123324418D01*
X83802353Y-123163266D01*
X83879515Y-123011827D01*
X83927490Y-122961031D01*
X83995311Y-122944236D01*
X84061446Y-122966773D01*
X84100485Y-123011827D01*
X84177647Y-123163266D01*
X84294731Y-123324418D01*
X84435582Y-123465269D01*
X84578386Y-123569022D01*
X84621051Y-123624352D01*
X84629500Y-123669340D01*
X84629500Y-126992337D01*
X84609815Y-127059376D01*
X84561798Y-127102820D01*
X84535299Y-127116322D01*
X84535290Y-127116327D01*
X84535286Y-127116330D01*
X84366495Y-127238965D01*
X84366493Y-127238967D01*
X84366492Y-127238967D01*
X84218966Y-127386493D01*
X84096330Y-127555285D01*
X84070485Y-127606010D01*
X84022510Y-127656806D01*
X83954690Y-127673601D01*
X83888555Y-127651064D01*
X83849515Y-127606010D01*
X83846707Y-127600500D01*
X83823670Y-127555286D01*
X83701035Y-127386495D01*
X83553505Y-127238965D01*
X83384714Y-127116330D01*
X83328487Y-127087681D01*
X83198820Y-127021612D01*
X83000389Y-126957137D01*
X82794324Y-126924500D01*
X82794319Y-126924500D01*
X82585681Y-126924500D01*
X82585676Y-126924500D01*
X82379610Y-126957137D01*
X82181179Y-127021612D01*
X81995285Y-127116330D01*
X81826493Y-127238966D01*
X81678966Y-127386493D01*
X81556330Y-127555285D01*
X81461612Y-127741179D01*
X81397137Y-127939610D01*
X81364500Y-128145675D01*
X81364500Y-128354324D01*
X81397137Y-128560389D01*
X81461612Y-128758820D01*
X81530485Y-128893990D01*
X81556330Y-128944714D01*
X81678965Y-129113505D01*
X81826495Y-129261035D01*
X81995286Y-129383670D01*
X82083116Y-129428421D01*
X82181179Y-129478387D01*
X82181181Y-129478387D01*
X82181184Y-129478389D01*
X82279048Y-129510187D01*
X82379610Y-129542862D01*
X82585676Y-129575500D01*
X82585681Y-129575500D01*
X82794324Y-129575500D01*
X82887987Y-129560664D01*
X83000389Y-129542862D01*
X83028685Y-129533667D01*
X83098523Y-129531672D01*
X83154682Y-129563918D01*
X84071284Y-130480520D01*
X84071286Y-130480521D01*
X84071290Y-130480524D01*
X84186347Y-130546951D01*
X84208216Y-130559577D01*
X84360943Y-130600501D01*
X84360945Y-130600501D01*
X84526654Y-130600501D01*
X84526670Y-130600500D01*
X91163331Y-130600500D01*
X91163347Y-130600501D01*
X91170943Y-130600501D01*
X91329054Y-130600501D01*
X91329057Y-130600501D01*
X91481785Y-130559577D01*
X91531904Y-130530639D01*
X91618716Y-130480520D01*
X91730520Y-130368716D01*
X91730520Y-130368714D01*
X91740728Y-130358507D01*
X91740730Y-130358504D01*
X91959579Y-130139655D01*
X95962500Y-130139655D01*
X95962500Y-130725000D01*
X96788120Y-130725000D01*
X96760778Y-130772358D01*
X96725000Y-130905882D01*
X96725000Y-131044118D01*
X96760778Y-131177642D01*
X96788120Y-131225000D01*
X95962500Y-131225000D01*
X95962500Y-131810344D01*
X95968901Y-131869872D01*
X95968903Y-131869879D01*
X96019145Y-132004586D01*
X96019149Y-132004593D01*
X96105309Y-132119687D01*
X96105312Y-132119690D01*
X96220406Y-132205850D01*
X96220413Y-132205854D01*
X96355120Y-132256096D01*
X96355127Y-132256098D01*
X96414655Y-132262499D01*
X96414672Y-132262500D01*
X97000000Y-132262500D01*
X97000000Y-131436879D01*
X97047358Y-131464222D01*
X97180882Y-131500000D01*
X97319118Y-131500000D01*
X97452642Y-131464222D01*
X97500000Y-131436879D01*
X97500000Y-132262500D01*
X98085328Y-132262500D01*
X98085344Y-132262499D01*
X98144872Y-132256098D01*
X98144879Y-132256096D01*
X98279586Y-132205854D01*
X98279593Y-132205850D01*
X98394687Y-132119690D01*
X98394690Y-132119687D01*
X98480850Y-132004593D01*
X98480854Y-132004586D01*
X98531096Y-131869879D01*
X98532396Y-131857793D01*
X98559133Y-131793242D01*
X98616525Y-131753392D01*
X98686350Y-131750897D01*
X98746439Y-131786548D01*
X98756004Y-131798160D01*
X98767566Y-131814074D01*
X98910925Y-131957433D01*
X98910930Y-131957437D01*
X99017777Y-132035065D01*
X99074941Y-132076597D01*
X99159516Y-132119690D01*
X99255579Y-132168637D01*
X99255582Y-132168638D01*
X99351986Y-132199961D01*
X99448393Y-132231285D01*
X99648632Y-132263000D01*
X99648633Y-132263000D01*
X99851367Y-132263000D01*
X99851368Y-132263000D01*
X100051607Y-132231285D01*
X100244420Y-132168637D01*
X100425059Y-132076597D01*
X100589076Y-131957432D01*
X100732432Y-131814076D01*
X100851597Y-131650059D01*
X100943637Y-131469420D01*
X101006285Y-131276607D01*
X101038000Y-131076368D01*
X101038000Y-130873632D01*
X101033993Y-130848336D01*
X131299500Y-130848336D01*
X131299500Y-131151663D01*
X131333457Y-131453048D01*
X131333459Y-131453060D01*
X131333460Y-131453063D01*
X131344173Y-131500000D01*
X131400953Y-131748771D01*
X131400957Y-131748783D01*
X131501133Y-132035068D01*
X131632733Y-132308338D01*
X131632735Y-132308341D01*
X131794108Y-132565164D01*
X131983221Y-132802304D01*
X132197696Y-133016779D01*
X132434836Y-133205892D01*
X132691659Y-133367265D01*
X132964935Y-133498868D01*
X133179951Y-133574105D01*
X133251216Y-133599042D01*
X133251228Y-133599046D01*
X133546937Y-133666540D01*
X133546946Y-133666541D01*
X133546951Y-133666542D01*
X133747874Y-133689180D01*
X133848337Y-133700499D01*
X133848340Y-133700500D01*
X133848343Y-133700500D01*
X134151660Y-133700500D01*
X134151661Y-133700499D01*
X134305694Y-133683144D01*
X134453048Y-133666542D01*
X134453051Y-133666541D01*
X134453063Y-133666540D01*
X134748772Y-133599046D01*
X135035065Y-133498868D01*
X135308341Y-133367265D01*
X135565164Y-133205892D01*
X135802304Y-133016779D01*
X136016779Y-132802304D01*
X136205892Y-132565164D01*
X136367265Y-132308341D01*
X136498868Y-132035065D01*
X136599046Y-131748772D01*
X136666540Y-131453063D01*
X136673071Y-131395104D01*
X136684084Y-131297357D01*
X136700500Y-131151657D01*
X136700500Y-130848343D01*
X136672575Y-130600500D01*
X136666542Y-130546951D01*
X136666541Y-130546946D01*
X136666540Y-130546937D01*
X136599046Y-130251228D01*
X136498868Y-129964935D01*
X136367265Y-129691659D01*
X136205892Y-129434836D01*
X136016779Y-129197696D01*
X135802304Y-128983221D01*
X135565164Y-128794108D01*
X135308341Y-128632735D01*
X135308338Y-128632733D01*
X135035068Y-128501133D01*
X134748783Y-128400957D01*
X134748771Y-128400953D01*
X134520556Y-128348864D01*
X134453063Y-128333460D01*
X134453060Y-128333459D01*
X134453048Y-128333457D01*
X134151663Y-128299500D01*
X134151657Y-128299500D01*
X133848343Y-128299500D01*
X133848336Y-128299500D01*
X133546951Y-128333457D01*
X133546937Y-128333460D01*
X133251228Y-128400953D01*
X133251216Y-128400957D01*
X132964931Y-128501133D01*
X132691661Y-128632733D01*
X132434837Y-128794107D01*
X132197696Y-128983220D01*
X131983220Y-129197696D01*
X131794107Y-129434837D01*
X131632733Y-129691661D01*
X131501133Y-129964931D01*
X131400957Y-130251216D01*
X131400953Y-130251228D01*
X131333460Y-130546937D01*
X131333457Y-130546951D01*
X131299500Y-130848336D01*
X101033993Y-130848336D01*
X101006285Y-130673393D01*
X100969303Y-130559573D01*
X100943638Y-130480582D01*
X100943637Y-130480579D01*
X100911764Y-130418026D01*
X100851597Y-130299941D01*
X100779337Y-130200483D01*
X100732437Y-130135930D01*
X100732433Y-130135925D01*
X100589074Y-129992566D01*
X100589069Y-129992562D01*
X100425062Y-129873405D01*
X100425061Y-129873404D01*
X100425059Y-129873403D01*
X100340488Y-129830312D01*
X100244420Y-129781362D01*
X100244417Y-129781361D01*
X100051608Y-129718715D01*
X99894951Y-129693903D01*
X99851368Y-129687000D01*
X99648632Y-129687000D01*
X99605049Y-129693903D01*
X99448391Y-129718715D01*
X99255582Y-129781361D01*
X99255579Y-129781362D01*
X99074937Y-129873405D01*
X98910930Y-129992562D01*
X98910925Y-129992566D01*
X98767562Y-130135929D01*
X98756002Y-130151841D01*
X98700671Y-130194505D01*
X98631058Y-130200483D01*
X98569263Y-130167875D01*
X98534908Y-130107036D01*
X98532396Y-130092206D01*
X98531096Y-130080120D01*
X98480854Y-129945413D01*
X98480850Y-129945406D01*
X98394690Y-129830312D01*
X98394687Y-129830309D01*
X98279593Y-129744149D01*
X98279586Y-129744145D01*
X98144879Y-129693903D01*
X98144872Y-129693901D01*
X98085344Y-129687500D01*
X97500000Y-129687500D01*
X97500000Y-130513120D01*
X97452642Y-130485778D01*
X97319118Y-130450000D01*
X97180882Y-130450000D01*
X97047358Y-130485778D01*
X97000000Y-130513120D01*
X97000000Y-129687500D01*
X96414655Y-129687500D01*
X96355127Y-129693901D01*
X96355120Y-129693903D01*
X96220413Y-129744145D01*
X96220406Y-129744149D01*
X96105312Y-129830309D01*
X96105309Y-129830312D01*
X96019149Y-129945406D01*
X96019145Y-129945413D01*
X95968903Y-130080120D01*
X95968901Y-130080127D01*
X95962500Y-130139655D01*
X91959579Y-130139655D01*
X94358506Y-127740728D01*
X94358511Y-127740724D01*
X94368714Y-127730520D01*
X94368716Y-127730520D01*
X94480520Y-127618716D01*
X94484030Y-127612635D01*
X94546013Y-127505279D01*
X94546014Y-127505277D01*
X94551517Y-127495743D01*
X94559577Y-127481785D01*
X94600500Y-127329058D01*
X94600500Y-127170943D01*
X94600500Y-124921153D01*
X101505700Y-124921153D01*
X101505700Y-125078846D01*
X101536461Y-125233489D01*
X101536464Y-125233501D01*
X101596802Y-125379172D01*
X101596809Y-125379185D01*
X101684409Y-125510287D01*
X101684410Y-125510288D01*
X101684411Y-125510289D01*
X101782242Y-125608120D01*
X101787903Y-125614174D01*
X101795877Y-125623295D01*
X101825680Y-125674916D01*
X101937484Y-125786720D01*
X101937486Y-125786721D01*
X101947498Y-125796733D01*
X103063084Y-126912319D01*
X103096569Y-126973642D01*
X103091585Y-127043334D01*
X103063084Y-127087681D01*
X102485339Y-127665425D01*
X102424016Y-127698910D01*
X102421850Y-127699361D01*
X102266508Y-127730261D01*
X102266498Y-127730264D01*
X102120827Y-127790602D01*
X102120814Y-127790609D01*
X101989711Y-127878210D01*
X101989707Y-127878213D01*
X101878213Y-127989707D01*
X101878210Y-127989711D01*
X101790609Y-128120814D01*
X101790602Y-128120827D01*
X101730264Y-128266498D01*
X101730261Y-128266510D01*
X101699500Y-128421153D01*
X101699500Y-128578846D01*
X101730261Y-128733489D01*
X101730264Y-128733501D01*
X101790602Y-128879172D01*
X101790609Y-128879185D01*
X101878210Y-129010288D01*
X101878213Y-129010292D01*
X101989707Y-129121786D01*
X101989711Y-129121789D01*
X102120814Y-129209390D01*
X102120827Y-129209397D01*
X102245494Y-129261035D01*
X102266503Y-129269737D01*
X102421153Y-129300499D01*
X102421156Y-129300500D01*
X102421158Y-129300500D01*
X102578844Y-129300500D01*
X102578845Y-129300499D01*
X102733497Y-129269737D01*
X102879179Y-129209394D01*
X103010289Y-129121789D01*
X103121789Y-129010289D01*
X103209394Y-128879179D01*
X103269737Y-128733497D01*
X103290175Y-128630750D01*
X103300638Y-128578150D01*
X103333023Y-128516239D01*
X103334518Y-128514716D01*
X104212416Y-127636819D01*
X104273739Y-127603334D01*
X104300097Y-127600500D01*
X104420943Y-127600500D01*
X113920234Y-127600500D01*
X113987273Y-127620185D01*
X113989125Y-127621398D01*
X114120814Y-127709390D01*
X114120827Y-127709397D01*
X114196478Y-127740732D01*
X114266503Y-127769737D01*
X114421153Y-127800499D01*
X114421156Y-127800500D01*
X114421158Y-127800500D01*
X114578844Y-127800500D01*
X114578845Y-127800499D01*
X114733497Y-127769737D01*
X114879179Y-127709394D01*
X115010289Y-127621789D01*
X115121789Y-127510289D01*
X115209394Y-127379179D01*
X115269737Y-127233497D01*
X115300500Y-127078842D01*
X115300500Y-126921158D01*
X115300500Y-126921155D01*
X115300499Y-126921153D01*
X115269738Y-126766510D01*
X115269737Y-126766503D01*
X115269735Y-126766498D01*
X115209397Y-126620827D01*
X115209390Y-126620814D01*
X115121789Y-126489711D01*
X115121786Y-126489707D01*
X115010292Y-126378213D01*
X115010288Y-126378210D01*
X114879185Y-126290609D01*
X114879172Y-126290602D01*
X114733501Y-126230264D01*
X114733489Y-126230261D01*
X114578845Y-126199500D01*
X114578842Y-126199500D01*
X114421158Y-126199500D01*
X114421155Y-126199500D01*
X114266510Y-126230261D01*
X114266498Y-126230264D01*
X114120827Y-126290602D01*
X114120814Y-126290609D01*
X113989125Y-126378602D01*
X113922447Y-126399480D01*
X113920234Y-126399500D01*
X110886555Y-126399500D01*
X110819516Y-126379815D01*
X110773761Y-126327011D01*
X110763817Y-126257853D01*
X110768840Y-126239588D01*
X110767969Y-126239324D01*
X110769731Y-126233509D01*
X110769737Y-126233497D01*
X110800500Y-126078842D01*
X110800500Y-125921158D01*
X110800500Y-125921155D01*
X110800499Y-125921153D01*
X110775750Y-125796733D01*
X110769737Y-125766503D01*
X110709794Y-125621786D01*
X110709397Y-125620827D01*
X110709390Y-125620814D01*
X110621789Y-125489711D01*
X110621786Y-125489707D01*
X110510292Y-125378213D01*
X110510288Y-125378210D01*
X110379185Y-125290609D01*
X110379172Y-125290602D01*
X110233501Y-125230264D01*
X110233489Y-125230261D01*
X110078845Y-125199500D01*
X110078842Y-125199500D01*
X110036121Y-125199500D01*
X109982376Y-125185098D01*
X109981932Y-125186172D01*
X109974426Y-125183063D01*
X109974425Y-125183062D01*
X109974424Y-125183062D01*
X109821696Y-125142138D01*
X109663582Y-125142138D01*
X109655986Y-125142138D01*
X109655970Y-125142139D01*
X105678301Y-125142139D01*
X105637380Y-125153103D01*
X105637380Y-125153104D01*
X105601120Y-125162820D01*
X105525575Y-125183062D01*
X105518067Y-125186173D01*
X105517622Y-125185099D01*
X105463880Y-125199500D01*
X105421155Y-125199500D01*
X105266510Y-125230261D01*
X105266498Y-125230264D01*
X105120827Y-125290602D01*
X105120814Y-125290609D01*
X104989711Y-125378210D01*
X104989707Y-125378213D01*
X104878213Y-125489707D01*
X104878210Y-125489711D01*
X104790609Y-125620814D01*
X104790602Y-125620827D01*
X104730264Y-125766498D01*
X104730261Y-125766510D01*
X104699500Y-125921153D01*
X104699500Y-126078846D01*
X104730261Y-126233489D01*
X104732031Y-126239324D01*
X104729279Y-126240158D01*
X104735503Y-126297359D01*
X104704309Y-126359878D01*
X104644266Y-126395608D01*
X104613445Y-126399500D01*
X104300097Y-126399500D01*
X104233058Y-126379815D01*
X104212416Y-126363181D01*
X103123930Y-125274695D01*
X103090445Y-125213372D01*
X103089994Y-125162826D01*
X103106700Y-125078842D01*
X103106700Y-124921158D01*
X103106700Y-124921155D01*
X103106699Y-124921153D01*
X103075938Y-124766510D01*
X103075937Y-124766503D01*
X103075935Y-124766498D01*
X103015597Y-124620827D01*
X103015590Y-124620814D01*
X102927989Y-124489711D01*
X102927986Y-124489707D01*
X102816492Y-124378213D01*
X102816488Y-124378210D01*
X102685385Y-124290609D01*
X102685372Y-124290602D01*
X102539701Y-124230264D01*
X102539689Y-124230261D01*
X102385045Y-124199500D01*
X102385042Y-124199500D01*
X102227358Y-124199500D01*
X102227355Y-124199500D01*
X102072710Y-124230261D01*
X102072698Y-124230264D01*
X101927027Y-124290602D01*
X101927014Y-124290609D01*
X101795911Y-124378210D01*
X101795907Y-124378213D01*
X101684413Y-124489707D01*
X101684410Y-124489711D01*
X101596809Y-124620814D01*
X101596802Y-124620827D01*
X101536464Y-124766498D01*
X101536461Y-124766510D01*
X101505700Y-124921153D01*
X94600500Y-124921153D01*
X94600500Y-120079765D01*
X94620185Y-120012726D01*
X94621398Y-120010874D01*
X94709390Y-119879185D01*
X94709390Y-119879184D01*
X94709394Y-119879179D01*
X94769737Y-119733497D01*
X94800500Y-119578842D01*
X94800500Y-119421158D01*
X94800500Y-119421155D01*
X94800499Y-119421153D01*
X94782103Y-119328670D01*
X94769737Y-119266503D01*
X94744690Y-119206033D01*
X94709397Y-119120827D01*
X94709390Y-119120814D01*
X94621789Y-118989711D01*
X94621786Y-118989707D01*
X94510292Y-118878213D01*
X94510288Y-118878210D01*
X94379185Y-118790609D01*
X94379172Y-118790602D01*
X94233501Y-118730264D01*
X94233489Y-118730261D01*
X94078845Y-118699500D01*
X94078842Y-118699500D01*
X93921158Y-118699500D01*
X93921155Y-118699500D01*
X93766510Y-118730261D01*
X93766498Y-118730264D01*
X93620827Y-118790602D01*
X93620814Y-118790609D01*
X93489711Y-118878210D01*
X93489707Y-118878213D01*
X93378213Y-118989707D01*
X93378210Y-118989711D01*
X93290609Y-119120814D01*
X93290602Y-119120827D01*
X93230264Y-119266498D01*
X93230261Y-119266510D01*
X93199500Y-119421153D01*
X93199500Y-119578846D01*
X93230261Y-119733489D01*
X93230264Y-119733501D01*
X93290602Y-119879172D01*
X93290609Y-119879185D01*
X93378602Y-120010874D01*
X93399480Y-120077551D01*
X93399500Y-120079765D01*
X93399500Y-126949902D01*
X93379815Y-127016941D01*
X93363181Y-127037583D01*
X91827416Y-128573347D01*
X91766093Y-128606832D01*
X91696401Y-128601848D01*
X91640468Y-128559976D01*
X91616051Y-128494512D01*
X91617262Y-128466267D01*
X91635000Y-128354277D01*
X91635000Y-128145720D01*
X91602373Y-127939727D01*
X91537924Y-127741372D01*
X91443244Y-127555556D01*
X91443236Y-127555543D01*
X91407372Y-127506180D01*
X91407371Y-127506179D01*
X90833787Y-128079765D01*
X90822518Y-128037708D01*
X90750110Y-127912292D01*
X90647708Y-127809890D01*
X90522292Y-127737482D01*
X90480233Y-127726212D01*
X91053819Y-127152627D01*
X91004451Y-127116759D01*
X90818627Y-127022075D01*
X90620272Y-126957626D01*
X90414279Y-126925000D01*
X90205721Y-126925000D01*
X89999727Y-126957626D01*
X89801372Y-127022075D01*
X89615552Y-127116757D01*
X89566180Y-127152627D01*
X90139766Y-127726212D01*
X90097708Y-127737482D01*
X89972292Y-127809890D01*
X89869890Y-127912292D01*
X89797482Y-128037708D01*
X89786212Y-128079765D01*
X89212627Y-127506180D01*
X89176755Y-127555555D01*
X89150765Y-127606563D01*
X89102790Y-127657358D01*
X89034969Y-127674153D01*
X88968834Y-127651615D01*
X88929796Y-127606561D01*
X88903671Y-127555287D01*
X88850268Y-127481785D01*
X88781035Y-127386495D01*
X88633505Y-127238965D01*
X88464714Y-127116330D01*
X88464705Y-127116325D01*
X88464700Y-127116322D01*
X88438202Y-127102820D01*
X88387407Y-127054844D01*
X88370500Y-126992337D01*
X88370500Y-123705606D01*
X88390185Y-123638567D01*
X88438204Y-123595122D01*
X88463266Y-123582353D01*
X88624418Y-123465269D01*
X88765269Y-123324418D01*
X88882353Y-123163266D01*
X88959795Y-123011276D01*
X89007769Y-122960481D01*
X89075590Y-122943686D01*
X89141725Y-122966223D01*
X89180765Y-123011277D01*
X89258077Y-123163008D01*
X89285580Y-123200863D01*
X89285581Y-123200864D01*
X89848871Y-122637574D01*
X89864755Y-122696853D01*
X89931898Y-122813147D01*
X90026853Y-122908102D01*
X90143147Y-122975245D01*
X90202425Y-122991128D01*
X89639134Y-123554417D01*
X89676994Y-123581924D01*
X89854405Y-123672320D01*
X90043777Y-123733852D01*
X90240437Y-123765000D01*
X90439563Y-123765000D01*
X90636222Y-123733852D01*
X90825594Y-123672320D01*
X91003005Y-123581924D01*
X91040863Y-123554418D01*
X91040863Y-123554417D01*
X90477574Y-122991128D01*
X90536853Y-122975245D01*
X90653147Y-122908102D01*
X90748102Y-122813147D01*
X90815245Y-122696853D01*
X90831128Y-122637574D01*
X91394417Y-123200863D01*
X91394418Y-123200863D01*
X91421924Y-123163005D01*
X91512320Y-122985594D01*
X91573852Y-122796222D01*
X91605000Y-122599563D01*
X91605000Y-122400436D01*
X91573852Y-122203777D01*
X91512320Y-122014405D01*
X91421924Y-121836994D01*
X91394417Y-121799135D01*
X91394417Y-121799134D01*
X90831128Y-122362424D01*
X90815245Y-122303147D01*
X90748102Y-122186853D01*
X90653147Y-122091898D01*
X90536853Y-122024755D01*
X90477574Y-122008871D01*
X91040864Y-121445581D01*
X91040863Y-121445580D01*
X91003008Y-121418077D01*
X90825594Y-121327679D01*
X90636222Y-121266147D01*
X90439563Y-121235000D01*
X90240437Y-121235000D01*
X90043777Y-121266147D01*
X89854405Y-121327679D01*
X89676990Y-121418077D01*
X89639135Y-121445580D01*
X89639135Y-121445581D01*
X90202425Y-122008871D01*
X90143147Y-122024755D01*
X90026853Y-122091898D01*
X89931898Y-122186853D01*
X89864755Y-122303147D01*
X89848871Y-122362425D01*
X89285581Y-121799135D01*
X89285580Y-121799135D01*
X89258075Y-121836993D01*
X89180764Y-121988723D01*
X89132790Y-122039518D01*
X89064969Y-122056313D01*
X88998834Y-122033775D01*
X88959795Y-121988722D01*
X88882486Y-121836996D01*
X88882353Y-121836734D01*
X88765269Y-121675582D01*
X88624418Y-121534731D01*
X88463266Y-121417647D01*
X88351427Y-121360662D01*
X88285780Y-121327213D01*
X88096342Y-121265661D01*
X87948782Y-121242290D01*
X87899597Y-121234500D01*
X87700403Y-121234500D01*
X87634822Y-121244887D01*
X87503659Y-121265661D01*
X87503656Y-121265661D01*
X87314219Y-121327213D01*
X87136733Y-121417647D01*
X87098286Y-121445581D01*
X86975582Y-121534731D01*
X86975580Y-121534733D01*
X86975579Y-121534733D01*
X86834733Y-121675579D01*
X86834733Y-121675580D01*
X86834731Y-121675582D01*
X86784447Y-121744790D01*
X86717647Y-121836733D01*
X86640485Y-121988172D01*
X86592510Y-122038968D01*
X86524689Y-122055763D01*
X86458554Y-122033225D01*
X86419515Y-121988172D01*
X86342486Y-121836996D01*
X86342353Y-121836734D01*
X86225269Y-121675582D01*
X86084418Y-121534731D01*
X85923266Y-121417647D01*
X85811427Y-121360662D01*
X85745780Y-121327213D01*
X85556342Y-121265661D01*
X85408782Y-121242290D01*
X85359597Y-121234500D01*
X85160403Y-121234500D01*
X85094822Y-121244887D01*
X84963659Y-121265661D01*
X84963656Y-121265661D01*
X84774219Y-121327213D01*
X84596733Y-121417647D01*
X84558286Y-121445581D01*
X84435582Y-121534731D01*
X84435580Y-121534733D01*
X84435579Y-121534733D01*
X84294733Y-121675579D01*
X84294733Y-121675580D01*
X84294731Y-121675582D01*
X84244447Y-121744790D01*
X84177647Y-121836733D01*
X84100485Y-121988172D01*
X84052510Y-122038968D01*
X83984689Y-122055763D01*
X83918554Y-122033225D01*
X83879515Y-121988172D01*
X83802486Y-121836996D01*
X83802353Y-121836734D01*
X83685269Y-121675582D01*
X83544418Y-121534731D01*
X83383266Y-121417647D01*
X83271427Y-121360662D01*
X83205780Y-121327213D01*
X83016342Y-121265661D01*
X82868782Y-121242290D01*
X82819597Y-121234500D01*
X82620403Y-121234500D01*
X82554822Y-121244887D01*
X82423659Y-121265661D01*
X82423656Y-121265661D01*
X82234219Y-121327213D01*
X82056733Y-121417647D01*
X82018286Y-121445581D01*
X81895582Y-121534731D01*
X81895580Y-121534733D01*
X81895579Y-121534733D01*
X81754733Y-121675579D01*
X81754733Y-121675580D01*
X81754731Y-121675582D01*
X81704447Y-121744790D01*
X81637647Y-121836733D01*
X81560485Y-121988172D01*
X81512510Y-122038968D01*
X81444689Y-122055763D01*
X81378554Y-122033225D01*
X81339515Y-121988172D01*
X81262486Y-121836996D01*
X81262353Y-121836734D01*
X81145269Y-121675582D01*
X81004418Y-121534731D01*
X80843266Y-121417647D01*
X80731427Y-121360662D01*
X80665780Y-121327213D01*
X80476342Y-121265661D01*
X80328782Y-121242290D01*
X80279597Y-121234500D01*
X80080403Y-121234500D01*
X80014822Y-121244887D01*
X79883659Y-121265661D01*
X79883656Y-121265661D01*
X79694219Y-121327213D01*
X79516733Y-121417647D01*
X79478286Y-121445581D01*
X79355582Y-121534731D01*
X79355580Y-121534733D01*
X79355579Y-121534733D01*
X79214733Y-121675579D01*
X79214733Y-121675580D01*
X79214731Y-121675582D01*
X79164447Y-121744790D01*
X79097647Y-121836733D01*
X79020485Y-121988172D01*
X78972510Y-122038968D01*
X78904689Y-122055763D01*
X78838554Y-122033225D01*
X78799515Y-121988172D01*
X78722486Y-121836996D01*
X78722353Y-121836734D01*
X78605269Y-121675582D01*
X78464418Y-121534731D01*
X78303266Y-121417647D01*
X78191427Y-121360662D01*
X78125780Y-121327213D01*
X77936342Y-121265661D01*
X77788782Y-121242290D01*
X77739597Y-121234500D01*
X77540403Y-121234500D01*
X77474822Y-121244887D01*
X77343659Y-121265661D01*
X77343656Y-121265661D01*
X77154219Y-121327213D01*
X76976733Y-121417647D01*
X76938286Y-121445581D01*
X76815582Y-121534731D01*
X76815580Y-121534733D01*
X76815579Y-121534733D01*
X76674733Y-121675579D01*
X76674733Y-121675580D01*
X76674731Y-121675582D01*
X76624447Y-121744790D01*
X76557647Y-121836733D01*
X76480485Y-121988172D01*
X76432510Y-122038968D01*
X76364689Y-122055763D01*
X76298554Y-122033225D01*
X76259515Y-121988172D01*
X76182486Y-121836996D01*
X76182353Y-121836734D01*
X76065269Y-121675582D01*
X75924418Y-121534731D01*
X75763266Y-121417647D01*
X75651427Y-121360662D01*
X75585780Y-121327213D01*
X75396342Y-121265661D01*
X75248782Y-121242290D01*
X75199597Y-121234500D01*
X75000403Y-121234500D01*
X74934822Y-121244887D01*
X74803659Y-121265661D01*
X74803656Y-121265661D01*
X74614219Y-121327213D01*
X74436733Y-121417647D01*
X74398286Y-121445581D01*
X74275582Y-121534731D01*
X74275580Y-121534733D01*
X74275579Y-121534733D01*
X74134733Y-121675579D01*
X74134733Y-121675580D01*
X74134731Y-121675582D01*
X74084447Y-121744790D01*
X74017647Y-121836733D01*
X73940485Y-121988172D01*
X73892510Y-122038968D01*
X73824689Y-122055763D01*
X73758554Y-122033225D01*
X73719515Y-121988172D01*
X73642486Y-121836996D01*
X73642353Y-121836734D01*
X73525269Y-121675582D01*
X73384418Y-121534731D01*
X73223266Y-121417647D01*
X73111427Y-121360662D01*
X73045780Y-121327213D01*
X72856342Y-121265661D01*
X72708782Y-121242290D01*
X72659597Y-121234500D01*
X72460403Y-121234500D01*
X72394822Y-121244887D01*
X72263659Y-121265661D01*
X72263656Y-121265661D01*
X72074219Y-121327213D01*
X71896733Y-121417647D01*
X71858286Y-121445581D01*
X71735582Y-121534731D01*
X71735580Y-121534733D01*
X71735579Y-121534733D01*
X71594733Y-121675579D01*
X71594733Y-121675580D01*
X71594731Y-121675582D01*
X71544447Y-121744790D01*
X71477647Y-121836733D01*
X71400485Y-121988172D01*
X71352510Y-122038968D01*
X71284689Y-122055763D01*
X71218554Y-122033225D01*
X71179515Y-121988172D01*
X71102486Y-121836996D01*
X71102353Y-121836734D01*
X70985269Y-121675582D01*
X70844418Y-121534731D01*
X70683266Y-121417647D01*
X70571427Y-121360662D01*
X70505780Y-121327213D01*
X70316342Y-121265661D01*
X70168782Y-121242290D01*
X70119597Y-121234500D01*
X69920403Y-121234500D01*
X69854822Y-121244887D01*
X69723659Y-121265661D01*
X69723656Y-121265661D01*
X69534219Y-121327213D01*
X69356733Y-121417647D01*
X69318286Y-121445581D01*
X69195582Y-121534731D01*
X69195580Y-121534733D01*
X69195579Y-121534733D01*
X69054733Y-121675579D01*
X69054733Y-121675580D01*
X69054731Y-121675582D01*
X69004447Y-121744790D01*
X68937647Y-121836733D01*
X68860485Y-121988172D01*
X68812510Y-122038968D01*
X68744689Y-122055763D01*
X68678554Y-122033225D01*
X68639515Y-121988172D01*
X68562486Y-121836996D01*
X68562353Y-121836734D01*
X68445269Y-121675582D01*
X68304418Y-121534731D01*
X68143266Y-121417647D01*
X68031427Y-121360662D01*
X67965780Y-121327213D01*
X67776342Y-121265661D01*
X67628782Y-121242290D01*
X67579597Y-121234500D01*
X67380403Y-121234500D01*
X67314822Y-121244887D01*
X67183659Y-121265661D01*
X67183656Y-121265661D01*
X66994219Y-121327213D01*
X66816733Y-121417647D01*
X66778286Y-121445581D01*
X66655582Y-121534731D01*
X66655580Y-121534733D01*
X66655579Y-121534733D01*
X66514733Y-121675579D01*
X66514733Y-121675580D01*
X66514731Y-121675582D01*
X66464447Y-121744790D01*
X66397647Y-121836733D01*
X66320485Y-121988172D01*
X66272510Y-122038968D01*
X66204689Y-122055763D01*
X66138554Y-122033225D01*
X66099515Y-121988172D01*
X66022486Y-121836996D01*
X66022353Y-121836734D01*
X65905269Y-121675582D01*
X65764418Y-121534731D01*
X65603266Y-121417647D01*
X65491427Y-121360662D01*
X65425780Y-121327213D01*
X65236342Y-121265661D01*
X65088782Y-121242290D01*
X65039597Y-121234500D01*
X64840403Y-121234500D01*
X64840400Y-121234500D01*
X64830372Y-121236088D01*
X64761080Y-121227130D01*
X64707630Y-121182131D01*
X64686994Y-121115378D01*
X64705722Y-121048065D01*
X64723295Y-121025938D01*
X77980520Y-107768716D01*
X78059577Y-107631785D01*
X78072677Y-107582893D01*
X78104773Y-107527304D01*
X78121789Y-107510289D01*
X78209394Y-107379179D01*
X78269737Y-107233497D01*
X78300500Y-107078842D01*
X78300500Y-106949097D01*
X78320185Y-106882058D01*
X78372989Y-106836303D01*
X78442147Y-106826359D01*
X78505703Y-106855384D01*
X78512181Y-106861416D01*
X83015139Y-111364374D01*
X83015149Y-111364385D01*
X83019479Y-111368715D01*
X83019480Y-111368716D01*
X83131284Y-111480520D01*
X83131286Y-111480521D01*
X83131290Y-111480524D01*
X83206085Y-111523706D01*
X83268216Y-111559577D01*
X83366959Y-111586035D01*
X83420942Y-111600500D01*
X83420943Y-111600500D01*
X98011288Y-111600500D01*
X98078327Y-111620185D01*
X98080179Y-111621398D01*
X98211868Y-111709390D01*
X98211881Y-111709397D01*
X98357552Y-111769735D01*
X98357557Y-111769737D01*
X98512207Y-111800499D01*
X98512210Y-111800500D01*
X98512212Y-111800500D01*
X98669898Y-111800500D01*
X98669899Y-111800499D01*
X98824551Y-111769737D01*
X98970233Y-111709394D01*
X99101343Y-111621789D01*
X99212843Y-111510289D01*
X99300448Y-111379179D01*
X99360791Y-111233497D01*
X99391554Y-111078842D01*
X99391554Y-110924500D01*
X99411239Y-110857461D01*
X99464043Y-110811706D01*
X99515554Y-110800500D01*
X99578844Y-110800500D01*
X99578845Y-110800499D01*
X99733497Y-110769737D01*
X99879179Y-110709394D01*
X100010289Y-110621789D01*
X100121789Y-110510289D01*
X100148258Y-110470675D01*
X102674500Y-110470675D01*
X102674500Y-110679324D01*
X102707137Y-110885389D01*
X102771612Y-111083820D01*
X102847879Y-111233501D01*
X102866330Y-111269714D01*
X102988965Y-111438505D01*
X103136495Y-111586035D01*
X103305286Y-111708670D01*
X103352271Y-111732610D01*
X103356010Y-111734515D01*
X103406806Y-111782490D01*
X103423601Y-111850310D01*
X103401064Y-111916445D01*
X103356010Y-111955485D01*
X103305285Y-111981330D01*
X103136493Y-112103966D01*
X102988966Y-112251493D01*
X102866330Y-112420285D01*
X102771612Y-112606179D01*
X102707137Y-112804610D01*
X102674500Y-113010675D01*
X102674500Y-113219324D01*
X102707137Y-113425389D01*
X102771612Y-113623820D01*
X102852328Y-113782234D01*
X102866330Y-113809714D01*
X102988965Y-113978505D01*
X103136495Y-114126035D01*
X103305286Y-114248670D01*
X103352271Y-114272610D01*
X103356010Y-114274515D01*
X103406806Y-114322490D01*
X103423601Y-114390310D01*
X103401064Y-114456445D01*
X103356010Y-114495485D01*
X103305285Y-114521330D01*
X103136493Y-114643966D01*
X102988966Y-114791493D01*
X102866330Y-114960285D01*
X102771612Y-115146179D01*
X102707137Y-115344610D01*
X102674500Y-115550675D01*
X102674500Y-115759324D01*
X102707137Y-115965389D01*
X102771612Y-116163820D01*
X102866330Y-116349714D01*
X102988965Y-116518505D01*
X103136495Y-116666035D01*
X103305286Y-116788670D01*
X103334541Y-116803576D01*
X103356010Y-116814515D01*
X103406806Y-116862490D01*
X103423601Y-116930310D01*
X103401064Y-116996445D01*
X103356010Y-117035485D01*
X103305285Y-117061330D01*
X103136493Y-117183966D01*
X102988966Y-117331493D01*
X102866330Y-117500285D01*
X102771612Y-117686179D01*
X102707137Y-117884610D01*
X102674500Y-118090675D01*
X102674500Y-118299324D01*
X102707137Y-118505389D01*
X102771612Y-118703820D01*
X102860468Y-118878210D01*
X102866330Y-118889714D01*
X102988965Y-119058505D01*
X103136495Y-119206035D01*
X103305286Y-119328670D01*
X103393116Y-119373421D01*
X103491179Y-119423387D01*
X103491181Y-119423387D01*
X103491184Y-119423389D01*
X103597545Y-119457948D01*
X103689610Y-119487862D01*
X103895676Y-119520500D01*
X103895681Y-119520500D01*
X104104324Y-119520500D01*
X104310389Y-119487862D01*
X104508816Y-119423389D01*
X104694714Y-119328670D01*
X104863505Y-119206035D01*
X105011035Y-119058505D01*
X105133670Y-118889714D01*
X105228389Y-118703816D01*
X105292862Y-118505389D01*
X105304879Y-118429515D01*
X105325500Y-118299324D01*
X105325500Y-118090675D01*
X105292862Y-117884610D01*
X105228387Y-117686179D01*
X105133669Y-117500285D01*
X105042152Y-117374324D01*
X105011035Y-117331495D01*
X104863505Y-117183965D01*
X104807241Y-117143086D01*
X104694712Y-117061328D01*
X104643990Y-117035485D01*
X104593194Y-116987511D01*
X104576398Y-116919690D01*
X104598935Y-116853555D01*
X104643990Y-116814515D01*
X104694712Y-116788671D01*
X104694711Y-116788671D01*
X104694714Y-116788670D01*
X104863505Y-116666035D01*
X105011035Y-116518505D01*
X105133670Y-116349714D01*
X105228389Y-116163816D01*
X105292862Y-115965389D01*
X105325500Y-115759324D01*
X105325500Y-115550675D01*
X105292862Y-115344610D01*
X105228387Y-115146179D01*
X105133669Y-114960285D01*
X105042152Y-114834324D01*
X105011035Y-114791495D01*
X104863505Y-114643965D01*
X104725289Y-114543544D01*
X104694712Y-114521328D01*
X104643990Y-114495485D01*
X104593194Y-114447511D01*
X104576398Y-114379690D01*
X104598935Y-114313555D01*
X104643990Y-114274515D01*
X104694712Y-114248671D01*
X104694711Y-114248671D01*
X104694714Y-114248670D01*
X104863505Y-114126035D01*
X105011035Y-113978505D01*
X105052703Y-113921153D01*
X111699500Y-113921153D01*
X111699500Y-114078846D01*
X111730261Y-114233489D01*
X111730264Y-114233501D01*
X111790602Y-114379172D01*
X111790609Y-114379185D01*
X111878210Y-114510288D01*
X111878213Y-114510292D01*
X111989707Y-114621786D01*
X111989711Y-114621789D01*
X112120814Y-114709390D01*
X112120827Y-114709397D01*
X112171756Y-114730492D01*
X112266503Y-114769737D01*
X112331147Y-114782595D01*
X112421849Y-114800638D01*
X112483760Y-114833023D01*
X112485339Y-114834574D01*
X114259139Y-116608374D01*
X114259149Y-116608385D01*
X114263479Y-116612715D01*
X114263480Y-116612716D01*
X114375284Y-116724520D01*
X114458219Y-116772402D01*
X114512215Y-116803577D01*
X114664942Y-116844500D01*
X114664943Y-116844500D01*
X118830185Y-116844500D01*
X118897224Y-116864185D01*
X118942979Y-116916989D01*
X118952923Y-116986147D01*
X118952658Y-116987898D01*
X118924500Y-117165675D01*
X118924500Y-117374324D01*
X118957137Y-117580389D01*
X119021612Y-117778820D01*
X119116330Y-117964714D01*
X119238965Y-118133505D01*
X119386495Y-118281035D01*
X119555286Y-118403670D01*
X119602271Y-118427610D01*
X119606010Y-118429515D01*
X119656806Y-118477490D01*
X119673601Y-118545310D01*
X119651064Y-118611445D01*
X119606010Y-118650485D01*
X119555285Y-118676330D01*
X119386493Y-118798966D01*
X119238966Y-118946493D01*
X119116330Y-119115285D01*
X119021612Y-119301179D01*
X118957137Y-119499610D01*
X118924500Y-119705675D01*
X118924500Y-119914324D01*
X118957137Y-120120389D01*
X119021612Y-120318820D01*
X119116330Y-120504714D01*
X119238965Y-120673505D01*
X119386495Y-120821035D01*
X119555286Y-120943670D01*
X119643116Y-120988421D01*
X119741179Y-121038387D01*
X119741181Y-121038387D01*
X119741184Y-121038389D01*
X119770964Y-121048065D01*
X119939610Y-121102862D01*
X120145676Y-121135500D01*
X120145681Y-121135500D01*
X120354324Y-121135500D01*
X120560389Y-121102862D01*
X120758816Y-121038389D01*
X120944714Y-120943670D01*
X121113505Y-120821035D01*
X121261035Y-120673505D01*
X121383670Y-120504714D01*
X121478389Y-120318816D01*
X121542862Y-120120389D01*
X121549647Y-120077551D01*
X121575500Y-119914324D01*
X121575500Y-119705675D01*
X121542862Y-119499610D01*
X121512948Y-119407545D01*
X121478389Y-119301184D01*
X121478387Y-119301181D01*
X121478387Y-119301179D01*
X121386490Y-119120821D01*
X121383670Y-119115286D01*
X121261035Y-118946495D01*
X121113505Y-118798965D01*
X121018943Y-118730261D01*
X120944712Y-118676328D01*
X120893990Y-118650485D01*
X120843194Y-118602511D01*
X120826398Y-118534690D01*
X120848935Y-118468555D01*
X120893990Y-118429515D01*
X120944712Y-118403671D01*
X120944711Y-118403671D01*
X120944714Y-118403670D01*
X121113505Y-118281035D01*
X121261035Y-118133505D01*
X121383670Y-117964714D01*
X121478389Y-117778816D01*
X121542862Y-117580389D01*
X121555549Y-117500285D01*
X121575500Y-117374324D01*
X121575500Y-117165675D01*
X121542862Y-116959610D01*
X121487320Y-116788671D01*
X121478389Y-116761184D01*
X121478387Y-116761181D01*
X121478387Y-116761179D01*
X121402740Y-116612713D01*
X121383670Y-116575286D01*
X121383668Y-116575283D01*
X121383667Y-116575281D01*
X121302962Y-116464202D01*
X121279481Y-116398396D01*
X121295306Y-116330342D01*
X121315594Y-116303639D01*
X123509916Y-114109318D01*
X123571239Y-114075833D01*
X123597597Y-114072999D01*
X124850371Y-114072999D01*
X124850372Y-114072999D01*
X124909983Y-114066591D01*
X125044831Y-114016296D01*
X125160046Y-113930046D01*
X125246296Y-113814831D01*
X125296591Y-113679983D01*
X125303000Y-113620373D01*
X125302999Y-111919628D01*
X125296591Y-111860017D01*
X125274392Y-111800499D01*
X125246297Y-111725171D01*
X125246293Y-111725164D01*
X125160047Y-111609955D01*
X125160044Y-111609952D01*
X125044835Y-111523706D01*
X125044828Y-111523702D01*
X124909983Y-111473408D01*
X124877582Y-111469925D01*
X124813032Y-111443187D01*
X124773184Y-111385794D01*
X124770691Y-111315968D01*
X124806344Y-111255880D01*
X124817955Y-111246317D01*
X124848847Y-111223873D01*
X124993873Y-111078847D01*
X125114425Y-110912921D01*
X125207537Y-110730178D01*
X125270916Y-110535120D01*
X125295614Y-110379183D01*
X125303000Y-110332553D01*
X125303000Y-110127446D01*
X125285499Y-110016958D01*
X125270916Y-109924880D01*
X125207537Y-109729822D01*
X125207535Y-109729819D01*
X125207535Y-109729817D01*
X125173755Y-109663522D01*
X125114425Y-109547079D01*
X125007203Y-109399500D01*
X124993878Y-109381159D01*
X124993874Y-109381154D01*
X124848845Y-109236125D01*
X124848840Y-109236121D01*
X124682924Y-109115577D01*
X124682923Y-109115576D01*
X124682921Y-109115575D01*
X124610832Y-109078844D01*
X124500182Y-109022464D01*
X124453384Y-109007258D01*
X124305120Y-108959084D01*
X124305114Y-108959083D01*
X124102553Y-108927000D01*
X124102548Y-108927000D01*
X123897452Y-108927000D01*
X123897447Y-108927000D01*
X123694885Y-108959083D01*
X123694883Y-108959083D01*
X123694880Y-108959084D01*
X123597351Y-108990773D01*
X123499817Y-109022464D01*
X123317075Y-109115577D01*
X123151159Y-109236121D01*
X123151154Y-109236125D01*
X123006125Y-109381154D01*
X123006121Y-109381159D01*
X122885577Y-109547075D01*
X122878077Y-109561795D01*
X122830103Y-109612591D01*
X122767592Y-109629500D01*
X117590169Y-109629500D01*
X117590153Y-109629499D01*
X117582557Y-109629499D01*
X117424442Y-109629499D01*
X117271714Y-109670423D01*
X117168841Y-109729817D01*
X117134780Y-109749482D01*
X113985339Y-112898924D01*
X113924016Y-112932409D01*
X113921850Y-112932860D01*
X113766508Y-112963760D01*
X113766498Y-112963763D01*
X113620827Y-113024101D01*
X113620814Y-113024108D01*
X113489711Y-113111709D01*
X113489707Y-113111712D01*
X113378213Y-113223206D01*
X113378210Y-113223210D01*
X113290609Y-113354313D01*
X113290601Y-113354328D01*
X113272522Y-113397975D01*
X113228681Y-113452378D01*
X113162386Y-113474442D01*
X113094687Y-113457162D01*
X113070281Y-113438202D01*
X113010292Y-113378213D01*
X113010288Y-113378210D01*
X112879185Y-113290609D01*
X112879172Y-113290602D01*
X112733501Y-113230264D01*
X112733489Y-113230261D01*
X112578845Y-113199500D01*
X112578842Y-113199500D01*
X112421158Y-113199500D01*
X112421155Y-113199500D01*
X112266510Y-113230261D01*
X112266498Y-113230264D01*
X112120827Y-113290602D01*
X112120814Y-113290609D01*
X111989711Y-113378210D01*
X111989707Y-113378213D01*
X111878213Y-113489707D01*
X111878210Y-113489711D01*
X111790609Y-113620814D01*
X111790602Y-113620827D01*
X111730264Y-113766498D01*
X111730261Y-113766510D01*
X111699500Y-113921153D01*
X105052703Y-113921153D01*
X105059078Y-113912379D01*
X105110083Y-113842180D01*
X105131761Y-113812341D01*
X105133670Y-113809714D01*
X105228389Y-113623816D01*
X105292862Y-113425389D01*
X105300334Y-113378211D01*
X105325500Y-113219324D01*
X105325500Y-113010675D01*
X105292862Y-112804610D01*
X105228387Y-112606179D01*
X105133669Y-112420285D01*
X105042152Y-112294324D01*
X105011035Y-112251495D01*
X104863505Y-112103965D01*
X104807241Y-112063086D01*
X104694712Y-111981328D01*
X104643990Y-111955485D01*
X104593194Y-111907511D01*
X104576398Y-111839690D01*
X104598935Y-111773555D01*
X104643990Y-111734515D01*
X104694712Y-111708671D01*
X104694711Y-111708671D01*
X104694714Y-111708670D01*
X104863505Y-111586035D01*
X105011035Y-111438505D01*
X105133670Y-111269714D01*
X105228389Y-111083816D01*
X105292862Y-110885389D01*
X105295803Y-110866819D01*
X105325500Y-110679324D01*
X105325500Y-110470675D01*
X105292862Y-110264610D01*
X105228387Y-110066179D01*
X105156394Y-109924885D01*
X105133670Y-109880286D01*
X105011035Y-109711495D01*
X104863505Y-109563965D01*
X104694714Y-109441330D01*
X104508820Y-109346612D01*
X104310389Y-109282137D01*
X104104324Y-109249500D01*
X104104319Y-109249500D01*
X103895681Y-109249500D01*
X103895676Y-109249500D01*
X103689610Y-109282137D01*
X103491179Y-109346612D01*
X103305285Y-109441330D01*
X103136493Y-109563966D01*
X102988966Y-109711493D01*
X102866330Y-109880285D01*
X102771612Y-110066179D01*
X102707137Y-110264610D01*
X102674500Y-110470675D01*
X100148258Y-110470675D01*
X100155479Y-110459867D01*
X100197542Y-110396918D01*
X100209391Y-110379183D01*
X100209394Y-110379179D01*
X100269737Y-110233497D01*
X100300500Y-110078842D01*
X100300500Y-109924500D01*
X100320185Y-109857461D01*
X100372989Y-109811706D01*
X100424500Y-109800500D01*
X100578844Y-109800500D01*
X100578845Y-109800499D01*
X100733497Y-109769737D01*
X100879179Y-109709394D01*
X101010289Y-109621789D01*
X101121789Y-109510289D01*
X101209394Y-109379179D01*
X101269737Y-109233497D01*
X101300500Y-109078842D01*
X101300500Y-108921158D01*
X101300500Y-108921155D01*
X101300499Y-108921153D01*
X101269738Y-108766510D01*
X101269737Y-108766503D01*
X101269735Y-108766498D01*
X101209397Y-108620827D01*
X101209390Y-108620814D01*
X101121398Y-108489125D01*
X101100520Y-108422447D01*
X101100500Y-108420234D01*
X101100500Y-105920945D01*
X101100500Y-105920943D01*
X101059577Y-105768216D01*
X101059577Y-105768215D01*
X101059577Y-105768214D01*
X101030639Y-105718095D01*
X101030637Y-105718092D01*
X100980520Y-105631284D01*
X100868716Y-105519480D01*
X100868715Y-105519479D01*
X100864385Y-105515149D01*
X100864374Y-105515139D01*
X100161416Y-104812181D01*
X100127931Y-104750858D01*
X100132915Y-104681166D01*
X100174787Y-104625233D01*
X100240251Y-104600816D01*
X100249097Y-104600500D01*
X109420234Y-104600500D01*
X109487273Y-104620185D01*
X109489125Y-104621398D01*
X109620814Y-104709390D01*
X109620827Y-104709397D01*
X109754318Y-104764690D01*
X109766503Y-104769737D01*
X109921153Y-104800499D01*
X109921156Y-104800500D01*
X109921158Y-104800500D01*
X110078844Y-104800500D01*
X110078845Y-104800499D01*
X110233497Y-104769737D01*
X110379179Y-104709394D01*
X110510289Y-104621789D01*
X110621789Y-104510289D01*
X110709394Y-104379179D01*
X110769737Y-104233497D01*
X110800500Y-104078842D01*
X110800500Y-103921158D01*
X110800500Y-103921155D01*
X110800499Y-103921153D01*
X110769737Y-103766503D01*
X110716021Y-103636819D01*
X110709397Y-103620827D01*
X110709390Y-103620814D01*
X110621789Y-103489711D01*
X110621786Y-103489707D01*
X110510292Y-103378213D01*
X110510288Y-103378210D01*
X110379185Y-103290609D01*
X110379172Y-103290602D01*
X110233501Y-103230264D01*
X110233489Y-103230261D01*
X110078845Y-103199500D01*
X110078842Y-103199500D01*
X109921158Y-103199500D01*
X109921155Y-103199500D01*
X109766510Y-103230261D01*
X109766498Y-103230264D01*
X109620827Y-103290602D01*
X109620814Y-103290609D01*
X109489125Y-103378602D01*
X109422447Y-103399480D01*
X109420234Y-103399500D01*
X107503439Y-103399500D01*
X107436400Y-103379815D01*
X107390645Y-103327011D01*
X107380701Y-103257853D01*
X107409726Y-103194297D01*
X107434548Y-103172398D01*
X107463981Y-103152730D01*
X107510289Y-103121789D01*
X107621789Y-103010289D01*
X107709394Y-102879179D01*
X107769737Y-102733497D01*
X107800500Y-102578842D01*
X107800500Y-102421158D01*
X107800500Y-102421155D01*
X107800499Y-102421153D01*
X107791272Y-102374767D01*
X107769737Y-102266503D01*
X107754737Y-102230289D01*
X107709397Y-102120827D01*
X107709390Y-102120814D01*
X107621790Y-101989712D01*
X107621784Y-101989705D01*
X107553232Y-101921153D01*
X113199500Y-101921153D01*
X113199500Y-102078846D01*
X113230261Y-102233489D01*
X113230264Y-102233501D01*
X113290602Y-102379172D01*
X113290609Y-102379185D01*
X113378210Y-102510288D01*
X113378213Y-102510292D01*
X113489707Y-102621786D01*
X113489711Y-102621789D01*
X113620814Y-102709390D01*
X113620827Y-102709397D01*
X113766498Y-102769735D01*
X113766503Y-102769737D01*
X113921158Y-102800500D01*
X113921847Y-102800637D01*
X113983758Y-102833022D01*
X113985337Y-102834573D01*
X114131284Y-102980520D01*
X114131286Y-102980521D01*
X114131290Y-102980524D01*
X114268209Y-103059573D01*
X114268216Y-103059577D01*
X114420943Y-103100501D01*
X114420945Y-103100501D01*
X114586654Y-103100501D01*
X114586670Y-103100500D01*
X114920234Y-103100500D01*
X114987273Y-103120185D01*
X114989125Y-103121398D01*
X115120814Y-103209390D01*
X115120827Y-103209397D01*
X115237812Y-103257853D01*
X115266503Y-103269737D01*
X115395192Y-103295335D01*
X115421153Y-103300499D01*
X115421156Y-103300500D01*
X115421158Y-103300500D01*
X115578844Y-103300500D01*
X115578845Y-103300499D01*
X115733497Y-103269737D01*
X115879179Y-103209394D01*
X116010289Y-103121789D01*
X116121789Y-103010289D01*
X116209394Y-102879179D01*
X116269737Y-102733497D01*
X116300500Y-102578842D01*
X116300500Y-102421158D01*
X116300500Y-102421155D01*
X116300499Y-102421153D01*
X116291272Y-102374767D01*
X116269737Y-102266503D01*
X116254737Y-102230289D01*
X116209397Y-102120827D01*
X116209390Y-102120814D01*
X116121789Y-101989711D01*
X116121786Y-101989707D01*
X116010292Y-101878213D01*
X116010288Y-101878210D01*
X115879185Y-101790609D01*
X115879172Y-101790602D01*
X115733501Y-101730264D01*
X115733489Y-101730261D01*
X115578845Y-101699500D01*
X115578842Y-101699500D01*
X115421158Y-101699500D01*
X115421155Y-101699500D01*
X115266510Y-101730261D01*
X115266498Y-101730264D01*
X115120827Y-101790602D01*
X115120814Y-101790609D01*
X114989125Y-101878602D01*
X114971078Y-101884252D01*
X114955169Y-101894477D01*
X114924207Y-101898928D01*
X114922447Y-101899480D01*
X114920234Y-101899500D01*
X114897956Y-101899500D01*
X114830917Y-101879815D01*
X114785162Y-101827011D01*
X114776339Y-101799691D01*
X114769738Y-101766510D01*
X114769737Y-101766503D01*
X114756547Y-101734660D01*
X114709397Y-101620827D01*
X114709390Y-101620814D01*
X114621789Y-101489711D01*
X114621786Y-101489707D01*
X114510292Y-101378213D01*
X114510288Y-101378210D01*
X114379185Y-101290609D01*
X114379172Y-101290602D01*
X114233501Y-101230264D01*
X114233489Y-101230261D01*
X114078845Y-101199500D01*
X114078842Y-101199500D01*
X113921158Y-101199500D01*
X113921155Y-101199500D01*
X113766510Y-101230261D01*
X113766498Y-101230264D01*
X113620827Y-101290602D01*
X113620814Y-101290609D01*
X113489711Y-101378210D01*
X113489707Y-101378213D01*
X113378213Y-101489707D01*
X113378210Y-101489711D01*
X113290609Y-101620814D01*
X113290602Y-101620827D01*
X113230264Y-101766498D01*
X113230261Y-101766510D01*
X113199500Y-101921153D01*
X107553232Y-101921153D01*
X107510292Y-101878213D01*
X107510288Y-101878210D01*
X107379185Y-101790609D01*
X107379172Y-101790602D01*
X107233501Y-101730264D01*
X107233489Y-101730261D01*
X107078845Y-101699500D01*
X107078842Y-101699500D01*
X106921158Y-101699500D01*
X106921155Y-101699500D01*
X106766510Y-101730261D01*
X106766498Y-101730264D01*
X106620827Y-101790602D01*
X106620814Y-101790609D01*
X106489125Y-101878602D01*
X106422447Y-101899480D01*
X106420234Y-101899500D01*
X103579766Y-101899500D01*
X103512727Y-101879815D01*
X103510875Y-101878602D01*
X103379185Y-101790609D01*
X103379172Y-101790602D01*
X103233501Y-101730264D01*
X103233489Y-101730261D01*
X103078845Y-101699500D01*
X103078842Y-101699500D01*
X102921158Y-101699500D01*
X102921155Y-101699500D01*
X102766510Y-101730261D01*
X102766498Y-101730264D01*
X102620827Y-101790602D01*
X102620814Y-101790609D01*
X102489711Y-101878210D01*
X102489707Y-101878213D01*
X102378213Y-101989707D01*
X102378210Y-101989711D01*
X102290609Y-102120814D01*
X102290602Y-102120827D01*
X102230264Y-102266498D01*
X102230261Y-102266510D01*
X102199500Y-102421153D01*
X102199500Y-102578846D01*
X102230261Y-102733489D01*
X102230264Y-102733501D01*
X102290602Y-102879172D01*
X102290609Y-102879185D01*
X102378210Y-103010288D01*
X102378213Y-103010292D01*
X102489707Y-103121786D01*
X102489711Y-103121789D01*
X102565452Y-103172398D01*
X102610257Y-103226010D01*
X102618964Y-103295335D01*
X102588810Y-103358363D01*
X102529366Y-103395082D01*
X102496561Y-103399500D01*
X98800097Y-103399500D01*
X98733058Y-103379815D01*
X98712416Y-103363181D01*
X94627590Y-99278355D01*
X94627588Y-99278352D01*
X94508717Y-99159481D01*
X94508716Y-99159480D01*
X94421904Y-99109360D01*
X94421904Y-99109359D01*
X94421900Y-99109358D01*
X94371785Y-99080423D01*
X94219057Y-99039499D01*
X94060943Y-99039499D01*
X94053347Y-99039499D01*
X94053331Y-99039500D01*
X91729499Y-99039500D01*
X91662460Y-99019815D01*
X91616705Y-98967011D01*
X91605499Y-98915500D01*
X91605499Y-98827129D01*
X91605498Y-98827123D01*
X91605497Y-98827116D01*
X91599091Y-98767517D01*
X91585243Y-98730389D01*
X91548797Y-98632671D01*
X91548793Y-98632664D01*
X91462547Y-98517455D01*
X91462544Y-98517452D01*
X91347335Y-98431206D01*
X91347326Y-98431201D01*
X91336037Y-98426991D01*
X91336036Y-98426991D01*
X91212482Y-98380908D01*
X91212483Y-98380908D01*
X91152883Y-98374501D01*
X91152881Y-98374500D01*
X91152873Y-98374500D01*
X91152864Y-98374500D01*
X89527129Y-98374500D01*
X89527123Y-98374501D01*
X89467516Y-98380908D01*
X89332671Y-98431202D01*
X89332664Y-98431206D01*
X89217455Y-98517452D01*
X89217452Y-98517455D01*
X89131206Y-98632664D01*
X89131202Y-98632671D01*
X89080908Y-98767517D01*
X89075741Y-98815580D01*
X89074501Y-98827123D01*
X89074500Y-98827135D01*
X89074500Y-98859568D01*
X89054815Y-98926607D01*
X89002011Y-98972362D01*
X88932853Y-98982306D01*
X88869297Y-98953281D01*
X88850182Y-98932454D01*
X88797227Y-98859568D01*
X88765269Y-98815582D01*
X88624418Y-98674731D01*
X88463266Y-98557647D01*
X88384379Y-98517452D01*
X88285780Y-98467213D01*
X88096342Y-98405661D01*
X87948782Y-98382290D01*
X87899597Y-98374500D01*
X87700403Y-98374500D01*
X87634822Y-98384887D01*
X87503659Y-98405661D01*
X87503656Y-98405661D01*
X87314219Y-98467213D01*
X87136733Y-98557647D01*
X87098286Y-98585581D01*
X86975582Y-98674731D01*
X86975580Y-98674733D01*
X86975579Y-98674733D01*
X86834733Y-98815579D01*
X86834733Y-98815580D01*
X86834731Y-98815582D01*
X86802773Y-98859568D01*
X86717647Y-98976733D01*
X86640485Y-99128172D01*
X86592510Y-99178968D01*
X86524689Y-99195763D01*
X86458554Y-99173225D01*
X86419515Y-99128172D01*
X86342483Y-98976990D01*
X86342353Y-98976734D01*
X86225269Y-98815582D01*
X86084418Y-98674731D01*
X85923266Y-98557647D01*
X85844379Y-98517452D01*
X85745780Y-98467213D01*
X85556342Y-98405661D01*
X85408782Y-98382290D01*
X85359597Y-98374500D01*
X85160403Y-98374500D01*
X85094822Y-98384887D01*
X84963659Y-98405661D01*
X84963656Y-98405661D01*
X84774219Y-98467213D01*
X84596733Y-98557647D01*
X84558286Y-98585581D01*
X84435582Y-98674731D01*
X84435580Y-98674733D01*
X84435579Y-98674733D01*
X84294733Y-98815579D01*
X84294733Y-98815580D01*
X84294731Y-98815582D01*
X84262773Y-98859568D01*
X84177647Y-98976733D01*
X84100485Y-99128172D01*
X84052510Y-99178968D01*
X83984689Y-99195763D01*
X83918554Y-99173225D01*
X83879515Y-99128172D01*
X83802483Y-98976990D01*
X83802353Y-98976734D01*
X83685269Y-98815582D01*
X83544418Y-98674731D01*
X83383266Y-98557647D01*
X83304379Y-98517452D01*
X83205780Y-98467213D01*
X83016342Y-98405661D01*
X82868782Y-98382290D01*
X82819597Y-98374500D01*
X82620403Y-98374500D01*
X82554822Y-98384887D01*
X82423659Y-98405661D01*
X82423656Y-98405661D01*
X82234219Y-98467213D01*
X82056733Y-98557647D01*
X82018286Y-98585581D01*
X81895582Y-98674731D01*
X81895580Y-98674733D01*
X81895579Y-98674733D01*
X81754733Y-98815579D01*
X81754733Y-98815580D01*
X81754731Y-98815582D01*
X81722773Y-98859568D01*
X81637647Y-98976733D01*
X81560485Y-99128172D01*
X81512510Y-99178968D01*
X81444689Y-99195763D01*
X81378554Y-99173225D01*
X81339515Y-99128172D01*
X81262483Y-98976990D01*
X81262353Y-98976734D01*
X81145269Y-98815582D01*
X81004418Y-98674731D01*
X80843266Y-98557647D01*
X80764379Y-98517452D01*
X80665780Y-98467213D01*
X80476342Y-98405661D01*
X80328782Y-98382290D01*
X80279597Y-98374500D01*
X80080403Y-98374500D01*
X80014822Y-98384887D01*
X79883659Y-98405661D01*
X79883656Y-98405661D01*
X79694219Y-98467213D01*
X79516733Y-98557647D01*
X79478286Y-98585581D01*
X79355582Y-98674731D01*
X79355580Y-98674733D01*
X79355579Y-98674733D01*
X79214733Y-98815579D01*
X79214733Y-98815580D01*
X79214731Y-98815582D01*
X79182773Y-98859568D01*
X79097647Y-98976733D01*
X79020485Y-99128172D01*
X78972510Y-99178968D01*
X78904689Y-99195763D01*
X78838554Y-99173225D01*
X78799515Y-99128172D01*
X78722483Y-98976990D01*
X78722353Y-98976734D01*
X78605269Y-98815582D01*
X78464418Y-98674731D01*
X78303266Y-98557647D01*
X78224379Y-98517452D01*
X78125780Y-98467213D01*
X77936342Y-98405661D01*
X77788782Y-98382290D01*
X77739597Y-98374500D01*
X77540403Y-98374500D01*
X77474822Y-98384887D01*
X77343659Y-98405661D01*
X77343656Y-98405661D01*
X77154219Y-98467213D01*
X76976733Y-98557647D01*
X76938286Y-98585581D01*
X76815582Y-98674731D01*
X76815580Y-98674733D01*
X76815579Y-98674733D01*
X76674733Y-98815579D01*
X76674733Y-98815580D01*
X76674731Y-98815582D01*
X76642773Y-98859568D01*
X76557647Y-98976733D01*
X76480485Y-99128172D01*
X76432510Y-99178968D01*
X76364689Y-99195763D01*
X76298554Y-99173225D01*
X76259515Y-99128172D01*
X76182483Y-98976990D01*
X76182353Y-98976734D01*
X76065269Y-98815582D01*
X75924418Y-98674731D01*
X75763266Y-98557647D01*
X75684379Y-98517452D01*
X75585780Y-98467213D01*
X75396342Y-98405661D01*
X75248782Y-98382290D01*
X75199597Y-98374500D01*
X75000403Y-98374500D01*
X74934822Y-98384887D01*
X74803659Y-98405661D01*
X74803656Y-98405661D01*
X74614219Y-98467213D01*
X74436733Y-98557647D01*
X74398286Y-98585581D01*
X74275582Y-98674731D01*
X74275580Y-98674733D01*
X74275579Y-98674733D01*
X74134733Y-98815579D01*
X74134733Y-98815580D01*
X74134731Y-98815582D01*
X74102773Y-98859568D01*
X74017647Y-98976733D01*
X73940485Y-99128172D01*
X73892510Y-99178968D01*
X73824689Y-99195763D01*
X73758554Y-99173225D01*
X73719515Y-99128172D01*
X73642483Y-98976990D01*
X73642353Y-98976734D01*
X73525269Y-98815582D01*
X73384418Y-98674731D01*
X73223266Y-98557647D01*
X73144379Y-98517452D01*
X73045780Y-98467213D01*
X72856342Y-98405661D01*
X72708782Y-98382290D01*
X72659597Y-98374500D01*
X72460403Y-98374500D01*
X72394822Y-98384887D01*
X72263659Y-98405661D01*
X72263656Y-98405661D01*
X72074219Y-98467213D01*
X71896733Y-98557647D01*
X71858286Y-98585581D01*
X71735582Y-98674731D01*
X71735580Y-98674733D01*
X71735579Y-98674733D01*
X71594733Y-98815579D01*
X71594733Y-98815580D01*
X71594731Y-98815582D01*
X71562773Y-98859568D01*
X71477647Y-98976733D01*
X71400485Y-99128172D01*
X71352510Y-99178968D01*
X71284689Y-99195763D01*
X71218554Y-99173225D01*
X71179515Y-99128172D01*
X71102483Y-98976990D01*
X71102353Y-98976734D01*
X70985269Y-98815582D01*
X70844418Y-98674731D01*
X70683266Y-98557647D01*
X70604379Y-98517452D01*
X70505780Y-98467213D01*
X70316342Y-98405661D01*
X70168782Y-98382290D01*
X70119597Y-98374500D01*
X69920403Y-98374500D01*
X69854822Y-98384887D01*
X69723659Y-98405661D01*
X69723656Y-98405661D01*
X69534219Y-98467213D01*
X69356733Y-98557647D01*
X69318286Y-98585581D01*
X69195582Y-98674731D01*
X69195580Y-98674733D01*
X69195579Y-98674733D01*
X69054733Y-98815579D01*
X69054733Y-98815580D01*
X69054731Y-98815582D01*
X69022773Y-98859568D01*
X68937647Y-98976733D01*
X68860485Y-99128172D01*
X68812510Y-99178968D01*
X68744689Y-99195763D01*
X68678554Y-99173225D01*
X68639515Y-99128172D01*
X68562483Y-98976990D01*
X68562353Y-98976734D01*
X68445269Y-98815582D01*
X68304418Y-98674731D01*
X68143266Y-98557647D01*
X68064379Y-98517452D01*
X67965780Y-98467213D01*
X67776342Y-98405661D01*
X67628782Y-98382290D01*
X67579597Y-98374500D01*
X67380403Y-98374500D01*
X67314822Y-98384887D01*
X67183659Y-98405661D01*
X67183656Y-98405661D01*
X66994219Y-98467213D01*
X66816733Y-98557647D01*
X66778286Y-98585581D01*
X66655582Y-98674731D01*
X66655580Y-98674733D01*
X66655579Y-98674733D01*
X66514733Y-98815579D01*
X66514733Y-98815580D01*
X66514731Y-98815582D01*
X66482773Y-98859568D01*
X66397647Y-98976733D01*
X66320485Y-99128172D01*
X66272510Y-99178968D01*
X66204689Y-99195763D01*
X66138554Y-99173225D01*
X66099515Y-99128172D01*
X66022483Y-98976990D01*
X66022353Y-98976734D01*
X65905269Y-98815582D01*
X65764418Y-98674731D01*
X65603266Y-98557647D01*
X65524379Y-98517452D01*
X65425780Y-98467213D01*
X65236342Y-98405661D01*
X65088782Y-98382290D01*
X65039597Y-98374500D01*
X64840403Y-98374500D01*
X64774822Y-98384887D01*
X64643659Y-98405661D01*
X64643656Y-98405661D01*
X64454219Y-98467213D01*
X64276733Y-98557647D01*
X64238286Y-98585581D01*
X64115582Y-98674731D01*
X64115580Y-98674733D01*
X64115579Y-98674733D01*
X63974733Y-98815579D01*
X63974733Y-98815580D01*
X63974731Y-98815582D01*
X63942773Y-98859568D01*
X63857647Y-98976733D01*
X63780485Y-99128172D01*
X63732510Y-99178968D01*
X63664689Y-99195763D01*
X63598554Y-99173225D01*
X63559515Y-99128172D01*
X63482483Y-98976990D01*
X63482353Y-98976734D01*
X63365269Y-98815582D01*
X63224418Y-98674731D01*
X63063266Y-98557647D01*
X62984379Y-98517452D01*
X62885780Y-98467213D01*
X62696342Y-98405661D01*
X62548782Y-98382290D01*
X62499597Y-98374500D01*
X62300403Y-98374500D01*
X62234822Y-98384887D01*
X62103659Y-98405661D01*
X62103656Y-98405661D01*
X61914219Y-98467213D01*
X61736733Y-98557647D01*
X61698286Y-98585581D01*
X61575582Y-98674731D01*
X61575580Y-98674733D01*
X61575579Y-98674733D01*
X61434733Y-98815579D01*
X61434733Y-98815580D01*
X61434731Y-98815582D01*
X61402773Y-98859568D01*
X61317647Y-98976733D01*
X61240485Y-99128172D01*
X61192510Y-99178968D01*
X61124689Y-99195763D01*
X61058554Y-99173225D01*
X61019515Y-99128172D01*
X60942483Y-98976990D01*
X60942353Y-98976734D01*
X60825269Y-98815582D01*
X60684418Y-98674731D01*
X60523266Y-98557647D01*
X60444379Y-98517452D01*
X60345780Y-98467213D01*
X60156342Y-98405661D01*
X60008782Y-98382290D01*
X59959597Y-98374500D01*
X59760403Y-98374500D01*
X59694822Y-98384887D01*
X59563659Y-98405661D01*
X59563656Y-98405661D01*
X59374219Y-98467213D01*
X59196733Y-98557647D01*
X59158286Y-98585581D01*
X59035582Y-98674731D01*
X59035580Y-98674733D01*
X59035579Y-98674733D01*
X58894733Y-98815579D01*
X58894733Y-98815580D01*
X58894731Y-98815582D01*
X58862773Y-98859568D01*
X58777647Y-98976733D01*
X58700485Y-99128172D01*
X58652510Y-99178968D01*
X58584689Y-99195763D01*
X58518554Y-99173225D01*
X58479515Y-99128172D01*
X58402483Y-98976990D01*
X58402353Y-98976734D01*
X58285269Y-98815582D01*
X58144418Y-98674731D01*
X57983266Y-98557647D01*
X57904379Y-98517452D01*
X57805780Y-98467213D01*
X57616342Y-98405661D01*
X57468782Y-98382290D01*
X57419597Y-98374500D01*
X57220403Y-98374500D01*
X57154822Y-98384887D01*
X57023659Y-98405661D01*
X57023656Y-98405661D01*
X56834219Y-98467213D01*
X56656733Y-98557647D01*
X56618286Y-98585581D01*
X56495582Y-98674731D01*
X56495580Y-98674733D01*
X56495579Y-98674733D01*
X56354733Y-98815579D01*
X56354733Y-98815580D01*
X56354731Y-98815582D01*
X56322773Y-98859568D01*
X56237647Y-98976733D01*
X56160485Y-99128172D01*
X56112510Y-99178968D01*
X56044689Y-99195763D01*
X55978554Y-99173225D01*
X55939515Y-99128172D01*
X55862483Y-98976990D01*
X55862353Y-98976734D01*
X55745269Y-98815582D01*
X55604418Y-98674731D01*
X55443266Y-98557647D01*
X55364379Y-98517452D01*
X55265780Y-98467213D01*
X55076342Y-98405661D01*
X54928782Y-98382290D01*
X54879597Y-98374500D01*
X54680403Y-98374500D01*
X54614822Y-98384887D01*
X54483659Y-98405661D01*
X54483656Y-98405661D01*
X54294219Y-98467213D01*
X54116733Y-98557647D01*
X54078286Y-98585581D01*
X53955582Y-98674731D01*
X53955580Y-98674733D01*
X53955579Y-98674733D01*
X53814733Y-98815579D01*
X53814733Y-98815580D01*
X53814731Y-98815582D01*
X53782773Y-98859568D01*
X53697647Y-98976733D01*
X53620485Y-99128172D01*
X53572510Y-99178968D01*
X53504689Y-99195763D01*
X53438554Y-99173225D01*
X53399515Y-99128172D01*
X53322483Y-98976990D01*
X53322353Y-98976734D01*
X53205269Y-98815582D01*
X53064418Y-98674731D01*
X52903266Y-98557647D01*
X52824379Y-98517452D01*
X52725780Y-98467213D01*
X52536342Y-98405661D01*
X52388782Y-98382290D01*
X52339597Y-98374500D01*
X52140403Y-98374500D01*
X52074822Y-98384887D01*
X51943659Y-98405661D01*
X51943656Y-98405661D01*
X51754219Y-98467213D01*
X51576733Y-98557647D01*
X51538286Y-98585581D01*
X51415582Y-98674731D01*
X51415580Y-98674733D01*
X51415579Y-98674733D01*
X51274733Y-98815579D01*
X51274733Y-98815580D01*
X51274731Y-98815582D01*
X51242773Y-98859568D01*
X51157647Y-98976733D01*
X51080485Y-99128172D01*
X51032510Y-99178968D01*
X50964689Y-99195763D01*
X50898554Y-99173225D01*
X50859515Y-99128172D01*
X50782483Y-98976990D01*
X50782353Y-98976734D01*
X50665269Y-98815582D01*
X50524418Y-98674731D01*
X50363266Y-98557647D01*
X50284379Y-98517452D01*
X50185780Y-98467213D01*
X49996342Y-98405661D01*
X49848782Y-98382290D01*
X49799597Y-98374500D01*
X49600403Y-98374500D01*
X49534822Y-98384887D01*
X49403659Y-98405661D01*
X49403656Y-98405661D01*
X49214219Y-98467213D01*
X49036733Y-98557647D01*
X48998286Y-98585581D01*
X48875582Y-98674731D01*
X48875580Y-98674733D01*
X48875579Y-98674733D01*
X48734733Y-98815579D01*
X48734733Y-98815580D01*
X48734731Y-98815582D01*
X48702773Y-98859568D01*
X48617647Y-98976733D01*
X48540485Y-99128172D01*
X48492510Y-99178968D01*
X48424689Y-99195763D01*
X48358554Y-99173225D01*
X48319515Y-99128172D01*
X48242483Y-98976990D01*
X48242353Y-98976734D01*
X48125269Y-98815582D01*
X47984418Y-98674731D01*
X47823266Y-98557647D01*
X47744379Y-98517452D01*
X47645780Y-98467213D01*
X47456342Y-98405661D01*
X47308782Y-98382290D01*
X47259597Y-98374500D01*
X47060403Y-98374500D01*
X46994822Y-98384887D01*
X46863659Y-98405661D01*
X46863656Y-98405661D01*
X46674219Y-98467213D01*
X46496733Y-98557647D01*
X46458286Y-98585581D01*
X46335582Y-98674731D01*
X46335580Y-98674733D01*
X46335579Y-98674733D01*
X46194733Y-98815579D01*
X46194733Y-98815580D01*
X46194731Y-98815582D01*
X46162773Y-98859568D01*
X46077647Y-98976733D01*
X46000485Y-99128172D01*
X45952510Y-99178968D01*
X45884689Y-99195763D01*
X45818554Y-99173225D01*
X45779515Y-99128172D01*
X45702483Y-98976990D01*
X45702353Y-98976734D01*
X45585269Y-98815582D01*
X45444418Y-98674731D01*
X45283266Y-98557647D01*
X45204379Y-98517452D01*
X45105780Y-98467213D01*
X44916342Y-98405661D01*
X44768782Y-98382290D01*
X44719597Y-98374500D01*
X44520403Y-98374500D01*
X44454822Y-98384887D01*
X44323659Y-98405661D01*
X44323656Y-98405661D01*
X44134219Y-98467213D01*
X43956733Y-98557647D01*
X43918286Y-98585581D01*
X43795582Y-98674731D01*
X43795580Y-98674733D01*
X43795579Y-98674733D01*
X43654733Y-98815579D01*
X43654733Y-98815580D01*
X43654731Y-98815582D01*
X43622773Y-98859568D01*
X43537647Y-98976733D01*
X43460485Y-99128172D01*
X43412510Y-99178968D01*
X43344689Y-99195763D01*
X43278554Y-99173225D01*
X43239515Y-99128172D01*
X43162483Y-98976990D01*
X43162353Y-98976734D01*
X43045269Y-98815582D01*
X42904418Y-98674731D01*
X42743266Y-98557647D01*
X42664379Y-98517452D01*
X42565780Y-98467213D01*
X42376342Y-98405661D01*
X42228782Y-98382290D01*
X42179597Y-98374500D01*
X41980403Y-98374500D01*
X41914822Y-98384887D01*
X41783659Y-98405661D01*
X41783656Y-98405661D01*
X41594219Y-98467213D01*
X41416733Y-98557647D01*
X41378286Y-98585581D01*
X41255582Y-98674731D01*
X41255580Y-98674733D01*
X41255579Y-98674733D01*
X41114733Y-98815579D01*
X41114733Y-98815580D01*
X41114731Y-98815582D01*
X41082773Y-98859568D01*
X40997647Y-98976733D01*
X40920485Y-99128172D01*
X40872510Y-99178968D01*
X40804689Y-99195763D01*
X40738554Y-99173225D01*
X40699515Y-99128172D01*
X40622483Y-98976990D01*
X40622353Y-98976734D01*
X40505269Y-98815582D01*
X40364418Y-98674731D01*
X40203266Y-98557647D01*
X40124379Y-98517452D01*
X40025780Y-98467213D01*
X39836342Y-98405661D01*
X39688782Y-98382290D01*
X39639597Y-98374500D01*
X39440403Y-98374500D01*
X39374822Y-98384887D01*
X39243659Y-98405661D01*
X39243656Y-98405661D01*
X39054219Y-98467213D01*
X38876733Y-98557647D01*
X38838286Y-98585581D01*
X38715582Y-98674731D01*
X38715580Y-98674733D01*
X38715579Y-98674733D01*
X38574733Y-98815579D01*
X38574733Y-98815580D01*
X38574731Y-98815582D01*
X38542773Y-98859568D01*
X38457645Y-98976735D01*
X38380203Y-99128723D01*
X38332229Y-99179518D01*
X38264408Y-99196313D01*
X38198273Y-99173775D01*
X38159234Y-99128722D01*
X38081924Y-98976994D01*
X38054417Y-98939135D01*
X38054417Y-98939134D01*
X37491128Y-99502424D01*
X37475245Y-99443147D01*
X37408102Y-99326853D01*
X37313147Y-99231898D01*
X37196853Y-99164755D01*
X37137574Y-99148871D01*
X37700864Y-98585581D01*
X37700863Y-98585580D01*
X37663008Y-98558077D01*
X37485594Y-98467679D01*
X37296222Y-98406147D01*
X37099563Y-98375000D01*
X36900437Y-98375000D01*
X36703777Y-98406147D01*
X36514405Y-98467679D01*
X36336990Y-98558077D01*
X36299135Y-98585580D01*
X36299135Y-98585581D01*
X36862425Y-99148871D01*
X36803147Y-99164755D01*
X36686853Y-99231898D01*
X36591898Y-99326853D01*
X36524755Y-99443147D01*
X36508871Y-99502425D01*
X35945581Y-98939135D01*
X35945580Y-98939135D01*
X35918077Y-98976990D01*
X35827679Y-99154403D01*
X35767431Y-99339829D01*
X35727993Y-99397504D01*
X35663635Y-99424702D01*
X35594788Y-99412787D01*
X35543313Y-99365543D01*
X35525500Y-99301510D01*
X35525500Y-98315675D01*
X122674500Y-98315675D01*
X122674500Y-98524324D01*
X122707137Y-98730389D01*
X122771612Y-98928820D01*
X122863602Y-99109360D01*
X122866330Y-99114714D01*
X122988965Y-99283505D01*
X123136495Y-99431035D01*
X123305286Y-99553670D01*
X123342943Y-99572857D01*
X123356010Y-99579515D01*
X123406806Y-99627490D01*
X123423601Y-99695310D01*
X123401064Y-99761445D01*
X123356010Y-99800485D01*
X123305285Y-99826330D01*
X123136493Y-99948966D01*
X122988966Y-100096493D01*
X122866330Y-100265285D01*
X122771612Y-100451179D01*
X122707137Y-100649610D01*
X122674500Y-100855675D01*
X122674500Y-101064324D01*
X122707137Y-101270389D01*
X122771612Y-101468820D01*
X122849057Y-101620814D01*
X122866330Y-101654714D01*
X122988965Y-101823505D01*
X123136495Y-101971035D01*
X123305286Y-102093670D01*
X123352271Y-102117610D01*
X123356010Y-102119515D01*
X123406806Y-102167490D01*
X123423601Y-102235310D01*
X123401064Y-102301445D01*
X123356010Y-102340485D01*
X123305285Y-102366330D01*
X123136493Y-102488966D01*
X122988966Y-102636493D01*
X122866330Y-102805285D01*
X122771612Y-102991179D01*
X122707137Y-103189610D01*
X122674500Y-103395675D01*
X122674500Y-103604324D01*
X122707137Y-103810389D01*
X122771612Y-104008820D01*
X122866330Y-104194714D01*
X122988965Y-104363505D01*
X123136495Y-104511035D01*
X123305286Y-104633670D01*
X123352271Y-104657610D01*
X123356010Y-104659515D01*
X123406806Y-104707490D01*
X123423601Y-104775310D01*
X123401064Y-104841445D01*
X123356010Y-104880485D01*
X123305285Y-104906330D01*
X123136493Y-105028966D01*
X122988966Y-105176493D01*
X122866330Y-105345285D01*
X122771612Y-105531179D01*
X122707137Y-105729610D01*
X122674500Y-105935675D01*
X122674500Y-106144324D01*
X122707137Y-106350389D01*
X122771612Y-106548820D01*
X122808302Y-106620827D01*
X122866330Y-106734714D01*
X122988965Y-106903505D01*
X123136495Y-107051035D01*
X123305286Y-107173670D01*
X123393116Y-107218421D01*
X123491179Y-107268387D01*
X123491181Y-107268387D01*
X123491184Y-107268389D01*
X123585352Y-107298986D01*
X123689610Y-107332862D01*
X123895676Y-107365500D01*
X123895681Y-107365500D01*
X124104324Y-107365500D01*
X124310389Y-107332862D01*
X124508816Y-107268389D01*
X124694714Y-107173670D01*
X124863505Y-107051035D01*
X125011035Y-106903505D01*
X125133670Y-106734714D01*
X125228389Y-106548816D01*
X125292862Y-106350389D01*
X125325500Y-106144324D01*
X125325500Y-105935675D01*
X125292862Y-105729610D01*
X125228387Y-105531179D01*
X125133669Y-105345285D01*
X125011035Y-105176495D01*
X124863505Y-105028965D01*
X124807241Y-104988086D01*
X124694712Y-104906328D01*
X124643990Y-104880485D01*
X124593194Y-104832511D01*
X124576398Y-104764690D01*
X124598935Y-104698555D01*
X124643990Y-104659515D01*
X124694712Y-104633671D01*
X124694711Y-104633671D01*
X124694714Y-104633670D01*
X124863505Y-104511035D01*
X125011035Y-104363505D01*
X125133670Y-104194714D01*
X125228389Y-104008816D01*
X125292862Y-103810389D01*
X125320353Y-103636819D01*
X125325500Y-103604324D01*
X125325500Y-103395675D01*
X125292862Y-103189610D01*
X125250610Y-103059573D01*
X125228389Y-102991184D01*
X125228387Y-102991181D01*
X125228387Y-102991179D01*
X125133669Y-102805285D01*
X125130292Y-102800637D01*
X125011035Y-102636495D01*
X124863505Y-102488965D01*
X124807241Y-102448086D01*
X124694712Y-102366328D01*
X124643990Y-102340485D01*
X124593194Y-102292511D01*
X124576398Y-102224690D01*
X124598935Y-102158555D01*
X124643990Y-102119515D01*
X124694712Y-102093671D01*
X124694711Y-102093671D01*
X124694714Y-102093670D01*
X124863505Y-101971035D01*
X125011035Y-101823505D01*
X125133670Y-101654714D01*
X125228389Y-101468816D01*
X125292862Y-101270389D01*
X125299218Y-101230261D01*
X125325500Y-101064324D01*
X125325500Y-100855675D01*
X125292862Y-100649610D01*
X125248306Y-100512482D01*
X125228389Y-100451184D01*
X125228387Y-100451181D01*
X125228387Y-100451179D01*
X125153843Y-100304878D01*
X125133670Y-100265286D01*
X125011035Y-100096495D01*
X124863505Y-99948965D01*
X124748895Y-99865695D01*
X124694712Y-99826328D01*
X124643990Y-99800485D01*
X124593194Y-99752511D01*
X124576398Y-99684690D01*
X124598935Y-99618555D01*
X124643990Y-99579515D01*
X124694712Y-99553671D01*
X124694711Y-99553671D01*
X124694714Y-99553670D01*
X124863505Y-99431035D01*
X125011035Y-99283505D01*
X125133670Y-99114714D01*
X125228389Y-98928816D01*
X125292862Y-98730389D01*
X125308339Y-98632671D01*
X125325500Y-98524324D01*
X125325500Y-98315675D01*
X125292862Y-98109610D01*
X125228387Y-97911179D01*
X125133669Y-97725285D01*
X125011035Y-97556495D01*
X124863505Y-97408965D01*
X124694714Y-97286330D01*
X124508820Y-97191612D01*
X124310389Y-97127137D01*
X124104324Y-97094500D01*
X124104319Y-97094500D01*
X123895681Y-97094500D01*
X123895676Y-97094500D01*
X123689610Y-97127137D01*
X123491179Y-97191612D01*
X123305285Y-97286330D01*
X123136493Y-97408966D01*
X122988966Y-97556493D01*
X122866330Y-97725285D01*
X122771612Y-97911179D01*
X122707137Y-98109610D01*
X122674500Y-98315675D01*
X35525500Y-98315675D01*
X35525500Y-92348336D01*
X37299500Y-92348336D01*
X37299500Y-92651663D01*
X37333457Y-92953048D01*
X37333460Y-92953062D01*
X37400953Y-93248771D01*
X37400957Y-93248783D01*
X37501133Y-93535068D01*
X37632733Y-93808338D01*
X37632735Y-93808341D01*
X37794108Y-94065164D01*
X37983221Y-94302304D01*
X38197696Y-94516779D01*
X38434836Y-94705892D01*
X38691659Y-94867265D01*
X38964935Y-94998868D01*
X39179951Y-95074105D01*
X39251216Y-95099042D01*
X39251228Y-95099046D01*
X39546937Y-95166540D01*
X39546946Y-95166541D01*
X39546951Y-95166542D01*
X39747874Y-95189180D01*
X39848337Y-95200499D01*
X39848340Y-95200500D01*
X39848343Y-95200500D01*
X40151660Y-95200500D01*
X40151661Y-95200499D01*
X40307676Y-95182921D01*
X40453048Y-95166542D01*
X40453051Y-95166541D01*
X40453063Y-95166540D01*
X40748772Y-95099046D01*
X41035065Y-94998868D01*
X41308341Y-94867265D01*
X41565164Y-94705892D01*
X41802304Y-94516779D01*
X41923363Y-94395720D01*
X63345000Y-94395720D01*
X63345000Y-94604279D01*
X63377626Y-94810272D01*
X63442075Y-95008627D01*
X63536759Y-95194451D01*
X63572627Y-95243818D01*
X63572627Y-95243819D01*
X64146212Y-94670233D01*
X64157482Y-94712292D01*
X64229890Y-94837708D01*
X64332292Y-94940110D01*
X64457708Y-95012518D01*
X64499765Y-95023787D01*
X63926179Y-95597371D01*
X63926180Y-95597372D01*
X63975543Y-95633236D01*
X63975556Y-95633244D01*
X64161372Y-95727924D01*
X64359727Y-95792373D01*
X64565721Y-95825000D01*
X64774279Y-95825000D01*
X64980272Y-95792373D01*
X65178627Y-95727924D01*
X65364451Y-95633240D01*
X65413818Y-95597372D01*
X65413818Y-95597371D01*
X64840234Y-95023787D01*
X64882292Y-95012518D01*
X65007708Y-94940110D01*
X65110110Y-94837708D01*
X65182518Y-94712292D01*
X65193787Y-94670234D01*
X65767371Y-95243818D01*
X65767372Y-95243818D01*
X65803242Y-95194449D01*
X65803242Y-95194448D01*
X65829233Y-95143438D01*
X65877206Y-95092642D01*
X65945027Y-95075846D01*
X66011162Y-95098383D01*
X66050203Y-95143437D01*
X66076330Y-95194714D01*
X66198965Y-95363505D01*
X66346495Y-95511035D01*
X66515286Y-95633670D01*
X66603116Y-95678421D01*
X66701179Y-95728387D01*
X66701181Y-95728387D01*
X66701184Y-95728389D01*
X66807545Y-95762948D01*
X66899610Y-95792862D01*
X67105676Y-95825500D01*
X67105681Y-95825500D01*
X67314324Y-95825500D01*
X67520389Y-95792862D01*
X67521894Y-95792373D01*
X67718816Y-95728389D01*
X67904714Y-95633670D01*
X68073505Y-95511035D01*
X68221035Y-95363505D01*
X68343670Y-95194714D01*
X68369515Y-95143990D01*
X68417489Y-95093194D01*
X68485310Y-95076398D01*
X68551445Y-95098935D01*
X68590485Y-95143990D01*
X68616328Y-95194712D01*
X68652006Y-95243818D01*
X68738965Y-95363505D01*
X68886495Y-95511035D01*
X69055286Y-95633670D01*
X69143116Y-95678421D01*
X69241179Y-95728387D01*
X69241181Y-95728387D01*
X69241184Y-95728389D01*
X69347545Y-95762948D01*
X69439610Y-95792862D01*
X69645676Y-95825500D01*
X69645681Y-95825500D01*
X69854324Y-95825500D01*
X70060389Y-95792862D01*
X70061894Y-95792373D01*
X70258816Y-95728389D01*
X70444714Y-95633670D01*
X70613505Y-95511035D01*
X70761035Y-95363505D01*
X70883670Y-95194714D01*
X70909515Y-95143990D01*
X70957489Y-95093194D01*
X71025310Y-95076398D01*
X71091445Y-95098935D01*
X71130485Y-95143990D01*
X71156328Y-95194712D01*
X71192006Y-95243818D01*
X71278965Y-95363505D01*
X71426495Y-95511035D01*
X71595286Y-95633670D01*
X71683116Y-95678421D01*
X71781179Y-95728387D01*
X71781181Y-95728387D01*
X71781184Y-95728389D01*
X71887545Y-95762948D01*
X71979610Y-95792862D01*
X72185676Y-95825500D01*
X72185681Y-95825500D01*
X72394324Y-95825500D01*
X72600389Y-95792862D01*
X72601894Y-95792373D01*
X72798816Y-95728389D01*
X72984714Y-95633670D01*
X73153505Y-95511035D01*
X73301035Y-95363505D01*
X73423670Y-95194714D01*
X73518389Y-95008816D01*
X73582862Y-94810389D01*
X73599413Y-94705892D01*
X73615500Y-94604324D01*
X73615500Y-94397446D01*
X103927000Y-94397446D01*
X103927000Y-94602553D01*
X103959083Y-94805114D01*
X103959084Y-94805120D01*
X104007258Y-94953384D01*
X104022464Y-95000182D01*
X104086497Y-95125853D01*
X104107228Y-95166540D01*
X104115577Y-95182924D01*
X104236121Y-95348840D01*
X104236125Y-95348845D01*
X104381154Y-95493874D01*
X104381159Y-95493878D01*
X104525880Y-95599023D01*
X104547079Y-95614425D01*
X104663522Y-95673755D01*
X104729817Y-95707535D01*
X104729819Y-95707535D01*
X104729822Y-95707537D01*
X104924880Y-95770916D01*
X105026166Y-95786958D01*
X105127447Y-95803000D01*
X105127452Y-95803000D01*
X105332553Y-95803000D01*
X105424626Y-95788416D01*
X105535120Y-95770916D01*
X105730178Y-95707537D01*
X105912921Y-95614425D01*
X106078847Y-95493873D01*
X106223873Y-95348847D01*
X106246317Y-95317955D01*
X106301645Y-95275289D01*
X106371259Y-95269308D01*
X106433054Y-95301913D01*
X106467413Y-95362751D01*
X106469926Y-95377585D01*
X106473408Y-95409983D01*
X106523702Y-95544828D01*
X106523706Y-95544835D01*
X106609952Y-95660044D01*
X106609955Y-95660047D01*
X106725164Y-95746293D01*
X106725171Y-95746297D01*
X106860017Y-95796591D01*
X106860016Y-95796591D01*
X106866944Y-95797335D01*
X106919627Y-95803000D01*
X108620372Y-95802999D01*
X108679983Y-95796591D01*
X108814831Y-95746296D01*
X108930046Y-95660046D01*
X109016296Y-95544831D01*
X109066591Y-95409983D01*
X109073000Y-95350373D01*
X109072999Y-93649635D01*
X111657000Y-93649635D01*
X111657000Y-95350370D01*
X111657001Y-95350376D01*
X111663408Y-95409983D01*
X111713702Y-95544828D01*
X111713706Y-95544835D01*
X111799952Y-95660044D01*
X111799955Y-95660047D01*
X111915164Y-95746293D01*
X111915171Y-95746297D01*
X112050017Y-95796591D01*
X112050016Y-95796591D01*
X112056944Y-95797335D01*
X112109627Y-95803000D01*
X113810372Y-95802999D01*
X113869983Y-95796591D01*
X114004831Y-95746296D01*
X114120046Y-95660046D01*
X114206296Y-95544831D01*
X114256591Y-95409983D01*
X114260074Y-95377580D01*
X114286811Y-95313034D01*
X114344202Y-95273185D01*
X114414028Y-95270690D01*
X114474117Y-95306342D01*
X114483681Y-95317954D01*
X114506121Y-95348840D01*
X114506125Y-95348845D01*
X114651154Y-95493874D01*
X114651159Y-95493878D01*
X114795880Y-95599023D01*
X114817079Y-95614425D01*
X114933522Y-95673755D01*
X114999817Y-95707535D01*
X114999819Y-95707535D01*
X114999822Y-95707537D01*
X115194880Y-95770916D01*
X115296166Y-95786958D01*
X115397447Y-95803000D01*
X115397452Y-95803000D01*
X115602553Y-95803000D01*
X115694626Y-95788416D01*
X115805120Y-95770916D01*
X116000178Y-95707537D01*
X116182921Y-95614425D01*
X116348847Y-95493873D01*
X116493873Y-95348847D01*
X116614425Y-95182921D01*
X116707537Y-95000178D01*
X116770916Y-94805120D01*
X116802720Y-94604319D01*
X116803000Y-94602553D01*
X116803000Y-94397446D01*
X116785499Y-94286958D01*
X116770916Y-94194880D01*
X116707537Y-93999822D01*
X116707535Y-93999819D01*
X116707535Y-93999817D01*
X116668982Y-93924153D01*
X116614425Y-93817079D01*
X116599023Y-93795880D01*
X116493878Y-93651159D01*
X116493874Y-93651154D01*
X116348845Y-93506125D01*
X116348840Y-93506121D01*
X116182924Y-93385577D01*
X116182923Y-93385576D01*
X116182921Y-93385575D01*
X116093381Y-93339952D01*
X116000182Y-93292464D01*
X115936003Y-93271611D01*
X115805120Y-93229084D01*
X115805114Y-93229083D01*
X115602553Y-93197000D01*
X115602548Y-93197000D01*
X115397452Y-93197000D01*
X115397447Y-93197000D01*
X115194885Y-93229083D01*
X115194883Y-93229083D01*
X115194880Y-93229084D01*
X115097351Y-93260773D01*
X114999817Y-93292464D01*
X114817075Y-93385577D01*
X114651159Y-93506121D01*
X114651154Y-93506125D01*
X114506125Y-93651154D01*
X114506124Y-93651156D01*
X114483680Y-93682047D01*
X114428350Y-93724712D01*
X114358736Y-93730690D01*
X114296942Y-93698083D01*
X114262585Y-93637244D01*
X114260073Y-93622411D01*
X114256591Y-93590017D01*
X114206297Y-93455171D01*
X114206293Y-93455164D01*
X114120047Y-93339955D01*
X114120044Y-93339952D01*
X114004835Y-93253706D01*
X114004828Y-93253702D01*
X113869982Y-93203408D01*
X113869983Y-93203408D01*
X113810383Y-93197001D01*
X113810381Y-93197000D01*
X113810373Y-93197000D01*
X113810364Y-93197000D01*
X112109629Y-93197000D01*
X112109623Y-93197001D01*
X112050016Y-93203408D01*
X111915171Y-93253702D01*
X111915164Y-93253706D01*
X111799955Y-93339952D01*
X111799952Y-93339955D01*
X111713706Y-93455164D01*
X111713702Y-93455171D01*
X111663408Y-93590017D01*
X111657001Y-93649616D01*
X111657000Y-93649635D01*
X109072999Y-93649635D01*
X109072999Y-93649628D01*
X109066591Y-93590017D01*
X109046099Y-93535076D01*
X109016297Y-93455171D01*
X109016293Y-93455164D01*
X108930047Y-93339955D01*
X108930044Y-93339952D01*
X108814835Y-93253706D01*
X108814828Y-93253702D01*
X108679982Y-93203408D01*
X108679983Y-93203408D01*
X108620383Y-93197001D01*
X108620381Y-93197000D01*
X108620373Y-93197000D01*
X108620364Y-93197000D01*
X106919629Y-93197000D01*
X106919623Y-93197001D01*
X106860016Y-93203408D01*
X106725171Y-93253702D01*
X106725164Y-93253706D01*
X106609955Y-93339952D01*
X106609952Y-93339955D01*
X106523706Y-93455164D01*
X106523702Y-93455171D01*
X106473408Y-93590016D01*
X106469925Y-93622417D01*
X106443186Y-93686968D01*
X106385793Y-93726815D01*
X106315968Y-93729308D01*
X106255880Y-93693654D01*
X106246317Y-93682045D01*
X106223873Y-93651154D01*
X106223873Y-93651153D01*
X106078847Y-93506127D01*
X106078845Y-93506125D01*
X106078840Y-93506121D01*
X105912924Y-93385577D01*
X105912923Y-93385576D01*
X105912921Y-93385575D01*
X105823381Y-93339952D01*
X105730182Y-93292464D01*
X105666003Y-93271611D01*
X105535120Y-93229084D01*
X105535114Y-93229083D01*
X105332553Y-93197000D01*
X105332548Y-93197000D01*
X105127452Y-93197000D01*
X105127447Y-93197000D01*
X104924885Y-93229083D01*
X104924883Y-93229083D01*
X104924880Y-93229084D01*
X104827351Y-93260773D01*
X104729817Y-93292464D01*
X104547075Y-93385577D01*
X104381159Y-93506121D01*
X104381154Y-93506125D01*
X104236125Y-93651154D01*
X104236121Y-93651159D01*
X104115577Y-93817075D01*
X104022464Y-93999817D01*
X104002945Y-94059890D01*
X103959084Y-94194880D01*
X103959083Y-94194883D01*
X103959083Y-94194885D01*
X103927000Y-94397446D01*
X73615500Y-94397446D01*
X73615500Y-94395675D01*
X73582862Y-94189610D01*
X73540713Y-94059890D01*
X73518389Y-93991184D01*
X73518387Y-93991181D01*
X73518387Y-93991179D01*
X73449515Y-93856010D01*
X73423670Y-93805286D01*
X73301035Y-93636495D01*
X73153505Y-93488965D01*
X72984714Y-93366330D01*
X72932944Y-93339952D01*
X72798820Y-93271612D01*
X72600389Y-93207137D01*
X72394324Y-93174500D01*
X72394319Y-93174500D01*
X72185681Y-93174500D01*
X72185676Y-93174500D01*
X71979610Y-93207137D01*
X71781179Y-93271612D01*
X71595285Y-93366330D01*
X71426493Y-93488966D01*
X71278966Y-93636493D01*
X71156330Y-93805285D01*
X71130485Y-93856010D01*
X71082510Y-93906806D01*
X71014690Y-93923601D01*
X70948555Y-93901064D01*
X70909515Y-93856010D01*
X70907610Y-93852271D01*
X70883670Y-93805286D01*
X70761035Y-93636495D01*
X70613505Y-93488965D01*
X70444714Y-93366330D01*
X70392944Y-93339952D01*
X70258820Y-93271612D01*
X70060389Y-93207137D01*
X69854324Y-93174500D01*
X69854319Y-93174500D01*
X69645681Y-93174500D01*
X69645676Y-93174500D01*
X69439610Y-93207137D01*
X69241179Y-93271612D01*
X69055285Y-93366330D01*
X68886493Y-93488966D01*
X68738966Y-93636493D01*
X68616330Y-93805285D01*
X68590485Y-93856010D01*
X68542510Y-93906806D01*
X68474690Y-93923601D01*
X68408555Y-93901064D01*
X68369515Y-93856010D01*
X68367610Y-93852271D01*
X68343670Y-93805286D01*
X68221035Y-93636495D01*
X68073505Y-93488965D01*
X67904714Y-93366330D01*
X67852944Y-93339952D01*
X67718820Y-93271612D01*
X67520389Y-93207137D01*
X67314324Y-93174500D01*
X67314319Y-93174500D01*
X67105681Y-93174500D01*
X67105676Y-93174500D01*
X66899610Y-93207137D01*
X66701179Y-93271612D01*
X66515285Y-93366330D01*
X66346493Y-93488966D01*
X66198966Y-93636493D01*
X66076328Y-93805288D01*
X66050202Y-93856563D01*
X66002227Y-93907358D01*
X65934406Y-93924153D01*
X65868272Y-93901615D01*
X65829233Y-93856561D01*
X65803247Y-93805561D01*
X65803236Y-93805543D01*
X65767372Y-93756180D01*
X65767371Y-93756179D01*
X65193787Y-94329764D01*
X65182518Y-94287708D01*
X65110110Y-94162292D01*
X65007708Y-94059890D01*
X64882292Y-93987482D01*
X64840233Y-93976212D01*
X65413819Y-93402627D01*
X65364451Y-93366759D01*
X65178627Y-93272075D01*
X64980272Y-93207626D01*
X64774279Y-93175000D01*
X64565721Y-93175000D01*
X64359727Y-93207626D01*
X64161372Y-93272075D01*
X63975552Y-93366757D01*
X63926180Y-93402627D01*
X64499766Y-93976212D01*
X64457708Y-93987482D01*
X64332292Y-94059890D01*
X64229890Y-94162292D01*
X64157482Y-94287708D01*
X64146212Y-94329765D01*
X63572627Y-93756180D01*
X63536757Y-93805552D01*
X63442075Y-93991372D01*
X63377626Y-94189727D01*
X63345000Y-94395720D01*
X41923363Y-94395720D01*
X42016779Y-94302304D01*
X42205892Y-94065164D01*
X42367265Y-93808341D01*
X42498868Y-93535065D01*
X42599046Y-93248772D01*
X42666540Y-92953063D01*
X42700500Y-92651657D01*
X42700500Y-92348343D01*
X42700499Y-92348336D01*
X129799500Y-92348336D01*
X129799500Y-92651663D01*
X129833457Y-92953048D01*
X129833460Y-92953062D01*
X129900953Y-93248771D01*
X129900957Y-93248783D01*
X130001133Y-93535068D01*
X130132733Y-93808338D01*
X130132735Y-93808341D01*
X130294108Y-94065164D01*
X130483221Y-94302304D01*
X130697696Y-94516779D01*
X130934836Y-94705892D01*
X131191659Y-94867265D01*
X131464935Y-94998868D01*
X131679951Y-95074105D01*
X131751216Y-95099042D01*
X131751228Y-95099046D01*
X132046937Y-95166540D01*
X132046946Y-95166541D01*
X132046951Y-95166542D01*
X132247874Y-95189180D01*
X132348337Y-95200499D01*
X132348340Y-95200500D01*
X132348343Y-95200500D01*
X132651660Y-95200500D01*
X132651661Y-95200499D01*
X132807676Y-95182921D01*
X132953048Y-95166542D01*
X132953051Y-95166541D01*
X132953063Y-95166540D01*
X133248772Y-95099046D01*
X133535065Y-94998868D01*
X133808341Y-94867265D01*
X134065164Y-94705892D01*
X134302304Y-94516779D01*
X134516779Y-94302304D01*
X134705892Y-94065164D01*
X134867265Y-93808341D01*
X134998868Y-93535065D01*
X135099046Y-93248772D01*
X135166540Y-92953063D01*
X135200500Y-92651657D01*
X135200500Y-92348343D01*
X135166540Y-92046937D01*
X135099046Y-91751228D01*
X134998868Y-91464935D01*
X134867265Y-91191659D01*
X134705892Y-90934836D01*
X134516779Y-90697696D01*
X134302304Y-90483221D01*
X134065164Y-90294108D01*
X133808341Y-90132735D01*
X133808338Y-90132733D01*
X133535068Y-90001133D01*
X133248783Y-89900957D01*
X133248771Y-89900953D01*
X133020556Y-89848864D01*
X132953063Y-89833460D01*
X132953060Y-89833459D01*
X132953048Y-89833457D01*
X132651663Y-89799500D01*
X132651657Y-89799500D01*
X132348343Y-89799500D01*
X132348336Y-89799500D01*
X132046951Y-89833457D01*
X132046937Y-89833460D01*
X131751228Y-89900953D01*
X131751216Y-89900957D01*
X131464931Y-90001133D01*
X131191661Y-90132733D01*
X130934837Y-90294107D01*
X130697696Y-90483220D01*
X130483220Y-90697696D01*
X130294107Y-90934837D01*
X130132733Y-91191661D01*
X130001133Y-91464931D01*
X129900957Y-91751216D01*
X129900953Y-91751228D01*
X129833460Y-92046937D01*
X129833457Y-92046951D01*
X129799500Y-92348336D01*
X42700499Y-92348336D01*
X42666540Y-92046937D01*
X42599046Y-91751228D01*
X42498868Y-91464935D01*
X42367265Y-91191659D01*
X42205892Y-90934836D01*
X42016779Y-90697696D01*
X41802304Y-90483221D01*
X41565164Y-90294108D01*
X41308341Y-90132735D01*
X41308338Y-90132733D01*
X41035068Y-90001133D01*
X40748783Y-89900957D01*
X40748771Y-89900953D01*
X40520556Y-89848864D01*
X40453063Y-89833460D01*
X40453060Y-89833459D01*
X40453048Y-89833457D01*
X40151663Y-89799500D01*
X40151657Y-89799500D01*
X39848343Y-89799500D01*
X39848336Y-89799500D01*
X39546951Y-89833457D01*
X39546937Y-89833460D01*
X39251228Y-89900953D01*
X39251216Y-89900957D01*
X38964931Y-90001133D01*
X38691661Y-90132733D01*
X38434837Y-90294107D01*
X38197696Y-90483220D01*
X37983220Y-90697696D01*
X37794107Y-90934837D01*
X37632733Y-91191661D01*
X37501133Y-91464931D01*
X37400957Y-91751216D01*
X37400953Y-91751228D01*
X37333460Y-92046937D01*
X37333457Y-92046951D01*
X37299500Y-92348336D01*
X35525500Y-92348336D01*
X35525500Y-91525862D01*
X35545185Y-91458823D01*
X35561819Y-91438181D01*
X37438181Y-89561819D01*
X37499504Y-89528334D01*
X37525862Y-89525500D01*
X135474138Y-89525500D01*
X135541177Y-89545185D01*
G37*
%TD.AperFunction*%
%TA.AperFunction,Conductor*%
G36*
X89797482Y-128462292D02*
G01*
X89869890Y-128587708D01*
X89972292Y-128690110D01*
X90097708Y-128762518D01*
X90139765Y-128773787D01*
X89550370Y-129363181D01*
X89489047Y-129396666D01*
X89462689Y-129399500D01*
X88794402Y-129399500D01*
X88727363Y-129379815D01*
X88681608Y-129327011D01*
X88671664Y-129257853D01*
X88700689Y-129194297D01*
X88706721Y-129187819D01*
X88781035Y-129113505D01*
X88903670Y-128944714D01*
X88929796Y-128893437D01*
X88977769Y-128842642D01*
X89045590Y-128825846D01*
X89111725Y-128848383D01*
X89150766Y-128893437D01*
X89176759Y-128944451D01*
X89212627Y-128993818D01*
X89212627Y-128993819D01*
X89786212Y-128420233D01*
X89797482Y-128462292D01*
G37*
%TD.AperFunction*%
%TA.AperFunction,Conductor*%
G36*
X38054417Y-100340863D02*
G01*
X38054418Y-100340863D01*
X38081924Y-100303005D01*
X38159234Y-100151277D01*
X38207208Y-100100481D01*
X38275029Y-100083686D01*
X38341164Y-100106223D01*
X38380204Y-100151277D01*
X38454689Y-100297461D01*
X38457647Y-100303266D01*
X38574731Y-100464418D01*
X38715582Y-100605269D01*
X38876734Y-100722353D01*
X38988572Y-100779337D01*
X39054219Y-100812786D01*
X39243657Y-100874338D01*
X39243658Y-100874338D01*
X39243661Y-100874339D01*
X39440403Y-100905500D01*
X39440404Y-100905500D01*
X39639596Y-100905500D01*
X39639597Y-100905500D01*
X39836339Y-100874339D01*
X39836342Y-100874338D01*
X39836343Y-100874338D01*
X40025780Y-100812786D01*
X40025780Y-100812785D01*
X40025783Y-100812785D01*
X40203266Y-100722353D01*
X40364418Y-100605269D01*
X40505269Y-100464418D01*
X40622353Y-100303266D01*
X40699515Y-100151827D01*
X40747490Y-100101031D01*
X40815311Y-100084236D01*
X40881446Y-100106773D01*
X40920485Y-100151827D01*
X40997647Y-100303266D01*
X41114731Y-100464418D01*
X41255582Y-100605269D01*
X41416734Y-100722353D01*
X41528572Y-100779337D01*
X41594219Y-100812786D01*
X41783657Y-100874338D01*
X41783658Y-100874338D01*
X41783661Y-100874339D01*
X41980403Y-100905500D01*
X41980404Y-100905500D01*
X42179596Y-100905500D01*
X42179597Y-100905500D01*
X42376339Y-100874339D01*
X42376342Y-100874338D01*
X42376343Y-100874338D01*
X42565780Y-100812786D01*
X42565780Y-100812785D01*
X42565783Y-100812785D01*
X42743266Y-100722353D01*
X42904418Y-100605269D01*
X43045269Y-100464418D01*
X43162353Y-100303266D01*
X43239515Y-100151827D01*
X43287490Y-100101031D01*
X43355311Y-100084236D01*
X43421446Y-100106773D01*
X43460485Y-100151827D01*
X43537647Y-100303266D01*
X43654731Y-100464418D01*
X43795582Y-100605269D01*
X43956734Y-100722353D01*
X44068572Y-100779337D01*
X44134219Y-100812786D01*
X44323657Y-100874338D01*
X44323658Y-100874338D01*
X44323661Y-100874339D01*
X44520403Y-100905500D01*
X44520404Y-100905500D01*
X44719596Y-100905500D01*
X44719597Y-100905500D01*
X44916339Y-100874339D01*
X44916342Y-100874338D01*
X44916343Y-100874338D01*
X45105780Y-100812786D01*
X45105780Y-100812785D01*
X45105783Y-100812785D01*
X45283266Y-100722353D01*
X45444418Y-100605269D01*
X45585269Y-100464418D01*
X45702353Y-100303266D01*
X45779515Y-100151827D01*
X45827490Y-100101031D01*
X45895311Y-100084236D01*
X45961446Y-100106773D01*
X46000485Y-100151827D01*
X46077647Y-100303266D01*
X46194731Y-100464418D01*
X46335582Y-100605269D01*
X46496734Y-100722353D01*
X46608572Y-100779337D01*
X46674219Y-100812786D01*
X46863657Y-100874338D01*
X46863658Y-100874338D01*
X46863661Y-100874339D01*
X47060403Y-100905500D01*
X47060404Y-100905500D01*
X47259596Y-100905500D01*
X47259597Y-100905500D01*
X47456339Y-100874339D01*
X47456342Y-100874338D01*
X47456343Y-100874338D01*
X47645780Y-100812786D01*
X47645780Y-100812785D01*
X47645783Y-100812785D01*
X47823266Y-100722353D01*
X47984418Y-100605269D01*
X48125269Y-100464418D01*
X48242353Y-100303266D01*
X48319515Y-100151827D01*
X48367490Y-100101031D01*
X48435311Y-100084236D01*
X48501446Y-100106773D01*
X48540485Y-100151827D01*
X48617647Y-100303266D01*
X48734731Y-100464418D01*
X48875582Y-100605269D01*
X49036734Y-100722353D01*
X49148572Y-100779337D01*
X49214219Y-100812786D01*
X49403657Y-100874338D01*
X49403658Y-100874338D01*
X49403661Y-100874339D01*
X49600403Y-100905500D01*
X49600404Y-100905500D01*
X49799596Y-100905500D01*
X49799597Y-100905500D01*
X49996339Y-100874339D01*
X49996358Y-100874332D01*
X50000378Y-100873368D01*
X50070161Y-100876849D01*
X50117022Y-100906257D01*
X50945425Y-101734660D01*
X50978910Y-101795983D01*
X50979361Y-101798149D01*
X51010261Y-101953491D01*
X51010264Y-101953501D01*
X51070602Y-102099172D01*
X51070609Y-102099185D01*
X51158210Y-102230288D01*
X51158213Y-102230292D01*
X51269707Y-102341786D01*
X51269711Y-102341789D01*
X51400814Y-102429390D01*
X51400827Y-102429397D01*
X51546498Y-102489735D01*
X51546503Y-102489737D01*
X51701153Y-102520499D01*
X51701156Y-102520500D01*
X51701158Y-102520500D01*
X51858844Y-102520500D01*
X51858845Y-102520499D01*
X52013497Y-102489737D01*
X52159179Y-102429394D01*
X52290289Y-102341789D01*
X52401789Y-102230289D01*
X52489394Y-102099179D01*
X52491676Y-102093671D01*
X52534739Y-101989705D01*
X52549737Y-101953497D01*
X52580500Y-101798842D01*
X52580500Y-101641158D01*
X52580500Y-101641155D01*
X52580499Y-101641153D01*
X52576453Y-101620814D01*
X52549737Y-101486503D01*
X52530650Y-101440423D01*
X52489397Y-101340827D01*
X52489390Y-101340814D01*
X52401789Y-101209711D01*
X52401786Y-101209707D01*
X52302753Y-101110674D01*
X52296835Y-101099836D01*
X52287356Y-101091920D01*
X52280404Y-101069746D01*
X52269268Y-101049351D01*
X52270148Y-101037032D01*
X52266455Y-101025249D01*
X52272594Y-101002839D01*
X52274252Y-100979659D01*
X52281653Y-100969772D01*
X52284916Y-100957863D01*
X52302197Y-100942329D01*
X52316124Y-100923726D01*
X52328962Y-100918270D01*
X52336879Y-100911155D01*
X52369915Y-100900869D01*
X52370556Y-100900597D01*
X52370666Y-100900579D01*
X52536339Y-100874339D01*
X52540434Y-100873008D01*
X52549463Y-100871542D01*
X52579706Y-100875329D01*
X52610161Y-100876849D01*
X52614730Y-100879716D01*
X52618791Y-100880225D01*
X52628618Y-100888432D01*
X52657021Y-100906256D01*
X55231284Y-103480520D01*
X55231286Y-103480521D01*
X55231290Y-103480524D01*
X55247196Y-103489707D01*
X55368216Y-103559577D01*
X55520943Y-103600501D01*
X55520945Y-103600501D01*
X55686654Y-103600501D01*
X55686670Y-103600500D01*
X75199903Y-103600500D01*
X75266942Y-103620185D01*
X75287584Y-103636819D01*
X77638584Y-105987819D01*
X77672069Y-106049142D01*
X77667085Y-106118834D01*
X77625213Y-106174767D01*
X77559749Y-106199184D01*
X77550903Y-106199500D01*
X77421155Y-106199500D01*
X77266510Y-106230261D01*
X77266498Y-106230264D01*
X77120827Y-106290602D01*
X77120814Y-106290609D01*
X76989711Y-106378210D01*
X76989707Y-106378213D01*
X76878213Y-106489707D01*
X76878210Y-106489711D01*
X76790609Y-106620814D01*
X76790602Y-106620827D01*
X76730264Y-106766498D01*
X76730261Y-106766510D01*
X76699500Y-106921153D01*
X76699500Y-107078846D01*
X76731451Y-107239472D01*
X76729032Y-107239953D01*
X76729564Y-107298986D01*
X76697958Y-107352804D01*
X62817022Y-121233741D01*
X62755699Y-121267226D01*
X62700404Y-121266636D01*
X62696344Y-121265661D01*
X62509623Y-121236088D01*
X62499597Y-121234500D01*
X62300403Y-121234500D01*
X62234822Y-121244887D01*
X62103659Y-121265661D01*
X62103656Y-121265661D01*
X61914219Y-121327213D01*
X61736733Y-121417647D01*
X61698286Y-121445581D01*
X61575582Y-121534731D01*
X61575580Y-121534733D01*
X61575579Y-121534733D01*
X61434733Y-121675579D01*
X61434733Y-121675580D01*
X61434731Y-121675582D01*
X61384447Y-121744790D01*
X61317647Y-121836733D01*
X61240485Y-121988172D01*
X61192510Y-122038968D01*
X61124689Y-122055763D01*
X61058554Y-122033225D01*
X61019515Y-121988172D01*
X60942486Y-121836996D01*
X60942353Y-121836734D01*
X60825269Y-121675582D01*
X60684418Y-121534731D01*
X60523266Y-121417647D01*
X60411427Y-121360662D01*
X60345780Y-121327213D01*
X60156342Y-121265661D01*
X60008782Y-121242290D01*
X59959597Y-121234500D01*
X59760403Y-121234500D01*
X59694822Y-121244887D01*
X59563659Y-121265661D01*
X59563656Y-121265661D01*
X59374219Y-121327213D01*
X59196733Y-121417647D01*
X59158286Y-121445581D01*
X59035582Y-121534731D01*
X59035580Y-121534733D01*
X59035579Y-121534733D01*
X58894733Y-121675579D01*
X58894733Y-121675580D01*
X58894731Y-121675582D01*
X58844447Y-121744790D01*
X58777647Y-121836733D01*
X58700485Y-121988172D01*
X58652510Y-122038968D01*
X58584689Y-122055763D01*
X58518554Y-122033225D01*
X58479515Y-121988172D01*
X58402486Y-121836996D01*
X58402353Y-121836734D01*
X58285269Y-121675582D01*
X58144418Y-121534731D01*
X57983266Y-121417647D01*
X57871427Y-121360662D01*
X57805780Y-121327213D01*
X57616342Y-121265661D01*
X57468782Y-121242290D01*
X57419597Y-121234500D01*
X57220403Y-121234500D01*
X57154822Y-121244887D01*
X57023659Y-121265661D01*
X57023656Y-121265661D01*
X56834219Y-121327213D01*
X56656733Y-121417647D01*
X56618286Y-121445581D01*
X56495582Y-121534731D01*
X56495580Y-121534733D01*
X56495579Y-121534733D01*
X56354733Y-121675579D01*
X56354733Y-121675580D01*
X56354731Y-121675582D01*
X56304447Y-121744790D01*
X56237647Y-121836733D01*
X56160485Y-121988172D01*
X56112510Y-122038968D01*
X56044689Y-122055763D01*
X55978554Y-122033225D01*
X55939515Y-121988172D01*
X55862486Y-121836996D01*
X55862353Y-121836734D01*
X55745269Y-121675582D01*
X55604418Y-121534731D01*
X55443266Y-121417647D01*
X55331427Y-121360662D01*
X55265780Y-121327213D01*
X55076342Y-121265661D01*
X54928782Y-121242290D01*
X54879597Y-121234500D01*
X54680403Y-121234500D01*
X54614822Y-121244887D01*
X54483659Y-121265661D01*
X54483656Y-121265661D01*
X54294219Y-121327213D01*
X54116733Y-121417647D01*
X54078286Y-121445581D01*
X53955582Y-121534731D01*
X53955580Y-121534733D01*
X53955579Y-121534733D01*
X53814733Y-121675579D01*
X53814733Y-121675580D01*
X53814731Y-121675582D01*
X53764447Y-121744790D01*
X53697647Y-121836733D01*
X53620485Y-121988172D01*
X53572510Y-122038968D01*
X53504689Y-122055763D01*
X53438554Y-122033225D01*
X53399515Y-121988172D01*
X53322486Y-121836996D01*
X53322353Y-121836734D01*
X53205269Y-121675582D01*
X53064418Y-121534731D01*
X52903266Y-121417647D01*
X52791427Y-121360662D01*
X52725780Y-121327213D01*
X52536342Y-121265661D01*
X52388782Y-121242290D01*
X52339597Y-121234500D01*
X52140403Y-121234500D01*
X52074822Y-121244887D01*
X51943659Y-121265661D01*
X51943656Y-121265661D01*
X51754219Y-121327213D01*
X51576733Y-121417647D01*
X51538286Y-121445581D01*
X51415582Y-121534731D01*
X51415580Y-121534733D01*
X51415579Y-121534733D01*
X51274733Y-121675579D01*
X51274733Y-121675580D01*
X51274731Y-121675582D01*
X51224447Y-121744790D01*
X51157647Y-121836733D01*
X51080485Y-121988172D01*
X51032510Y-122038968D01*
X50964689Y-122055763D01*
X50898554Y-122033225D01*
X50859515Y-121988172D01*
X50782486Y-121836996D01*
X50782353Y-121836734D01*
X50665269Y-121675582D01*
X50524418Y-121534731D01*
X50363266Y-121417647D01*
X50251427Y-121360662D01*
X50185780Y-121327213D01*
X49996342Y-121265661D01*
X49848782Y-121242290D01*
X49799597Y-121234500D01*
X49600403Y-121234500D01*
X49534822Y-121244887D01*
X49403659Y-121265661D01*
X49403656Y-121265661D01*
X49214219Y-121327213D01*
X49036733Y-121417647D01*
X48998286Y-121445581D01*
X48875582Y-121534731D01*
X48875580Y-121534733D01*
X48875579Y-121534733D01*
X48734733Y-121675579D01*
X48734733Y-121675580D01*
X48734731Y-121675582D01*
X48684447Y-121744790D01*
X48617647Y-121836733D01*
X48540485Y-121988172D01*
X48492510Y-122038968D01*
X48424689Y-122055763D01*
X48358554Y-122033225D01*
X48319515Y-121988172D01*
X48242486Y-121836996D01*
X48242353Y-121836734D01*
X48125269Y-121675582D01*
X47984418Y-121534731D01*
X47823266Y-121417647D01*
X47711427Y-121360662D01*
X47645780Y-121327213D01*
X47456342Y-121265661D01*
X47308782Y-121242290D01*
X47259597Y-121234500D01*
X47060403Y-121234500D01*
X46994822Y-121244887D01*
X46863659Y-121265661D01*
X46863656Y-121265661D01*
X46674219Y-121327213D01*
X46496733Y-121417647D01*
X46458286Y-121445581D01*
X46335582Y-121534731D01*
X46335580Y-121534733D01*
X46335579Y-121534733D01*
X46194733Y-121675579D01*
X46194733Y-121675580D01*
X46194731Y-121675582D01*
X46144447Y-121744790D01*
X46077647Y-121836733D01*
X46000485Y-121988172D01*
X45952510Y-122038968D01*
X45884689Y-122055763D01*
X45818554Y-122033225D01*
X45779515Y-121988172D01*
X45702486Y-121836996D01*
X45702353Y-121836734D01*
X45585269Y-121675582D01*
X45444418Y-121534731D01*
X45283266Y-121417647D01*
X45171427Y-121360662D01*
X45105780Y-121327213D01*
X44916342Y-121265661D01*
X44768782Y-121242290D01*
X44719597Y-121234500D01*
X44520403Y-121234500D01*
X44454822Y-121244887D01*
X44323659Y-121265661D01*
X44323656Y-121265661D01*
X44134219Y-121327213D01*
X43956733Y-121417647D01*
X43918286Y-121445581D01*
X43795582Y-121534731D01*
X43795580Y-121534733D01*
X43795579Y-121534733D01*
X43654733Y-121675579D01*
X43654733Y-121675580D01*
X43654731Y-121675582D01*
X43604447Y-121744790D01*
X43537647Y-121836733D01*
X43460485Y-121988172D01*
X43412510Y-122038968D01*
X43344689Y-122055763D01*
X43278554Y-122033225D01*
X43239515Y-121988172D01*
X43162486Y-121836996D01*
X43162353Y-121836734D01*
X43045269Y-121675582D01*
X42904418Y-121534731D01*
X42743266Y-121417647D01*
X42631427Y-121360662D01*
X42565780Y-121327213D01*
X42376342Y-121265661D01*
X42228782Y-121242290D01*
X42179597Y-121234500D01*
X41980403Y-121234500D01*
X41914822Y-121244887D01*
X41783659Y-121265661D01*
X41783656Y-121265661D01*
X41594219Y-121327213D01*
X41416733Y-121417647D01*
X41378286Y-121445581D01*
X41255582Y-121534731D01*
X41255580Y-121534733D01*
X41255579Y-121534733D01*
X41114733Y-121675579D01*
X41114733Y-121675580D01*
X41114731Y-121675582D01*
X41079555Y-121723997D01*
X40997645Y-121836735D01*
X40920203Y-121988723D01*
X40872229Y-122039518D01*
X40804408Y-122056313D01*
X40738273Y-122033775D01*
X40699234Y-121988722D01*
X40621924Y-121836994D01*
X40594417Y-121799135D01*
X40594417Y-121799134D01*
X40031128Y-122362424D01*
X40015245Y-122303147D01*
X39948102Y-122186853D01*
X39853147Y-122091898D01*
X39736853Y-122024755D01*
X39677574Y-122008871D01*
X40240864Y-121445581D01*
X40240863Y-121445580D01*
X40203008Y-121418077D01*
X40025594Y-121327679D01*
X39836222Y-121266147D01*
X39639563Y-121235000D01*
X39440437Y-121235000D01*
X39243777Y-121266147D01*
X39054405Y-121327679D01*
X38876990Y-121418077D01*
X38839135Y-121445580D01*
X38839135Y-121445581D01*
X39402425Y-122008871D01*
X39343147Y-122024755D01*
X39226853Y-122091898D01*
X39131898Y-122186853D01*
X39064755Y-122303147D01*
X39048871Y-122362425D01*
X38485581Y-121799135D01*
X38485580Y-121799135D01*
X38458074Y-121836995D01*
X38458073Y-121836996D01*
X38380484Y-121989272D01*
X38332510Y-122040068D01*
X38264689Y-122056863D01*
X38198554Y-122034325D01*
X38159516Y-121989272D01*
X38081928Y-121836999D01*
X38054417Y-121799135D01*
X38054417Y-121799134D01*
X37491128Y-122362424D01*
X37475245Y-122303147D01*
X37408102Y-122186853D01*
X37313147Y-122091898D01*
X37196853Y-122024755D01*
X37137574Y-122008871D01*
X37700864Y-121445581D01*
X37700863Y-121445580D01*
X37663008Y-121418077D01*
X37485594Y-121327679D01*
X37296222Y-121266147D01*
X37099563Y-121235000D01*
X36900437Y-121235000D01*
X36703777Y-121266147D01*
X36514405Y-121327679D01*
X36336990Y-121418077D01*
X36299135Y-121445580D01*
X36299135Y-121445581D01*
X36862425Y-122008871D01*
X36803147Y-122024755D01*
X36686853Y-122091898D01*
X36591898Y-122186853D01*
X36524755Y-122303147D01*
X36508871Y-122362425D01*
X35945581Y-121799135D01*
X35945580Y-121799135D01*
X35918077Y-121836990D01*
X35827679Y-122014403D01*
X35767431Y-122199829D01*
X35727993Y-122257504D01*
X35663635Y-122284702D01*
X35594788Y-122272787D01*
X35543313Y-122225543D01*
X35525500Y-122161510D01*
X35525500Y-99978489D01*
X35545185Y-99911450D01*
X35597989Y-99865695D01*
X35667147Y-99855751D01*
X35730703Y-99884776D01*
X35767431Y-99940171D01*
X35827679Y-100125594D01*
X35918077Y-100303008D01*
X35945580Y-100340863D01*
X35945581Y-100340864D01*
X36508871Y-99777574D01*
X36524755Y-99836853D01*
X36591898Y-99953147D01*
X36686853Y-100048102D01*
X36803147Y-100115245D01*
X36862425Y-100131128D01*
X36299134Y-100694417D01*
X36336994Y-100721924D01*
X36514405Y-100812320D01*
X36703777Y-100873852D01*
X36900437Y-100905000D01*
X37099563Y-100905000D01*
X37296222Y-100873852D01*
X37485594Y-100812320D01*
X37663005Y-100721924D01*
X37700863Y-100694418D01*
X37700863Y-100694417D01*
X37137574Y-100131128D01*
X37196853Y-100115245D01*
X37313147Y-100048102D01*
X37408102Y-99953147D01*
X37475245Y-99836853D01*
X37491128Y-99777574D01*
X38054417Y-100340863D01*
G37*
%TD.AperFunction*%
%TD*%
D20*
X35500000Y-89500000D02*
X137500000Y-89500000D01*
X137500000Y-134500000D01*
X35500000Y-134500000D01*
X35500000Y-89500000D01*
M02*
