%TF.GenerationSoftware,KiCad,Pcbnew,9.0.0*%
%TF.CreationDate,2025-05-10T16:39:55-04:00*%
%TF.ProjectId,HELPStat_V2,48454c50-5374-4617-945f-56322e6b6963,rev?*%
%TF.SameCoordinates,Original*%
%TF.FileFunction,Paste,Top*%
%TF.FilePolarity,Positive*%
%FSLAX46Y46*%
G04 Gerber Fmt 4.6, Leading zero omitted, Abs format (unit mm)*
G04 Created by KiCad (PCBNEW 9.0.0) date 2025-05-10 16:39:55*
%MOMM*%
%LPD*%
G01*
G04 APERTURE LIST*
G04 Aperture macros list*
%AMRoundRect*
0 Rectangle with rounded corners*
0 $1 Rounding radius*
0 $2 $3 $4 $5 $6 $7 $8 $9 X,Y pos of 4 corners*
0 Add a 4 corners polygon primitive as box body*
4,1,4,$2,$3,$4,$5,$6,$7,$8,$9,$2,$3,0*
0 Add four circle primitives for the rounded corners*
1,1,$1+$1,$2,$3*
1,1,$1+$1,$4,$5*
1,1,$1+$1,$6,$7*
1,1,$1+$1,$8,$9*
0 Add four rect primitives between the rounded corners*
20,1,$1+$1,$2,$3,$4,$5,0*
20,1,$1+$1,$4,$5,$6,$7,0*
20,1,$1+$1,$6,$7,$8,$9,0*
20,1,$1+$1,$8,$9,$2,$3,0*%
G04 Aperture macros list end*
%ADD10C,0.010000*%
%ADD11RoundRect,0.225000X-0.250000X0.225000X-0.250000X-0.225000X0.250000X-0.225000X0.250000X0.225000X0*%
%ADD12RoundRect,0.225000X0.250000X-0.225000X0.250000X0.225000X-0.250000X0.225000X-0.250000X-0.225000X0*%
%ADD13RoundRect,0.225000X0.225000X0.250000X-0.225000X0.250000X-0.225000X-0.250000X0.225000X-0.250000X0*%
%ADD14RoundRect,0.225000X-0.225000X-0.250000X0.225000X-0.250000X0.225000X0.250000X-0.225000X0.250000X0*%
%ADD15RoundRect,0.200000X0.200000X0.275000X-0.200000X0.275000X-0.200000X-0.275000X0.200000X-0.275000X0*%
%ADD16R,1.320800X0.508000*%
%ADD17R,0.863600X0.558800*%
%ADD18R,0.630000X0.830000*%
%ADD19RoundRect,0.200000X-0.200000X-0.275000X0.200000X-0.275000X0.200000X0.275000X-0.200000X0.275000X0*%
%ADD20R,1.752600X2.400000*%
%ADD21R,0.787400X2.006600*%
%ADD22R,0.400000X1.350000*%
%ADD23R,2.100000X1.600000*%
%ADD24R,1.800000X1.900000*%
%ADD25R,1.900000X1.900000*%
%ADD26RoundRect,0.045000X0.255000X-0.630000X0.255000X0.630000X-0.255000X0.630000X-0.255000X-0.630000X0*%
%ADD27RoundRect,0.200000X0.275000X-0.200000X0.275000X0.200000X-0.275000X0.200000X-0.275000X-0.200000X0*%
%ADD28RoundRect,0.032500X-0.097500X0.387500X-0.097500X-0.387500X0.097500X-0.387500X0.097500X0.387500X0*%
%ADD29RoundRect,0.032500X-0.387500X0.097500X-0.387500X-0.097500X0.387500X-0.097500X0.387500X0.097500X0*%
%TA.AperFunction,Profile*%
%ADD30C,0.050000*%
%TD*%
G04 APERTURE END LIST*
D10*
%TO.C,U4*%
X109785000Y-108035000D02*
X108165000Y-108035000D01*
X108165000Y-106415000D01*
X109785000Y-106415000D01*
X109785000Y-108035000D01*
G36*
X109785000Y-108035000D02*
G01*
X108165000Y-108035000D01*
X108165000Y-106415000D01*
X109785000Y-106415000D01*
X109785000Y-108035000D01*
G37*
X109785000Y-110585000D02*
X108165000Y-110585000D01*
X108165000Y-108965000D01*
X109785000Y-108965000D01*
X109785000Y-110585000D01*
G36*
X109785000Y-110585000D02*
G01*
X108165000Y-110585000D01*
X108165000Y-108965000D01*
X109785000Y-108965000D01*
X109785000Y-110585000D01*
G37*
X112335000Y-108035000D02*
X110715000Y-108035000D01*
X110715000Y-106415000D01*
X112335000Y-106415000D01*
X112335000Y-108035000D01*
G36*
X112335000Y-108035000D02*
G01*
X110715000Y-108035000D01*
X110715000Y-106415000D01*
X112335000Y-106415000D01*
X112335000Y-108035000D01*
G37*
X112335000Y-110585000D02*
X110715000Y-110585000D01*
X110715000Y-108965000D01*
X112335000Y-108965000D01*
X112335000Y-110585000D01*
G36*
X112335000Y-110585000D02*
G01*
X110715000Y-110585000D01*
X110715000Y-108965000D01*
X112335000Y-108965000D01*
X112335000Y-110585000D01*
G37*
%TD*%
D11*
%TO.C,C17*%
X117500000Y-129500000D03*
X117500000Y-131050000D03*
%TD*%
D12*
%TO.C,C7*%
X80000000Y-95275000D03*
X80000000Y-93725000D03*
%TD*%
%TO.C,C18*%
X108000000Y-102550000D03*
X108000000Y-101000000D03*
%TD*%
%TO.C,C9*%
X113000000Y-102550000D03*
X113000000Y-101000000D03*
%TD*%
D13*
%TO.C,C19*%
X109500000Y-99330000D03*
X107950000Y-99330000D03*
%TD*%
D12*
%TO.C,C3*%
X100500000Y-120300000D03*
X100500000Y-118750000D03*
%TD*%
D14*
%TO.C,C11*%
X115725000Y-108500000D03*
X117275000Y-108500000D03*
%TD*%
D11*
%TO.C,C4*%
X94500000Y-113475000D03*
X94500000Y-115025000D03*
%TD*%
D12*
%TO.C,C5*%
X85000000Y-95275000D03*
X85000000Y-93725000D03*
%TD*%
D15*
%TO.C,R8*%
X125325000Y-123500000D03*
X123675000Y-123500000D03*
%TD*%
D11*
%TO.C,C20*%
X108000000Y-114000000D03*
X108000000Y-115550000D03*
%TD*%
D16*
%TO.C,U2*%
X120159200Y-127849998D03*
X120159200Y-128799999D03*
X120159200Y-129750000D03*
X122750000Y-129750000D03*
X122750000Y-127849998D03*
%TD*%
D17*
%TO.C,MOSFET1*%
X104693800Y-123950001D03*
X104693800Y-122049999D03*
X102306200Y-123000000D03*
%TD*%
D18*
%TO.C,D1*%
X109500000Y-122000000D03*
X107200000Y-122000000D03*
%TD*%
D19*
%TO.C,R7*%
X123675000Y-125500000D03*
X125325000Y-125500000D03*
%TD*%
D15*
%TO.C,R4*%
X109000000Y-124250000D03*
X107350000Y-124250000D03*
%TD*%
D14*
%TO.C,C10*%
X111725000Y-115000000D03*
X113275000Y-115000000D03*
%TD*%
D20*
%TO.C,LED1*%
X119281500Y-124799999D03*
D21*
X121110300Y-124799999D03*
%TD*%
D14*
%TO.C,C12*%
X111500000Y-99330000D03*
X113050000Y-99330000D03*
%TD*%
D22*
%TO.C,J1*%
X109250000Y-128825000D03*
X109900000Y-128825000D03*
X110550000Y-128825000D03*
X111200000Y-128825000D03*
X111850000Y-128825000D03*
D23*
X107450000Y-128950000D03*
X113650000Y-128950000D03*
D24*
X106750000Y-131500000D03*
D25*
X109350000Y-131500000D03*
X111750000Y-131500000D03*
D24*
X114350000Y-131500000D03*
%TD*%
D26*
%TO.C,U3*%
X96356200Y-121185000D03*
X97306200Y-121185000D03*
X98256200Y-121185000D03*
X98256200Y-118815000D03*
X96356200Y-118815000D03*
%TD*%
D12*
%TO.C,C21*%
X110500000Y-102605000D03*
X110500000Y-101055000D03*
%TD*%
D27*
%TO.C,R9*%
X97000000Y-115075000D03*
X97000000Y-113425000D03*
%TD*%
D11*
%TO.C,C22*%
X110000000Y-114000000D03*
X110000000Y-115550000D03*
%TD*%
D20*
%TO.C,LED2*%
X100923100Y-114000000D03*
D21*
X99094300Y-114000000D03*
%TD*%
D13*
%TO.C,C8*%
X104550000Y-105500000D03*
X103000000Y-105500000D03*
%TD*%
D12*
%TO.C,C6*%
X82500000Y-95275000D03*
X82500000Y-93725000D03*
%TD*%
D28*
%TO.C,U4*%
X113000000Y-105055000D03*
X112500000Y-105055000D03*
X112000000Y-105055000D03*
X111500000Y-105055000D03*
X111000000Y-105055000D03*
X110500000Y-105055000D03*
X110000000Y-105055000D03*
X109500000Y-105055000D03*
X109000000Y-105055000D03*
X108500000Y-105055000D03*
X108000000Y-105055000D03*
X107500000Y-105055000D03*
D29*
X106805000Y-105750000D03*
X106805000Y-106250000D03*
X106805000Y-106750000D03*
X106805000Y-107250000D03*
X106805000Y-107750000D03*
X106805000Y-108250000D03*
X106805000Y-108750000D03*
X106805000Y-109250000D03*
X106805000Y-109750000D03*
X106805000Y-110250000D03*
X106805000Y-110750000D03*
X106805000Y-111250000D03*
D28*
X107500000Y-111945000D03*
X108000000Y-111945000D03*
X108500000Y-111945000D03*
X109000000Y-111945000D03*
X109500000Y-111945000D03*
X110000000Y-111945000D03*
X110500000Y-111945000D03*
X111000000Y-111945000D03*
X111500000Y-111945000D03*
X112000000Y-111945000D03*
X112500000Y-111945000D03*
X113000000Y-111945000D03*
D29*
X113695000Y-111250000D03*
X113695000Y-110750000D03*
X113695000Y-110250000D03*
X113695000Y-109750000D03*
X113695000Y-109250000D03*
X113695000Y-108750000D03*
X113695000Y-108250000D03*
X113695000Y-107750000D03*
X113695000Y-107250000D03*
X113695000Y-106750000D03*
X113695000Y-106250000D03*
X113695000Y-105750000D03*
%TD*%
D30*
X35500000Y-89500000D02*
X137500000Y-89500000D01*
X137500000Y-134500000D01*
X35500000Y-134500000D01*
X35500000Y-89500000D01*
M02*
